<svg width="265" height="382" viewBox="0 0 265 382" fill="none" xmlns="http://www.w3.org/2000/svg">
<path d="M63.6499 244.51C63.6499 244.51 130.838 225.553 207.625 243.07C207.625 243.07 140.677 272.106 63.6499 244.51Z" fill="#B7A48B"/>
<path d="M82.1252 247.628C82.1252 247.628 132.277 233.471 189.147 246.668C189.147 246.428 139.236 268.265 82.1252 247.628Z" fill="#F58C8B"/>
<path d="M126.999 250.27C108.042 245.711 89.8053 238.992 72.2883 230.354C56.2111 222.435 36.7744 212.837 24.5365 199.399C21.1771 195.799 18.7775 190.76 20.2172 186.201C21.8969 180.442 28.1359 177.323 34.1348 175.643C38.934 174.203 43.9732 173.003 49.0123 172.283C51.6519 171.804 54.5314 171.564 56.931 170.124C59.3306 168.684 61.2502 166.045 60.5303 163.405C60.2904 161.965 59.0906 160.525 58.1308 159.326C41.8135 141.809 15.1781 135.09 3.18013 114.453C0.0606654 109.414 -1.61907 102.215 2.22028 97.8961C4.37991 95.2566 7.97932 94.2967 11.5787 94.0568C22.3769 93.3369 32.4551 99.3358 42.7734 101.975C45.8929 102.695 49.4922 103.175 51.8918 101.016C54.5314 98.8559 54.7713 95.0166 54.2914 91.6572C52.3717 77.9795 43.9732 66.2215 37.7342 53.9836C33.8949 46.3049 30.7754 38.3862 28.6158 29.9877C27.416 25.1885 26.4562 19.9094 28.1359 15.3502C29.3357 11.9908 31.9752 9.35123 34.6148 6.95163C37.9742 3.83217 42.2935 0.952641 46.8527 0.712682C52.8517 0.472723 57.8908 4.79199 61.7301 9.11125C69.8888 18.2297 75.8877 29.0279 79.7271 40.5459C81.8867 47.2648 83.0865 54.2236 85.7261 60.9424C88.3656 67.6613 92.4449 73.9002 98.4439 77.4996C109.722 83.9785 116.681 71.2607 121.72 63.1021C127.239 54.4635 133.718 43.4254 144.996 42.9455C147.156 42.9455 149.555 43.1854 151.235 44.8651C153.155 46.7848 153.634 49.6643 153.874 52.3039C154.354 62.1422 152.195 72.2205 147.636 81.099C145.236 85.6582 142.116 89.9775 140.917 95.0166C139.477 100.056 140.437 106.055 144.516 108.934C150.275 113.014 158.434 109.174 163.953 104.855C169.472 100.536 175.951 95.0166 182.909 96.6963C188.908 97.8961 192.748 104.135 193.228 110.374C193.708 116.373 191.788 122.372 189.628 128.131C174.031 169.404 153.634 214.996 126.279 249.31" fill="#32AA85"/>
<g opacity="0.3497">
<g opacity="0.3497">
<path opacity="0.3497" d="M49.7352 28.0681C55.9741 40.306 61.2532 53.2638 66.0524 65.9817C71.0916 78.9394 75.6508 91.8973 80.45 104.855C90.0483 131.011 99.8866 157.166 108.285 183.802C110.685 191.24 112.844 198.679 115.004 206.118C115.964 209.957 116.924 213.557 117.884 217.396C118.363 219.316 118.843 221.235 119.323 223.395C119.563 224.115 119.803 225.075 120.043 226.034C120.043 226.274 120.043 226.514 120.043 226.514C120.043 227.474 119.803 226.514 120.763 226.514C118.843 226.514 118.124 229.634 120.283 230.114C123.163 230.834 124.602 227.714 124.123 225.315C123.643 221.715 122.443 218.356 121.483 214.756C119.803 207.798 117.644 200.839 115.724 193.88C111.645 179.962 107.085 166.045 102.286 152.127C97.487 138.449 92.4479 124.772 87.4088 111.334C82.3696 97.8963 77.3305 84.4585 71.8114 71.2608C65.5725 56.3833 58.3737 41.9857 50.935 27.5882C50.695 26.1484 49.2553 27.1083 49.7352 28.0681Z" fill="#001A34"/>
</g>
</g>
<g opacity="0.3497">
<g opacity="0.3497">
<path opacity="0.3497" d="M43.253 120.454C52.1315 127.413 61.25 134.132 70.6084 140.611C75.1676 143.73 79.7268 146.849 84.526 149.969C86.9256 151.649 89.3252 153.088 91.7248 154.528C93.8844 155.728 96.284 157.888 98.9236 157.648C99.4035 157.648 99.8834 156.688 99.6434 156.208C98.9236 153.808 95.5641 152.369 93.6445 151.169C91.2449 149.489 88.8453 148.049 86.4457 146.61C81.6465 143.73 77.0873 140.611 72.5281 137.491C62.9297 131.492 53.5713 125.253 44.2129 118.774C43.253 118.054 42.2932 119.734 43.253 120.454Z" fill="#001A34"/>
</g>
</g>
<g opacity="0.3497">
<g opacity="0.3497">
<path opacity="0.3497" d="M121.721 91.4174C121.001 96.2166 119.322 101.016 117.882 105.575C116.442 110.374 114.762 114.933 112.843 119.493C110.923 124.052 109.003 128.611 106.844 133.17C104.684 137.49 101.805 141.809 100.125 146.128C99.405 147.568 101.805 148.768 102.764 147.568C106.124 143.968 108.523 139.169 110.923 134.61C113.083 130.291 115.242 125.732 116.922 120.932C118.602 116.373 120.041 111.574 121.001 106.775C121.961 101.736 122.441 96.4566 123.161 91.4174C123.161 90.9375 121.721 90.4576 121.721 91.4174Z" fill="#001A34"/>
</g>
</g>
<g opacity="0.3497">
<g opacity="0.3497">
<path opacity="0.3497" d="M60.7683 187.16C69.4069 193.399 78.5253 199.398 87.6437 204.677C92.203 207.317 97.0021 209.956 101.801 212.356C104.201 213.555 106.361 214.755 108.76 215.715C111.16 216.675 113.799 217.875 116.199 217.875C116.679 217.875 116.919 217.155 116.679 216.675C114.999 214.755 112.36 213.555 110.2 212.356C107.8 211.156 105.641 209.956 103.241 208.756C98.4419 206.357 93.8827 203.957 89.3235 201.558C79.965 196.518 70.8466 191.239 61.7282 185.48C60.7683 184.76 59.5685 186.44 60.7683 187.16Z" fill="#001A34"/>
</g>
</g>
<g opacity="0.3497">
<g opacity="0.3497">
<path opacity="0.3497" d="M138.997 140.85C137.317 145.169 135.158 149.248 133.238 153.568C131.318 157.647 129.399 161.726 127.239 165.806C125.079 169.885 122.92 173.724 120.52 177.564C119.32 179.483 117.88 181.403 116.681 183.323C115.481 185.002 113.801 186.922 113.081 188.842C112.601 190.281 114.041 191.001 115.241 190.521C117.161 189.562 118.84 187.642 120.04 185.962C121.48 184.043 122.92 182.363 124.119 180.203C126.759 176.124 128.919 172.045 131.078 167.725C133.238 163.406 134.918 159.087 136.597 154.528C138.277 150.208 139.237 145.649 140.917 141.09C141.157 140.13 139.237 139.65 138.997 140.85Z" fill="#001A34"/>
</g>
</g>
<path d="M129.877 255.309C120.519 241.391 112.6 226.274 106.361 210.676C100.602 196.279 93.6436 178.762 93.6436 162.925C93.6436 158.605 95.0833 154.046 98.6827 151.886C103.242 149.007 109.001 150.927 113.8 153.086C117.879 155.006 121.719 157.165 125.318 159.565C127.238 160.765 129.397 162.205 131.557 162.925C133.957 163.404 136.596 162.685 137.796 160.765C138.516 159.565 138.516 158.125 138.516 156.686C138.276 136.049 125.318 116.132 129.397 95.9759C130.357 90.9367 133.477 85.4177 138.516 84.9378C141.395 84.6979 144.275 86.1376 146.675 88.0573C153.873 94.0562 156.993 103.415 162.032 111.333C163.472 113.733 165.631 115.893 168.511 116.133C171.39 116.372 173.79 113.973 175.47 111.333C182.188 101.495 183.628 89.0171 186.988 77.4991C188.907 70.3003 191.787 63.3415 195.146 56.8626C197.066 53.0232 199.706 49.1839 203.545 47.2642C206.184 45.8245 209.544 45.5845 212.663 45.5845C216.743 45.5845 221.062 46.0644 224.181 48.704C228.021 52.0634 228.741 57.8224 228.741 62.8616C228.741 73.4198 226.341 83.978 221.782 93.3364C219.142 98.8555 216.023 104.135 213.623 109.894C211.463 115.653 210.264 122.131 212.183 127.89C215.783 138.689 227.541 134.609 235.459 132.21C243.858 129.81 254.416 126.691 262.095 132.93C263.535 134.129 264.974 135.809 264.974 137.729C265.214 140.128 263.775 142.288 262.335 143.968C256.816 150.687 249.617 155.966 241.458 158.845C237.379 160.285 232.82 161.245 228.981 163.644C225.141 166.044 222.262 170.363 223.221 174.683C224.421 180.682 231.86 183.081 238.099 183.321C244.338 183.801 251.537 184.041 255.136 189.08C258.256 193.399 257.056 199.638 253.936 203.957C250.817 208.277 246.018 210.916 241.218 213.316C207.144 230.593 167.551 247.87 129.877 254.109" fill="#F58C8B"/>
<g opacity="0.3497">
<g opacity="0.3497">
<path opacity="0.3497" d="M210.027 67.6615C206.907 79.1795 202.588 90.6975 198.269 101.976C193.949 113.014 189.39 124.052 184.831 135.09C175.713 157.166 166.834 179.482 156.756 201.319C153.876 207.318 150.997 213.317 148.117 219.316C146.677 222.195 144.998 225.315 143.558 228.194C142.838 229.634 141.878 231.314 141.158 232.753C140.678 233.473 140.439 234.193 139.959 234.673C139.719 234.913 139.719 235.153 139.479 235.393L139.239 235.633C138.759 235.873 138.999 235.873 139.479 235.873C138.279 234.913 136.359 236.833 137.319 238.032C138.999 240.192 141.398 239.232 142.598 237.313C144.278 234.673 145.718 231.794 147.157 229.154C150.037 223.635 152.916 218.116 155.556 212.597C161.075 201.319 166.114 190.041 170.913 178.523C175.712 167.005 180.512 155.487 185.311 143.968C190.11 132.45 194.669 120.692 198.989 108.934C203.788 95.4968 207.627 82.059 211.226 68.3813C211.706 67.1815 210.267 66.7017 210.027 67.6615Z" fill="#001A34"/>
</g>
</g>
<g opacity="0.3497">
<g opacity="0.3497">
<path opacity="0.3497" d="M151.953 123.332C153.633 132.931 155.552 142.769 157.712 152.367C158.912 157.167 160.112 161.726 161.311 166.525C162.031 168.925 162.511 171.324 163.231 173.484C163.711 175.404 164.191 178.283 165.871 179.483C166.351 179.723 167.07 179.483 167.31 179.243C168.27 177.323 167.07 174.684 166.591 172.764C166.111 170.604 165.391 168.205 164.671 166.045C163.231 161.246 162.031 156.447 160.832 151.648C158.192 142.049 155.792 132.691 153.633 123.092C153.393 121.653 151.713 122.133 151.953 123.332Z" fill="#001A34"/>
</g>
</g>
<g opacity="0.3497">
<g opacity="0.3497">
<path opacity="0.3497" d="M219.138 150.449C215.778 153.089 211.939 155.249 208.1 157.408C204.5 159.568 200.661 161.487 197.061 163.407C193.222 165.327 189.383 167.007 185.543 168.686C181.704 170.126 177.385 171.326 173.545 173.005C172.346 173.485 172.826 175.645 174.265 175.645C178.585 175.165 182.904 173.485 186.983 172.046C191.062 170.606 195.142 168.926 198.981 166.767C202.82 164.607 206.66 162.447 210.019 159.808C213.619 157.168 216.738 154.289 220.098 151.409C220.577 150.689 219.618 149.969 219.138 150.449Z" fill="#001A34"/>
</g>
</g>
<g opacity="0.3497">
<g opacity="0.3497">
<path opacity="0.3497" d="M124.117 176.124C126.037 185.242 128.196 194.361 131.076 203.239C132.516 207.558 133.955 211.878 135.635 216.197C136.355 218.357 137.315 220.276 138.275 222.436C139.235 224.355 140.194 226.755 141.874 228.195C142.354 228.435 142.834 228.195 142.834 227.715C142.834 225.555 141.874 223.396 141.154 221.236C140.434 219.076 139.475 216.917 138.755 214.997C137.075 210.678 135.395 206.359 133.955 202.039C130.836 193.401 127.956 184.522 125.797 175.644C125.557 174.684 123.877 175.164 124.117 176.124Z" fill="#001A34"/>
</g>
</g>
<g opacity="0.3497">
<g opacity="0.3497">
<path opacity="0.3497" d="M201.384 192.2C197.784 194.12 193.945 195.32 190.346 196.999C186.746 198.679 182.907 200.119 179.068 201.559C175.468 202.998 171.629 204.198 167.789 205.158C165.87 205.638 163.95 206.118 162.03 206.598C160.111 206.838 158.191 207.078 156.511 208.037C155.552 208.517 155.792 209.957 156.751 210.437C158.671 211.157 160.831 210.677 162.51 210.437C164.43 210.197 166.35 209.717 168.269 209.237C172.349 208.277 176.188 206.838 180.027 205.398C183.867 203.958 187.466 202.038 191.066 200.359C194.665 198.439 198.264 196.04 201.864 194.12C203.063 192.92 202.344 191.72 201.384 192.2Z" fill="#001A34"/>
</g>
</g>
<path d="M130.837 252.911C121.958 247.872 113.56 241.873 106.121 234.914C99.1621 228.675 90.5236 220.996 86.4443 212.358C85.2445 209.958 84.7645 207.079 86.2043 204.919C87.884 202.28 91.4834 201.56 94.6029 201.56C97.2424 201.56 99.882 201.56 102.761 202.04C104.201 202.28 105.641 202.52 107.081 202.04C108.52 201.8 109.72 200.6 109.96 199.16C109.96 198.44 109.72 197.48 109.24 196.761C103.481 185.722 91.0035 178.284 87.884 166.046C87.1641 162.926 87.1641 159.327 89.8037 157.407C91.2434 156.447 93.4031 156.447 95.0828 156.927C100.602 158.127 104.921 162.446 109.72 165.326C111.16 166.046 112.84 166.766 114.519 166.286C116.199 165.566 116.919 163.646 117.159 161.727C118.119 154.528 115.479 147.329 114.28 140.37C113.32 136.051 113.08 131.492 113.08 126.932C113.08 124.293 113.32 121.653 114.999 119.494C116.199 118.054 117.879 117.094 119.559 116.134C121.718 115.174 124.358 114.215 126.757 114.695C129.877 115.414 131.797 118.294 132.996 121.173C135.876 126.932 137.316 133.171 137.556 139.65C137.556 143.49 137.316 147.089 137.556 150.928C137.796 154.528 138.995 158.367 141.635 161.007C146.434 165.806 151.713 160.527 155.553 157.167C159.632 153.568 164.431 149.009 170.19 150.448C171.39 150.688 172.59 151.168 173.07 152.368C173.789 153.568 173.549 155.248 173.309 156.447C172.11 161.487 169.71 166.286 166.111 170.125C164.191 172.045 162.031 173.725 160.592 176.124C159.152 178.524 158.672 181.643 160.352 183.803C162.751 186.682 167.311 185.962 170.91 184.523C174.269 183.083 178.349 181.403 181.708 183.083C184.588 184.523 185.547 188.362 185.067 191.481C184.588 194.601 182.668 197.48 180.748 199.88C166.831 218.357 150.033 238.513 131.317 252.191" fill="#B7A48B"/>
<g opacity="0.3497">
<g opacity="0.3497">
<path opacity="0.3497" d="M123.875 129.331C126.754 143.488 127.474 158.126 128.434 172.523C129.394 186.921 130.594 201.318 131.074 215.956C131.314 220.035 131.314 224.115 131.314 228.194C131.314 230.114 131.314 232.273 131.314 234.193C131.314 235.393 131.314 236.353 131.314 237.552C131.314 238.032 131.314 238.272 131.314 238.752C131.314 238.992 131.314 239.232 131.314 239.712C131.074 240.192 131.074 240.192 131.314 239.952C130.114 239.952 130.114 241.392 131.074 241.872C134.193 243.071 133.713 236.832 133.713 235.393C133.713 231.553 133.953 227.954 133.953 224.115C133.953 216.196 133.473 208.517 133.233 200.599C132.273 185.241 131.314 169.644 129.394 154.287C128.434 145.888 126.754 137.489 125.075 129.331C124.595 128.611 123.635 128.851 123.875 129.331Z" fill="#001A34"/>
</g>
</g>
<g opacity="0.3497">
<g opacity="0.3497">
<path opacity="0.3497" d="M107.082 175.162C110.681 179.961 114.281 184.761 118.12 189.32C120.04 191.719 121.959 193.879 123.879 196.039C124.839 197.238 125.799 198.198 126.998 199.398C127.958 200.358 128.678 201.798 130.118 202.038C130.598 202.278 130.838 201.798 130.838 201.318C130.598 200.118 129.398 199.158 128.678 198.198C127.718 197.238 126.759 196.039 125.799 195.079C123.879 192.919 121.719 190.52 119.8 188.36C115.96 183.801 111.881 179.482 108.042 174.922C107.562 174.202 106.842 174.682 107.082 175.162Z" fill="#001A34"/>
</g>
</g>
<g opacity="0.3497">
<g opacity="0.3497">
<path opacity="0.3497" d="M150.994 171.803C150.034 174.203 148.594 176.363 147.154 178.282C145.715 180.442 144.275 182.601 142.595 184.761C141.155 186.681 139.476 188.6 137.796 190.52C136.116 192.44 133.957 194.12 132.277 196.279C131.797 196.999 132.517 198.199 133.237 197.479C135.396 196.279 137.316 194.119 138.996 192.44C140.916 190.52 142.595 188.36 144.035 186.441C145.475 184.281 146.914 182.122 148.114 179.722C149.314 177.322 150.274 174.683 151.474 172.283C151.954 171.803 151.234 171.323 150.994 171.803Z" fill="#001A34"/>
</g>
</g>
<g opacity="0.3497">
<g opacity="0.3497">
<path opacity="0.3497" d="M106.361 211.636C109.961 216.195 113.56 220.515 117.639 224.594C119.559 226.514 121.719 228.673 123.638 230.353C125.558 232.033 127.718 234.192 130.117 235.152C130.357 235.152 130.597 234.912 130.597 234.672C129.397 232.273 126.758 230.593 125.078 228.913C122.918 226.994 120.999 225.074 118.839 223.154C114.76 219.315 110.92 215.236 107.081 210.916C106.841 210.196 106.121 210.916 106.361 211.636Z" fill="#001A34"/>
</g>
</g>
<g opacity="0.3497">
<g opacity="0.3497">
<path opacity="0.3497" d="M152.673 199.397C151.233 201.317 149.553 203.237 147.873 205.156C146.194 207.076 144.754 208.756 143.074 210.435C141.394 212.115 139.715 213.795 138.035 215.475C137.075 216.194 136.355 216.914 135.396 217.634C134.436 218.354 133.476 219.074 132.756 220.034C132.276 220.754 132.996 221.234 133.716 221.234C134.916 220.994 135.875 220.274 136.835 219.554C137.795 218.834 138.755 218.114 139.715 217.394C141.634 215.714 143.314 214.035 144.994 212.115C146.674 210.195 148.113 208.276 149.553 206.356C150.993 204.196 152.193 202.037 153.632 200.117C153.872 199.397 153.152 198.917 152.673 199.397Z" fill="#001A34"/>
</g>
</g>
<path d="M63.6499 244.509C63.6499 244.509 126.039 261.546 207.625 243.069L194.428 372.887C194.428 372.887 159.154 391.604 74.928 373.607L63.6499 244.509Z" fill="#FDC642"/>
<path d="M82.1252 351.293C82.1252 351.293 142.115 367.61 185.068 351.293" stroke="#071821" stroke-width="0.268056" stroke-miterlimit="10"/>
<path d="M82.1252 354.892C82.1252 354.892 142.115 371.209 185.068 354.892" stroke="#071821" stroke-width="0.268056" stroke-miterlimit="10"/>
<path d="M86.4446 343.614C89.4927 343.614 91.9637 341.143 91.9637 338.095C91.9637 335.047 89.4927 332.576 86.4446 332.576C83.3965 332.576 80.9255 335.047 80.9255 338.095C80.9255 341.143 83.3965 343.614 86.4446 343.614Z" stroke="#071821" stroke-width="0.268056" stroke-miterlimit="10"/>
<path d="M174.995 343.614C178.043 343.614 180.514 341.143 180.514 338.095C180.514 335.047 178.043 332.576 174.995 332.576C171.947 332.576 169.476 335.047 169.476 338.095C169.476 341.143 171.947 343.614 174.995 343.614Z" stroke="#071821" stroke-width="0.268056" stroke-miterlimit="10"/>
<path d="M130.117 349.134C133.165 349.134 135.636 346.663 135.636 343.615C135.636 340.567 133.165 338.096 130.117 338.096C127.069 338.096 124.598 340.567 124.598 343.615C124.598 346.663 127.069 349.134 130.117 349.134Z" stroke="#071821" stroke-width="0.268056" stroke-miterlimit="10"/>
</svg>
