<svg width="281" height="439" viewBox="0 0 281 439" fill="none" xmlns="http://www.w3.org/2000/svg">
<path d="M220.281 288.383C220.281 288.383 146.769 267.656 62.7549 286.725C62.7549 286.725 135.991 318.783 220.281 288.383Z" fill="#B7A48B"/>
<path d="M200.379 291.701C200.379 291.701 145.66 276.225 83.2021 290.595C83.2021 290.595 137.645 314.362 200.379 291.701Z" fill="#FDC642"/>
<path d="M140.41 309.111C139.028 309.111 137.923 308.006 137.923 306.624C133.225 216.254 141.515 100.459 141.515 99.3531C141.515 97.9713 142.897 96.8659 144.279 97.1422C145.661 97.1422 146.766 98.524 146.49 99.9058C146.49 101.011 138.476 216.53 142.897 306.624C142.897 308.006 141.792 309.111 140.41 309.111Z" fill="#B7A48B"/>
<path d="M141.24 314.083C141.24 314.083 140.963 314.083 141.24 314.083C139.582 313.807 138.752 312.701 138.752 311.319C154.505 168.164 194.025 155.728 195.683 155.176C197.065 154.899 198.446 155.452 198.723 156.834C198.999 158.215 198.446 159.597 197.065 159.874C196.512 160.15 159.203 173.415 143.727 311.872C143.451 313.254 142.345 314.083 141.24 314.083Z" fill="#B7A48B"/>
<path d="M220.281 288.382C220.281 288.382 152.019 306.898 62.7549 286.724L77.1257 428.773C77.1257 428.773 115.816 449.224 207.844 429.602L220.281 288.382Z" fill="#2D509E"/>
<path d="M279.699 213.488L263.394 212.659L278.317 203.815C275.277 184.193 269.197 168.441 261.735 156.005L243.772 162.637L255.656 146.885C247.917 137.212 239.627 130.856 231.336 128.092C208.951 120.354 198.172 154.899 198.172 154.899C198.172 154.899 160.864 143.845 162.522 184.193C163.351 208.237 180.762 225.924 201.765 238.36L211.161 225.648L210.056 243.058C242.39 259.64 278.87 265.167 278.593 264.062C281.081 245.546 281.357 228.411 279.699 213.488ZM210.056 209.066C207.569 212.106 204.529 214.593 201.212 216.251C200.107 216.804 199.002 217.357 197.62 217.357C196.238 217.357 195.133 217.08 194.303 215.975C193.474 214.87 193.474 213.488 194.027 212.382C194.58 211.277 195.409 210.171 196.514 209.342C198.172 207.684 210.885 199.393 211.438 205.75C211.714 206.855 210.885 207.961 210.056 209.066ZM255.379 198.564C254.826 196.353 256.761 194.419 258.695 193.59C260.63 193.037 267.539 190.273 266.434 194.419C266.157 195.524 265.328 196.353 264.775 196.906C263.394 198.288 262.012 199.67 260.077 200.499C258.419 201.328 256.208 200.499 255.379 198.564Z" fill="#32AA85"/>
<path d="M278.593 265.443C278.04 265.443 277.487 265.166 277.487 264.614C253.72 201.327 197.895 156.28 197.343 156.004C196.79 155.451 196.79 154.898 197.066 154.346C197.619 153.793 198.172 153.793 198.724 154.069C199.277 154.622 255.655 199.945 279.698 263.784C279.975 264.337 279.698 265.166 278.869 265.443C278.869 265.443 278.869 265.443 278.593 265.443Z" fill="#B7A48B"/>
<path d="M224.702 250.796C224.426 250.796 224.426 250.796 224.149 250.519C223.597 250.243 223.32 249.414 223.597 248.861C239.073 220.949 239.349 198.563 239.349 198.287C239.349 197.734 239.902 197.182 240.455 197.182C241.007 197.182 241.56 197.734 241.56 198.563C241.56 199.393 241.284 221.778 225.531 250.243C225.531 250.519 225.255 250.796 224.702 250.796Z" fill="#B7A48B"/>
<path d="M166.941 201.327C166.389 201.327 165.836 200.775 165.836 200.222C165.836 199.669 166.112 198.84 166.941 198.84C201.487 194.142 215.857 172.862 215.857 172.586C216.134 172.033 216.963 171.757 217.515 172.31C218.068 172.586 218.345 173.415 217.792 173.968C217.239 175.073 202.592 196.629 166.941 201.327Z" fill="#B7A48B"/>
<path d="M231.058 187.786C230.505 187.786 229.953 187.233 229.953 186.68C229.953 186.128 230.505 185.299 231.058 185.299C247.64 185.022 268.643 173.691 268.643 173.691C269.196 173.415 270.025 173.691 270.301 174.244C270.578 174.797 270.301 175.626 269.749 175.902C268.919 176.455 248.192 187.509 231.058 187.786Z" fill="#B7A48B"/>
<path d="M157.265 21.9732L163.345 37.1731L148.974 27.2241C132.668 38.2785 120.785 50.7147 113.047 62.5982L126.865 76.1399L107.52 72.2709C101.992 83.3253 100.058 93.827 100.887 102.118C103.651 125.885 139.301 120.634 139.301 120.634C139.301 120.634 145.381 159.048 181.032 140.532C202.311 129.478 210.879 106.263 213.366 81.9435L197.89 78.9035L213.919 72.5472C215.024 36.3439 204.522 0.693403 203.693 1.52249C185.73 7.0497 170.254 13.9587 157.265 21.9732ZM182.966 86.918C186.559 87.7471 190.152 89.4052 193.192 91.8925C194.297 92.7216 195.126 93.5506 195.679 94.6561C196.231 95.7615 196.508 97.1433 195.679 98.2488C195.126 99.3542 193.744 99.907 192.362 99.907C190.981 99.907 189.875 99.6306 188.77 99.0779C186.559 98.2488 173.57 90.2343 179.373 87.1943C180.479 86.3653 181.861 86.6417 182.966 86.918ZM154.501 50.162C152.843 51.8202 150.079 50.7147 148.697 49.0565C147.316 47.6747 142.065 42.4239 146.21 41.5948C147.316 41.3184 148.421 41.8712 149.25 42.1475C151.185 42.7002 153.119 43.5293 154.225 44.9111C155.33 46.2929 155.883 48.7802 154.501 50.162Z" fill="#32AA85"/>
<path d="M204.802 0.690877C205.079 1.2436 204.802 1.79632 204.526 2.07268C157.545 50.4358 140.687 120.355 140.41 120.908C140.134 121.461 139.581 122.013 139.029 121.737C138.476 121.461 137.923 120.908 138.199 120.355C138.476 119.526 155.334 49.3304 202.868 0.414541C203.421 -0.13818 204.25 -0.13818 204.526 0.414541C204.802 0.414541 204.802 0.690877 204.802 0.690877Z" fill="#B7A48B"/>
<path d="M214.747 55.6884C214.747 55.9648 214.747 55.9648 214.747 56.2412C214.747 56.7939 214.195 57.3466 213.365 57.3466C181.584 55.4121 161.133 64.532 160.857 64.8084C160.304 65.0847 159.475 64.8083 159.199 64.2556C158.922 63.7029 159.199 62.8738 159.751 62.5975C160.581 62.3211 181.031 52.9248 213.365 54.8594C214.195 55.1357 214.471 55.4121 214.747 55.6884Z" fill="#B7A48B"/>
<path d="M194.575 128.922C194.851 129.474 194.575 130.027 194.022 130.58C193.469 130.856 192.64 130.856 192.364 130.303C173.571 101.009 148.146 97.1401 147.87 97.1401C147.317 97.1401 146.764 96.311 146.764 95.7583C146.764 95.2056 147.593 94.6528 148.146 94.6528C149.251 94.9292 174.953 98.7983 194.575 128.922Z" fill="#B7A48B"/>
<path d="M155.054 76.966C155.331 77.5187 155.054 78.3478 154.502 78.6242C153.949 78.9005 153.12 78.6241 152.844 78.0714C145.382 63.1479 126.589 49.0535 126.313 49.0535C125.76 48.7772 125.76 47.9481 126.037 47.3954C126.313 46.8427 127.142 46.8427 127.695 47.119C128.524 47.3954 147.316 61.4898 155.054 76.966Z" fill="#B7A48B"/>
<path d="M1.67668 175.074C0.847594 175.903 36.7745 185.023 72.9778 182.259L78.7813 165.954L82.6504 181.43C106.97 178.114 129.632 168.717 139.857 146.608C156.991 110.129 118.301 105.707 118.301 105.707C118.301 105.707 121.894 69.7802 98.1266 68.122C89.5594 67.5693 79.3341 70.0566 68.556 75.8602L73.2541 94.929L59.1597 81.6637C47.5526 89.9545 35.6691 102.391 25.1673 119.249L35.6691 133.067L20.4692 127.54C13.0075 141.358 6.65117 156.834 1.67668 175.074ZM86.2431 147.438C89.0067 141.634 97.5739 154.347 98.6793 156.558C99.232 157.663 99.7848 159.045 99.7848 160.15C99.7848 161.532 99.232 162.914 98.1266 163.467C97.0211 164.019 95.6393 164.019 94.5339 163.467C93.4284 162.914 92.5994 162.085 91.7703 160.979C89.283 157.939 87.3485 154.623 86.5194 151.03C85.9667 149.925 85.6903 148.543 86.2431 147.438ZM43.4071 123.947C42.0253 122.565 41.1962 120.907 40.6435 118.972C40.3672 117.867 39.8145 117.038 40.0908 115.932C40.6435 111.787 46.1707 116.762 47.5525 118.143C49.2107 119.525 50.3162 122.289 48.658 123.947C47.2762 125.329 44.7889 125.052 43.4071 123.947Z" fill="#32AA85"/>
<path d="M1.12355 176.458C1.67627 176.734 2.22899 176.458 2.50535 176.181C48.934 127.265 117.748 107.367 118.577 107.091C119.13 106.815 119.682 106.262 119.406 105.433C119.13 104.88 118.577 104.327 117.748 104.604C116.919 104.88 47.5521 124.778 0.570791 174.247C0.0180696 174.799 0.0180696 175.629 0.570791 175.905C0.847152 176.181 1.12355 176.181 1.12355 176.458Z" fill="#B7A48B"/>
<path d="M56.6687 183.919C56.9451 183.919 56.9451 183.919 57.2214 183.919C57.7742 183.919 58.3269 183.366 58.3269 182.537C55.0106 150.755 63.3014 130.028 63.5777 130.028C63.8541 129.476 63.5777 128.646 63.025 128.37C62.4723 128.094 61.6432 128.37 61.3668 128.923C61.0905 129.752 52.5233 150.479 56.116 182.813C55.8396 183.366 56.3924 183.642 56.6687 183.919Z" fill="#B7A48B"/>
<path d="M129.081 160.704C129.633 160.98 130.186 160.704 130.739 160.151C131.015 159.599 131.015 158.769 130.186 158.493C100.339 140.806 95.3647 115.657 95.3647 115.381C95.3647 114.828 94.5356 114.275 93.9829 114.275C93.4301 114.275 92.8774 115.104 92.8774 115.657C92.8774 117.039 97.8519 142.464 129.081 160.704C129.081 160.704 128.804 160.704 129.081 160.704Z" fill="#B7A48B"/>
<path d="M75.4699 123.395C76.0226 123.671 76.8517 123.395 77.1281 122.842C77.4044 122.289 77.128 121.46 76.5753 121.184C61.3755 114.275 46.452 96.035 46.452 95.7587C45.8993 95.206 45.3465 95.2059 44.7938 95.4823C44.2411 96.035 44.2411 96.5878 44.5175 97.1405C44.7938 98.2459 59.7173 116.486 75.4699 123.395C75.4699 123.395 75.1935 123.395 75.4699 123.395Z" fill="#B7A48B"/>
<path d="M53.3549 280.367C53.0786 281.473 89.5582 275.946 121.892 259.364L120.787 241.953L130.183 254.666C151.187 242.23 168.597 224.543 169.426 200.499C171.085 160.15 133.776 171.205 133.776 171.205C133.776 171.205 122.998 136.936 100.613 144.398C92.5982 147.162 84.031 153.518 76.2929 163.19L88.1764 178.943L70.2129 172.31C62.7512 184.47 56.6713 200.499 53.6313 220.121L68.5548 228.964L52.2495 229.793C50.8677 244.717 50.8677 261.575 53.3549 280.367ZM120.511 221.779C120.787 215.146 133.5 223.713 135.434 225.372C136.54 226.201 137.369 227.03 137.921 228.412C138.474 229.517 138.474 231.175 137.645 232.004C136.816 233.11 135.71 233.386 134.329 233.386C132.947 233.386 131.841 232.833 130.736 232.281C127.42 230.622 124.38 228.135 121.892 225.095C121.063 224.266 120.511 223.161 120.511 221.779ZM71.5948 216.804C69.6602 216.252 68.2784 214.87 66.8966 213.212C66.0675 212.383 65.5148 211.554 65.2384 210.725C64.133 206.579 71.042 209.343 72.9766 209.895C75.1874 210.725 77.122 212.659 76.2929 214.87C76.0165 216.804 73.5293 217.357 71.5948 216.804Z" fill="#32AA85"/>
<path d="M53.3521 281.474C53.9049 281.474 54.4576 281.198 54.4576 280.645C78.2246 217.359 134.049 172.312 134.602 172.035C135.155 171.483 135.155 170.93 134.879 170.377C134.326 169.825 133.773 169.825 133.22 170.101C132.668 170.654 76.2901 215.977 52.2467 279.816C51.9703 280.369 52.2467 281.198 53.0758 281.474C53.0758 281.474 53.3521 281.474 53.3521 281.474Z" fill="#B7A48B"/>
<path d="M107.246 266.826C107.523 266.826 107.523 266.826 107.799 266.55C108.352 266.274 108.628 265.445 108.352 264.892C92.8754 236.979 92.5991 214.594 92.5991 214.318C92.5991 213.765 92.0464 213.212 91.4937 213.212C90.9409 213.212 90.3882 213.765 90.3882 214.594C90.3882 215.423 90.6646 237.809 106.417 266.274C106.417 266.55 106.97 266.826 107.246 266.826Z" fill="#B7A48B"/>
<path d="M165 217.636C165.553 217.636 166.105 217.083 166.105 216.53C166.105 215.977 165.829 215.148 165 215.148C130.455 210.45 116.084 189.17 116.084 188.894C115.808 188.341 114.979 188.065 114.426 188.618C113.873 188.894 113.597 189.723 114.149 190.276C114.979 191.105 129.349 212.661 165 217.636Z" fill="#B7A48B"/>
<path d="M101.161 204.092C101.713 204.092 102.266 203.54 102.266 202.987C102.266 202.434 101.713 201.605 101.161 201.605C84.5791 201.329 63.5756 189.998 63.5756 189.998C63.0229 189.722 62.1939 189.998 61.9175 190.551C61.6411 191.104 61.9175 191.933 62.4702 192.209C63.0229 192.485 83.75 203.54 101.161 204.092Z" fill="#B7A48B"/>
</svg>
