<svg width="445" height="263" viewBox="0 0 445 263" fill="none" xmlns="http://www.w3.org/2000/svg">
<path d="M223.779 262.781C345.465 262.781 444.11 237.734 444.11 206.836C444.11 175.938 345.465 150.891 223.779 150.891C102.093 150.891 3.44678 175.938 3.44678 206.836C3.44678 237.734 102.093 262.781 223.779 262.781Z" fill="#414042"/>
<path d="M220.332 257.829C342.018 257.829 440.664 232.782 440.664 201.884C440.664 170.986 342.018 145.938 220.332 145.938C98.6459 145.938 0 170.986 0 201.884C0 232.782 98.6459 257.829 220.332 257.829Z" fill="#F58C8B"/>
<path opacity="0.3" d="M245.978 232.031C336.683 232.031 410.215 213.631 410.215 190.934C410.215 168.237 336.683 149.837 245.978 149.837C155.273 149.837 81.7417 168.237 81.7417 190.934C81.7417 213.631 155.273 232.031 245.978 232.031Z" fill="#58595B"/>
<path d="M91.4941 186.735L104.993 232.781H108.143L104.993 184.485L91.4941 186.735Z" fill="#F1B254"/>
<path d="M374.97 186.735L361.471 232.781H358.321L361.471 184.485L374.97 186.735Z" fill="#F1B254"/>
<path d="M146.689 194.684C227.683 193.334 247.781 194.384 328.774 193.034C341.973 192.884 362.522 190.934 375.27 187.035C416.667 174.586 426.866 141.138 425.966 110.991C424.767 62.9948 374.221 0 313.926 0C234.582 0 218.983 31.9474 168.588 46.1962C165.138 47.2461 187.636 48.446 154.489 41.5466C124.641 35.3971 104.393 29.3976 77.2451 44.3964C71.2456 47.6961 65.996 51.2958 61.1964 55.1955C46.7976 67.1945 37.7983 82.9432 34.4986 102.892C29.999 131.689 41.0981 152.987 61.9464 171.136C82.7947 189.284 99.8932 195.284 133.49 194.534" fill="#2D509E"/>
<path d="M362.521 124.64C354.422 119.99 345.722 116.541 336.873 113.991C327.274 111.141 317.225 109.191 307.326 107.841C297.126 106.491 286.777 105.892 276.578 106.042C266.979 106.192 257.38 106.941 247.78 108.591C244.031 109.191 240.281 110.091 236.531 110.691C232.482 111.441 228.132 112.041 224.232 113.541C223.482 113.841 222.882 114.141 222.133 114.441C221.833 114.591 222.133 115.041 222.433 114.891C223.932 113.991 225.732 113.541 227.382 113.091C229.482 112.491 231.582 112.041 233.682 111.741C237.281 110.991 241.031 110.391 244.631 109.641C253.93 107.841 263.529 106.941 272.978 106.641C283.028 106.342 293.227 106.791 303.276 107.841C313.325 108.891 323.374 110.691 333.123 113.391C342.123 115.941 351.122 119.09 359.371 123.44C360.271 123.89 361.321 124.49 362.221 124.94C362.521 125.09 362.671 124.79 362.521 124.64Z" fill="#071821"/>
<path d="M221.832 114.29C213.882 111.44 205.633 109.49 197.384 108.29C188.684 107.09 179.835 106.49 170.986 106.49C161.987 106.49 152.837 107.09 143.838 107.99C135.139 108.89 126.59 110.09 117.89 111.74C110.091 113.24 102.292 114.89 94.4922 116.839C93.5922 116.989 92.6923 117.289 91.7924 117.439C91.4924 117.439 91.6424 117.889 91.9424 117.889C99.4418 115.939 107.091 114.29 114.741 112.79C123.29 111.14 131.839 109.79 140.388 108.89C149.388 107.84 158.387 107.24 167.386 107.09C176.235 106.94 185.085 107.24 193.934 108.44C202.333 109.49 210.583 111.14 218.682 113.84C219.582 114.14 220.632 114.44 221.532 114.89C221.982 114.89 221.982 114.44 221.832 114.29Z" fill="#071821"/>
<path d="M343.473 159.587C328.024 159.287 312.726 159.137 297.277 158.837C283.028 158.687 268.779 158.387 254.38 158.387C240.432 158.237 226.483 158.237 212.534 158.237C198.285 158.237 184.186 158.387 169.937 158.687C154.789 158.987 139.49 159.437 124.341 159.887C122.391 159.887 120.292 160.037 118.342 160.037C118.042 160.037 118.042 160.487 118.342 160.487C133.79 159.887 149.089 159.437 164.538 159.137C178.787 158.837 193.036 158.687 207.434 158.537C221.383 158.537 235.332 158.537 249.281 158.537C263.53 158.687 277.629 158.837 291.877 158.987C307.026 159.137 322.325 159.437 337.474 159.737C339.423 159.737 341.523 159.737 343.473 159.887C343.773 160.037 343.773 159.587 343.473 159.587Z" fill="#071821"/>
<path d="M121.795 181.335C121.495 173.235 120.145 165.136 117.596 157.337C115.196 149.537 111.596 142.188 107.247 135.438C102.897 128.689 97.6473 122.54 91.6478 117.29C85.7983 112.19 79.1989 107.691 72.2994 104.241C65.25 100.791 57.7506 98.0915 50.1013 96.5916C49.2013 96.4417 48.3014 96.2917 47.2515 95.9917C46.9515 95.9917 46.8015 96.4416 47.1015 96.4416C54.7509 97.7915 62.4003 100.041 69.4497 103.341C76.4991 106.641 83.0985 110.84 89.098 115.79C95.2475 120.89 100.647 126.739 105.147 133.189C109.796 139.788 113.546 147.137 116.246 154.787C118.946 162.436 120.595 170.386 121.195 178.485C121.195 179.535 121.345 180.435 121.345 181.485C121.345 181.635 121.795 181.635 121.795 181.335Z" fill="#071821"/>
<path d="M340.323 181.335C340.622 173.236 341.972 165.137 344.522 157.337C346.922 149.688 350.372 142.339 354.871 135.439C359.221 128.69 364.471 122.69 370.47 117.441C376.32 112.341 382.919 107.841 389.818 104.392C396.718 100.942 404.217 98.3922 411.867 96.7423C412.767 96.5923 413.667 96.4423 414.716 96.1424C415.016 96.1424 414.866 95.6924 414.566 95.6924C406.767 97.0423 399.268 99.4421 392.068 102.742C385.019 106.042 378.269 110.241 372.27 115.191C366.12 120.29 360.721 126.14 356.071 132.739C351.422 139.339 347.672 146.688 344.972 154.338C342.272 161.987 340.622 170.086 340.023 178.186C340.023 179.235 339.873 180.135 339.873 181.185C339.873 181.635 340.323 181.635 340.323 181.335Z" fill="#071821"/>
<path d="M320.075 80.9954C323.554 80.9954 326.374 78.1751 326.374 74.696C326.374 71.2169 323.554 68.3965 320.075 68.3965C316.596 68.3965 313.775 71.2169 313.775 74.696C313.775 78.1751 316.596 80.9954 320.075 80.9954Z" stroke="#071821" stroke-width="0.6" stroke-miterlimit="10"/>
<path d="M142.492 86.0946C145.971 86.0946 148.792 83.2742 148.792 79.7951C148.792 76.316 145.971 73.4956 142.492 73.4956C139.013 73.4956 136.193 76.316 136.193 79.7951C136.193 83.2742 139.013 86.0946 142.492 86.0946Z" stroke="#071821" stroke-width="0.6" stroke-miterlimit="10"/>
<g opacity="0.8">
<path opacity="0.8" d="M77.5447 77.0933C77.0947 76.1934 76.4948 75.2935 75.4449 74.3935C73.795 73.0437 71.2452 71.9937 71.9951 69.8939C72.5951 68.0941 85.0441 67.7941 87.4439 67.3441C99.4429 65.2443 111.892 61.9446 123.291 58.4948C126.591 57.5949 129.74 56.545 132.44 54.8951C134.24 53.8452 136.94 50.9955 139.49 51.2954C144.439 51.8954 141.739 59.8447 141.589 62.2445C141.439 68.0941 143.389 73.9436 145.789 79.4931C147.589 83.8428 153.438 88.1924 154.638 92.692C155.538 96.1417 159.738 103.491 161.388 106.941C162.888 110.091 154.338 108.141 149.689 107.091C141.589 105.141 133.34 107.091 125.541 109.041C118.791 110.841 111.742 112.04 104.992 113.84C101.393 114.89 103.193 130.489 103.193 126.739C103.193 123.739 89.0937 115.49 81.8943 108.441C74.6949 101.391 79.4945 91.3421 76.1948 80.993C76.0448 80.0931 77.8447 77.9932 77.5447 77.0933Z" fill="#25467F"/>
<path opacity="0.8" d="M103.346 83.2426C104.837 83.2426 106.046 82.3025 106.046 81.1428C106.046 79.9831 104.837 79.043 103.346 79.043C101.855 79.043 100.646 79.9831 100.646 81.1428C100.646 82.3025 101.855 83.2426 103.346 83.2426Z" fill="#25467F"/>
<path opacity="0.8" d="M125.692 79.0415C127.184 79.0415 128.392 78.1013 128.392 76.9416C128.392 75.7819 127.184 74.8418 125.692 74.8418C124.201 74.8418 122.993 75.7819 122.993 76.9416C122.993 78.1013 124.201 79.0415 125.692 79.0415Z" fill="#25467F"/>
<path opacity="0.8" d="M129.891 92.6943C131.382 92.6943 132.591 91.7541 132.591 90.5944C132.591 89.4347 131.382 88.4946 129.891 88.4946C128.4 88.4946 127.191 89.4347 127.191 90.5944C127.191 91.7541 128.4 92.6943 129.891 92.6943Z" fill="#25467F"/>
<path opacity="0.8" d="M110.242 97.6416C111.733 97.6416 112.942 96.7015 112.942 95.5418C112.942 94.3821 111.733 93.4419 110.242 93.4419C108.751 93.4419 107.542 94.3821 107.542 95.5418C107.542 96.7015 108.751 97.6416 110.242 97.6416Z" fill="#25467F"/>
</g>
<path d="M85.0438 82.9451C84.5938 81.7452 83.9939 80.6953 83.0939 79.4954C81.5941 77.8455 79.0443 76.4956 79.7942 73.7958C80.3942 71.546 92.3932 71.0961 94.793 70.4961C106.342 67.7963 118.341 63.5967 129.44 59.247C132.59 58.0471 135.74 56.6973 138.289 54.7474C139.939 53.3975 142.639 49.6478 145.039 50.0978C149.838 50.8477 147.139 61.0469 147.139 64.0466C146.989 71.546 148.939 78.8954 151.188 85.9448C152.988 91.4944 153.738 97.6439 154.788 103.493C155.688 107.843 157.488 112.343 158.988 116.542C160.488 120.592 159.288 122.392 154.938 120.892C147.139 118.492 139.039 120.892 131.69 123.442C125.091 125.692 118.341 127.191 111.892 129.591C108.442 130.941 105.592 133.641 102.142 135.141C97.3428 137.091 97.3428 128.841 96.5928 125.992C93.5931 112.493 89.8434 99.4437 86.0937 86.2448C85.7937 85.0449 85.4938 83.845 85.0438 82.9451Z" fill="#FDC642"/>
<path d="M110.093 90.5953C111.584 90.5953 112.793 89.3866 112.793 87.8956C112.793 86.4045 111.584 85.1958 110.093 85.1958C108.602 85.1958 107.393 86.4045 107.393 87.8956C107.393 89.3866 108.602 90.5953 110.093 90.5953Z" stroke="#071821" stroke-width="0.3432" stroke-miterlimit="10" stroke-linecap="round" stroke-linejoin="round"/>
<path d="M131.689 85.3453C133.18 85.3453 134.389 84.1366 134.389 82.6456C134.389 81.1545 133.18 79.9458 131.689 79.9458C130.198 79.9458 128.989 81.1545 128.989 82.6456C128.989 84.1366 130.198 85.3453 131.689 85.3453Z" stroke="#071821" stroke-width="0.3432" stroke-miterlimit="10" stroke-linecap="round" stroke-linejoin="round"/>
<path d="M135.737 102.745C137.228 102.745 138.437 101.536 138.437 100.045C138.437 98.554 137.228 97.3452 135.737 97.3452C134.246 97.3452 133.038 98.554 133.038 100.045C133.038 101.536 134.246 102.745 135.737 102.745Z" stroke="#071821" stroke-width="0.3432" stroke-miterlimit="10" stroke-linecap="round" stroke-linejoin="round"/>
<path d="M116.693 109.042C118.184 109.042 119.393 107.833 119.393 106.342C119.393 104.851 118.184 103.643 116.693 103.643C115.202 103.643 113.993 104.851 113.993 106.342C113.993 107.833 115.202 109.042 116.693 109.042Z" stroke="#071821" stroke-width="0.3432" stroke-miterlimit="10" stroke-linecap="round" stroke-linejoin="round"/>
</svg>
