<svg width="58" height="38" viewBox="0 0 58 38" fill="none" xmlns="http://www.w3.org/2000/svg">
<g clip-path="url(#clip0)">
<path d="M34.3209 34.3635C34.3209 35.5193 29.3729 36.4084 23.3205 36.4084C17.224 36.4084 12.3202 35.4749 12.3202 34.3635C12.3202 34.0079 12.3202 30.7627 12.3202 30.7627H34.365C34.3209 30.7627 34.3209 33.2077 34.3209 34.3635Z" fill="#DBB539"/>
<path d="M23.3205 32.9409C29.3958 32.9409 34.3209 32.0253 34.3209 30.896C34.3209 29.7666 29.3958 28.8511 23.3205 28.8511C17.2452 28.8511 12.3202 29.7666 12.3202 30.896C12.3202 32.0253 17.2452 32.9409 23.3205 32.9409Z" fill="#EDB539"/>
<path d="M31.8469 30.5405C31.8469 31.0739 28.0034 31.474 23.3206 31.474C18.5935 31.474 14.7942 31.0295 14.7942 30.5405C14.7942 30.007 18.6377 29.6069 23.3206 29.6069C28.0476 29.6069 31.8469 30.007 31.8469 30.5405Z" fill="#F79F11"/>
<path opacity="0.45" d="M15.3243 30.8961C16.5171 30.5405 19.6538 30.2737 23.3206 30.2737C26.9873 30.2737 30.124 30.5405 31.3168 30.8961C31.6702 30.8072 31.8469 30.6738 31.8469 30.5849C31.8469 30.0515 28.0034 29.6514 23.3206 29.6514C18.5935 29.6514 14.7942 30.0959 14.7942 30.5849C14.7942 30.6738 14.9709 30.7627 15.3243 30.8961Z" fill="#EF9506"/>
<path d="M35.7346 30.5403C35.7346 31.6961 30.7866 32.5852 24.7342 32.5852C18.6377 32.5852 13.7339 31.6516 13.7339 30.5403C13.7339 30.1846 13.7339 26.9395 13.7339 26.9395H35.7346C35.7346 26.9395 35.7346 29.4289 35.7346 30.5403Z" fill="#DBB539"/>
<path d="M35.7346 27.1172C35.7346 28.273 30.7866 29.1621 24.7342 29.1621C18.6377 29.1621 13.7339 28.2286 13.7339 27.1172C13.7339 25.9614 18.6818 25.0723 24.7342 25.0723C30.7866 25.0279 35.7346 25.9614 35.7346 27.1172Z" fill="#EDB539"/>
<path d="M33.2164 26.7612C33.2164 27.2946 29.3729 27.6947 24.69 27.6947C19.963 27.6947 16.1637 27.2502 16.1637 26.7612C16.1637 26.2722 20.0072 25.8276 24.69 25.8276C29.4171 25.8276 33.2164 26.2277 33.2164 26.7612Z" fill="#F79F11"/>
<path opacity="0.45" d="M16.6938 27.0724C17.8866 26.7167 21.0233 26.45 24.69 26.45C28.3568 26.45 31.4935 26.7167 32.6863 27.0724C33.0397 26.9835 33.2164 26.8501 33.2164 26.7612C33.2164 26.2277 29.3729 25.8276 24.69 25.8276C19.963 25.8276 16.1637 26.2722 16.1637 26.7612C16.1637 26.8945 16.3404 26.9835 16.6938 27.0724Z" fill="#EF9506"/>
<path d="M34.6742 26.7619C34.6742 27.9178 29.7263 28.8069 23.6739 28.8069C17.5773 28.8069 12.6736 27.8733 12.6736 26.7619C12.6736 26.4063 12.6736 23.1611 12.6736 23.1611H34.7184C34.6742 23.1611 34.6742 25.6506 34.6742 26.7619Z" fill="#F2940C" stroke="#EDB539" stroke-miterlimit="10"/>
<path d="M34.6742 26.7619C34.6742 27.9178 29.7263 28.8069 23.6739 28.8069C17.5773 28.8069 12.6736 27.8733 12.6736 26.7619C12.6736 26.4063 12.6736 23.1611 12.6736 23.1611H34.7184C34.6742 23.1611 34.6742 25.6506 34.6742 26.7619Z" fill="#DBB539"/>
<path d="M34.6743 23.2944C34.6743 24.4502 29.7263 25.3393 23.6739 25.3393C17.5773 25.3393 12.6736 24.4058 12.6736 23.2944C12.6736 22.1386 17.6215 21.2495 23.6739 21.2495C29.7263 21.2495 34.6743 22.1831 34.6743 23.2944Z" fill="#EDB539"/>
<path d="M32.2003 22.9833C32.2003 23.5168 28.3568 23.9169 23.6739 23.9169C18.9469 23.9169 15.1476 23.4723 15.1476 22.9833C15.1476 22.4499 18.9911 22.0498 23.6739 22.0498C28.3568 22.0498 32.2003 22.4499 32.2003 22.9833Z" fill="#F79F11"/>
<path opacity="0.45" d="M15.6335 23.2945C16.8263 22.9389 19.9629 22.6722 23.6297 22.6722C27.2965 22.6722 30.4331 22.9389 31.6259 23.2945C31.9794 23.2056 32.1561 23.0723 32.1561 22.9833C32.1561 22.4499 28.3126 22.0498 23.6297 22.0498C18.9026 22.0498 15.1033 22.4943 15.1033 22.9833C15.1033 23.0723 15.3242 23.2056 15.6335 23.2945Z" fill="#EF9506"/>
<path d="M33.2164 22.8493C33.2164 24.0052 28.2685 24.8942 22.2161 24.8942C16.1195 24.8942 11.2158 23.9607 11.2158 22.8493C11.2158 22.4937 11.2158 19.2485 11.2158 19.2485H33.2606C33.2164 19.2485 33.2164 21.6935 33.2164 22.8493Z" fill="#DBB539"/>
<path d="M33.2164 19.3823C33.2164 20.5381 28.2685 21.4272 22.2161 21.4272C16.1195 21.4272 11.2158 20.4937 11.2158 19.3823C11.2158 18.2265 16.1195 17.3374 22.2161 17.3374C28.3127 17.3374 33.2164 18.2265 33.2164 19.3823Z" fill="#EDB539"/>
<path d="M30.7425 19.0268C30.7425 19.5603 26.899 19.9603 22.2161 19.9603C17.4891 19.9603 13.6898 19.5158 13.6898 19.0268C13.6898 18.5378 17.5332 18.0933 22.2161 18.0933C26.9432 18.0933 30.7425 18.5378 30.7425 19.0268Z" fill="#F79F11"/>
<path opacity="0.45" d="M14.2199 19.3824C15.4127 19.0268 18.5493 18.7601 22.2161 18.7601C25.8829 18.7601 29.0195 19.0268 30.2124 19.3824C30.5658 19.2935 30.7425 19.1602 30.7425 19.0712C30.7425 18.5378 26.899 18.1377 22.2161 18.1377C17.4891 18.1377 13.6898 18.5822 13.6898 19.0712C13.6898 19.1602 13.8665 19.2491 14.2199 19.3824Z" fill="#EF9506"/>
<path d="M32.5979 18.8489C32.5979 20.0047 27.65 20.8938 21.5976 20.8938C15.501 20.8938 10.5531 19.9602 10.5531 18.8489C10.5531 18.4932 10.5531 15.248 10.5531 15.248H32.5979C32.5979 15.248 32.5979 17.693 32.5979 18.8489Z" fill="#DBB539"/>
<path d="M32.5979 15.3814C32.5979 16.5372 27.65 17.4263 21.5976 17.4263C15.501 17.4263 10.5531 16.4927 10.5531 15.3814C10.5531 14.2256 15.501 13.3365 21.5534 13.3365C27.65 13.292 32.5979 14.2256 32.5979 15.3814Z" fill="#EDB539"/>
<path d="M30.124 15.0253C30.124 15.5588 26.2805 15.9589 21.5976 15.9589C16.8706 15.9589 13.0713 15.5143 13.0713 15.0253C13.0713 14.4919 16.9147 14.0918 21.5976 14.0918C26.2805 14.0918 30.124 14.4919 30.124 15.0253Z" fill="#F79F11"/>
<path opacity="0.45" d="M13.5572 15.3814C14.75 15.0258 17.8867 14.7591 21.5534 14.7591C25.2202 14.7591 28.3569 15.0258 29.5497 15.3814C29.9031 15.2925 30.0798 15.1592 30.0798 15.0703C30.0798 14.5368 26.2363 14.1367 21.5534 14.1367C16.8706 14.1367 13.0271 14.5813 13.0271 15.0703C13.0271 15.1592 13.2038 15.2481 13.5572 15.3814Z" fill="#EF9506"/>
<path d="M33.6582 14.6701C33.6582 15.826 28.7103 16.715 22.6579 16.715C16.5613 16.715 11.6575 15.7815 11.6575 14.6701C11.6575 14.3145 11.6575 11.0693 11.6575 11.0693H33.7024C33.6582 11.0693 33.6582 13.5588 33.6582 14.6701Z" fill="#DBB539"/>
<path d="M33.6582 11.2026C33.6582 12.3584 28.7103 13.2475 22.6579 13.2475C16.5613 13.2475 11.6575 12.314 11.6575 11.2026C11.6575 10.0468 16.6055 9.15771 22.6579 9.15771C28.7103 9.15771 33.6582 10.0913 33.6582 11.2026Z" fill="#EDB539"/>
<path d="M22.6136 11.8251C27.3226 11.8251 31.14 11.4071 31.14 10.8916C31.14 10.376 27.3226 9.95801 22.6136 9.95801C17.9047 9.95801 14.0873 10.376 14.0873 10.8916C14.0873 11.4071 17.9047 11.8251 22.6136 11.8251Z" fill="#DBB539"/>
<path opacity="0.45" d="M14.6174 11.2027C15.8102 10.8471 18.9469 10.5804 22.6136 10.5804C26.2804 10.5804 29.4171 10.8471 30.6099 11.2027C30.9633 11.1138 31.14 10.9805 31.14 10.8916C31.14 10.3581 27.2965 9.95801 22.6136 9.95801C17.8866 9.95801 14.0873 10.4026 14.0873 10.8916C14.0873 10.9805 14.264 11.1138 14.6174 11.2027Z" fill="#EDB539"/>
<path d="M32.9072 34.363C32.9072 35.5188 37.8551 36.4079 43.9075 36.4079C50.0041 36.4079 54.9079 35.4744 54.9079 34.363C54.9079 34.0074 54.9079 30.7622 54.9079 30.7622H32.9072C32.9072 30.7622 32.9072 33.2072 32.9072 34.363Z" fill="#DBB539"/>
<path d="M32.9072 30.8955C32.9072 32.0513 37.8551 32.9404 43.9075 32.9404C50.0041 32.9404 54.9079 32.0068 54.9079 30.8955C54.9079 29.7397 49.9599 28.8506 43.9075 28.8506C37.811 28.8506 32.9072 29.7397 32.9072 30.8955Z" fill="#EDB539"/>
<path d="M43.9076 31.4735C48.6165 31.4735 52.4339 31.0556 52.4339 30.54C52.4339 30.0244 48.6165 29.6064 43.9076 29.6064C39.1986 29.6064 35.3812 30.0244 35.3812 30.54C35.3812 31.0556 39.1986 31.4735 43.9076 31.4735Z" fill="#F79F11"/>
<path opacity="0.45" d="M51.9038 30.8951C50.711 30.5395 47.5743 30.2728 43.9076 30.2728C40.2408 30.2728 37.1041 30.5395 35.9113 30.8951C35.5579 30.8062 35.3812 30.6728 35.3812 30.5839C35.3812 30.0505 39.2247 29.6504 43.9076 29.6504C48.5904 29.6504 52.4339 30.0949 52.4339 30.5839C52.4339 30.6728 52.2572 30.7618 51.9038 30.8951Z" fill="#EF9506"/>
<path d="M33.6581 30.5407C33.6581 31.6966 38.6061 32.5857 44.6585 32.5857C50.755 32.5857 55.6588 31.6521 55.6588 30.5407C55.6588 30.1851 55.6588 26.9399 55.6588 26.9399H33.6581C33.6581 26.9399 33.6581 29.4294 33.6581 30.5407Z" fill="#DBB539"/>
<path d="M33.6581 27.1172C33.6581 28.273 38.6061 29.1621 44.6585 29.1621C50.755 29.1621 55.6588 28.2286 55.6588 27.1172C55.6588 25.9614 50.7109 25.0723 44.6585 25.0723C38.6061 25.0279 33.6581 25.9614 33.6581 27.1172Z" fill="#EDB539"/>
<path d="M44.7027 27.6947C49.4117 27.6947 53.2291 27.2768 53.2291 26.7612C53.2291 26.2456 49.4117 25.8276 44.7027 25.8276C39.9937 25.8276 36.1764 26.2456 36.1764 26.7612C36.1764 27.2768 39.9937 27.6947 44.7027 27.6947Z" fill="#F79F11"/>
<path opacity="0.45" d="M52.6989 27.0724C51.5061 26.7167 48.3695 26.45 44.7027 26.45C41.0359 26.45 37.8993 26.7167 36.7065 27.0724C36.3531 26.9835 36.1764 26.8501 36.1764 26.7612C36.1764 26.2277 40.0199 25.8276 44.7027 25.8276C49.4298 25.8276 53.2291 26.2722 53.2291 26.7612C53.2291 26.8945 53.0082 26.9835 52.6989 27.0724Z" fill="#EF9506"/>
<path d="M32.8188 26.3616C32.8188 27.5174 37.7667 28.4065 43.8191 28.4065C49.9157 28.4065 54.8194 27.4729 54.8194 26.3616C54.8194 26.0059 54.8194 22.7607 54.8194 22.7607H32.8188C32.8188 22.7607 32.8188 25.2057 32.8188 26.3616Z" fill="#DBB539"/>
<path d="M32.8188 22.8941C32.8188 24.0499 37.7667 24.939 43.8191 24.939C49.9157 24.939 54.8194 24.0054 54.8194 22.8941C54.8194 21.7383 49.8715 20.8492 43.8191 20.8492C37.7225 20.8047 32.8188 21.7383 32.8188 22.8941Z" fill="#EDB539"/>
<path d="M35.2928 22.538C35.2928 23.0715 39.1363 23.4716 43.8191 23.4716C48.5462 23.4716 52.3455 23.027 52.3455 22.538C52.3455 22.0046 48.502 21.6045 43.8191 21.6045C39.0921 21.6045 35.2928 22.0046 35.2928 22.538Z" fill="#F79F11"/>
<path opacity="0.45" d="M51.8154 22.8937C50.6226 22.538 47.4859 22.2713 43.8191 22.2713C40.1524 22.2713 37.0157 22.538 35.8229 22.8937C35.4695 22.7603 35.2928 22.6714 35.2928 22.538C35.2928 22.0046 39.1363 21.6045 43.8191 21.6045C48.5462 21.6045 52.3455 22.049 52.3455 22.538C52.3455 22.6714 52.1688 22.7603 51.8154 22.8937Z" fill="#EF9506"/>
<path d="M34.5859 22.4045C34.5859 23.5603 39.5338 24.4494 45.5862 24.4494C51.6828 24.4494 56.5866 23.5159 56.5866 22.4045C56.5866 22.0489 56.5866 18.8037 56.5866 18.8037H34.5859C34.5859 18.8037 34.5859 21.2932 34.5859 22.4045Z" fill="#DBB539"/>
<path d="M45.5862 20.9824C51.6616 20.9824 56.5866 20.0668 56.5866 18.9375C56.5866 17.8081 51.6616 16.8926 45.5862 16.8926C39.5109 16.8926 34.5859 17.8081 34.5859 18.9375C34.5859 20.0668 39.5109 20.9824 45.5862 20.9824Z" fill="#EDB539"/>
<path d="M37.0599 18.6266C37.0599 19.1156 40.9034 19.5601 45.5862 19.5601C50.3133 19.5601 54.1126 19.1156 54.1126 18.6266C54.1126 18.1376 50.2691 17.693 45.5862 17.693C40.9034 17.6486 37.0599 18.0931 37.0599 18.6266Z" fill="#DBB539"/>
<path opacity="0.45" d="M53.6267 18.9376C52.4339 18.582 49.2972 18.3152 45.6304 18.3152C41.9637 18.3152 38.827 18.582 37.6342 18.9376C37.2808 18.8487 37.1041 18.7153 37.1041 18.6264C37.1041 18.093 40.9476 17.6929 45.6304 17.6929C50.3133 17.6929 54.1568 18.1374 54.1568 18.6264C54.1568 18.7153 53.9359 18.8487 53.6267 18.9376Z" fill="#DBB539"/>
<path d="M33.7908 17.4704C33.7908 18.6263 38.7387 19.5153 44.7911 19.5153C50.8877 19.5153 55.7915 18.5818 55.7915 17.4704C55.7915 17.1148 55.7915 13.8696 55.7915 13.8696H33.7908C33.7908 13.8696 33.7908 16.3146 33.7908 17.4704Z" fill="#DBB539"/>
<path d="M33.7908 14.0034C33.7908 15.1592 38.7387 16.0483 44.7911 16.0483C50.8877 16.0483 55.7915 15.1148 55.7915 14.0034C55.7915 12.8476 50.8435 11.9585 44.7911 11.9585C38.6946 11.9585 33.7908 12.8476 33.7908 14.0034Z" fill="#EDB539"/>
<path d="M44.7911 14.5814C49.5001 14.5814 53.3175 14.1635 53.3175 13.6479C53.3175 13.1323 49.5001 12.7144 44.7911 12.7144C40.0821 12.7144 36.2648 13.1323 36.2648 13.6479C36.2648 14.1635 40.0821 14.5814 44.7911 14.5814Z" fill="#F79F11"/>
<path opacity="0.45" d="M52.7874 14.0035C51.5946 13.6479 48.4579 13.3812 44.7911 13.3812C41.1243 13.3812 37.9877 13.6479 36.7949 14.0035C36.4415 13.9146 36.2648 13.7812 36.2648 13.6923C36.2648 13.1589 40.1083 12.7588 44.7911 12.7588C49.474 12.7588 53.3175 13.2033 53.3175 13.6923C53.3175 13.7812 53.1408 13.8702 52.7874 14.0035Z" fill="#EF9506"/>
<path d="M34.5418 13.6472C34.5418 14.803 39.4897 15.6921 45.5421 15.6921C51.6387 15.6921 56.5424 14.7586 56.5424 13.6472C56.5424 13.2916 56.5424 10.0464 56.5424 10.0464H34.5418C34.5418 10.0464 34.5418 12.5358 34.5418 13.6472Z" fill="#DBB539"/>
<path d="M34.5418 10.2247C34.5418 11.3805 39.4897 12.2696 45.5421 12.2696C51.6387 12.2696 56.5424 11.336 56.5424 10.2247C56.5424 9.06884 51.5945 8.17975 45.5421 8.17975C39.4897 8.13529 34.5418 9.06884 34.5418 10.2247Z" fill="#EDB539"/>
<path d="M45.5864 10.8031C50.2953 10.8031 54.1127 10.3852 54.1127 9.86958C54.1127 9.354 50.2953 8.93604 45.5864 8.93604C40.8774 8.93604 37.06 9.354 37.06 9.86958C37.06 10.3852 40.8774 10.8031 45.5864 10.8031Z" fill="#F79F11"/>
<path opacity="0.45" d="M53.5826 10.1808C52.3898 9.82512 49.2531 9.5584 45.5864 9.5584C41.9196 9.5584 38.7829 9.82512 37.5901 10.1808C37.2367 10.0918 37.06 9.95848 37.06 9.86958C37.06 9.33612 40.9035 8.93604 45.5864 8.93604C50.3134 8.93604 54.1127 9.38058 54.1127 9.86958C54.1127 10.0029 53.936 10.0918 53.5826 10.1808Z" fill="#EF9506"/>
<path d="M33.7024 9.46897C33.7024 10.6248 38.6503 11.5139 44.7027 11.5139C50.7993 11.5139 55.703 10.5803 55.703 9.46897C55.703 9.11334 55.703 5.86816 55.703 5.86816H33.7024C33.7024 5.86816 33.7024 8.31316 33.7024 9.46897Z" fill="#DBB539"/>
<path d="M33.7024 6.00151C33.7024 7.15732 38.6503 8.04641 44.7027 8.04641C50.7993 8.04641 55.703 7.11287 55.703 6.00151C55.703 4.84569 50.7551 3.9566 44.7027 3.9566C38.6503 3.91215 33.7024 4.84569 33.7024 6.00151Z" fill="#EDB539"/>
<path d="M36.1764 5.64594C36.1764 6.1794 40.0199 6.57948 44.7028 6.57948C49.4298 6.57948 53.2291 6.13494 53.2291 5.64594C53.2291 5.11249 49.3856 4.7124 44.7028 4.7124C39.9757 4.7124 36.1764 5.11249 36.1764 5.64594Z" fill="#F79F11"/>
<path opacity="0.45" d="M52.7432 6.00158C51.5504 5.64594 48.4137 5.37922 44.7469 5.37922C41.0802 5.37922 37.9435 5.64594 36.7507 6.00158C36.3531 5.86821 36.1764 5.77931 36.1764 5.64594C36.1764 5.11249 40.0199 4.7124 44.7028 4.7124C49.4298 4.7124 53.2291 5.15695 53.2291 5.64594C53.2291 5.77931 53.0524 5.86821 52.7432 6.00158Z" fill="#EF9506"/>
<path d="M35.4695 5.51243C35.4695 6.66824 40.4175 7.55733 46.4699 7.55733C52.5664 7.55733 57.4702 6.62379 57.4702 5.51243C57.4702 5.15679 57.4702 1.91162 57.4702 1.91162H35.4695C35.4695 1.91162 35.4695 4.40107 35.4695 5.51243Z" fill="#DBB539"/>
<path d="M46.5125 4.08981C52.5878 4.08981 57.5128 3.17427 57.5128 2.0449C57.5128 0.915534 52.5878 0 46.5125 0C40.4372 0 35.5121 0.915534 35.5121 2.0449C35.5121 3.17427 40.4372 4.08981 46.5125 4.08981Z" fill="#EDB539"/>
<path d="M37.9435 1.73386C37.9435 2.22286 41.787 2.6674 46.514 2.6674C51.2411 2.6674 55.0404 2.22286 55.0404 1.73386C55.0404 1.24486 51.1969 0.755859 46.514 0.755859C41.787 0.755859 37.9435 1.2004 37.9435 1.73386Z" fill="#DBB539"/>
<path opacity="0.45" d="M54.5103 2.04502C53.3175 1.68938 50.1808 1.42265 46.514 1.42265C42.8473 1.42265 39.7106 1.68938 38.5178 2.04502C38.1644 1.95611 37.9435 1.82274 37.9435 1.73384C37.9435 1.20038 41.787 0.800293 46.4699 0.800293C51.1527 0.800293 54.9962 1.24484 54.9962 1.73384C55.0404 1.82274 54.8195 1.95611 54.5103 2.04502Z" fill="#DBB539"/>
</g>
<path d="M12.3647 22.3543C15.6154 23.795 16.7402 28.376 14.873 32.563C13.0058 36.7612 8.86656 38.9898 5.61587 37.5379C4.86225 37.2002 2.95009 36.4911 2.95009 36.4911C2.95009 36.4911 1.67906 30.5482 3.10756 27.3179C4.58106 24.0089 9.64268 21.3301 9.64268 21.3301C9.64268 21.3301 11.6786 22.0504 12.3647 22.3543Z" fill="#DBB539"/>
<path d="M10.1593 21.5446C13.41 22.9853 14.5348 27.5663 12.6676 31.7533C10.8005 35.9515 6.66118 38.1801 3.4105 36.7282C0.159822 35.2875 -0.964975 30.7065 0.902197 26.5195C2.75812 22.3325 6.90864 20.1039 10.1593 21.5446Z" fill="#EDB539"/>
<path d="M9.14726 23.4242C11.4531 24.4484 12.1955 27.8138 10.812 30.9428C9.42845 34.0605 6.42524 35.7601 4.1194 34.7358C1.81356 33.7116 1.07119 30.3462 2.4547 27.2172C3.84945 24.0995 6.84142 22.3999 9.14726 23.4242Z" fill="#DBB539"/>
<path opacity="0.45" d="M2.46643 27.2169C3.43376 25.0446 5.17721 23.5589 6.9319 23.21C5.40217 23.7502 3.93993 25.1346 3.08508 27.0481C1.70157 30.1658 2.44394 33.5312 4.74978 34.5667C5.44716 34.8818 6.21202 34.9381 6.97688 34.7805C6.00955 35.1182 5.01973 35.1407 4.13114 34.7355C1.81404 33.7 1.07168 30.3459 2.46643 27.2169Z" fill="#DBB539"/>
<g opacity="0.45">
<path opacity="0.45" d="M8.54018 26.4176C8.75389 26.5977 8.92262 26.7891 9.0576 27.0029C9.19257 27.2168 9.29381 27.4306 9.3613 27.6445C9.42879 27.8583 9.46253 28.0722 9.46253 28.2748C9.46253 28.4774 9.42879 28.6575 9.3613 28.815C9.3388 28.8713 9.2938 28.9051 9.24881 28.9276C9.19257 28.9501 9.14757 28.9501 9.10258 28.9276L8.05652 28.4324C7.97778 28.3986 7.93279 28.3536 7.89905 28.3085C7.8653 28.2635 7.83156 28.2072 7.80906 28.1397C7.79781 28.1172 7.78657 28.0722 7.77532 28.0159C7.76407 27.9596 7.73032 27.8921 7.68533 27.8133C7.64034 27.7345 7.58409 27.667 7.50536 27.5882C7.42662 27.5094 7.31415 27.4419 7.17917 27.3743C7.07794 27.3293 6.9767 27.2843 6.87547 27.2618C6.77424 27.228 6.68425 27.2168 6.59427 27.2168C6.50428 27.2168 6.42556 27.228 6.35807 27.273C6.29058 27.3068 6.22308 27.3743 6.18934 27.4644C6.14435 27.5544 6.13309 27.6332 6.16684 27.7233C6.18933 27.802 6.24558 27.9033 6.34681 28.0046C6.44804 28.1059 6.58302 28.2298 6.75174 28.3761C6.93171 28.5111 7.14542 28.6912 7.40413 28.8938C7.66284 29.0964 7.87655 29.299 8.05652 29.5016C8.22524 29.7042 8.34897 29.9181 8.42771 30.1319C8.50644 30.3458 8.52893 30.5821 8.50643 30.8185C8.48394 31.0549 8.40521 31.3137 8.27024 31.5839C8.15775 31.8315 8.00027 32.0341 7.8203 32.2029C7.64033 32.3717 7.43788 32.4956 7.20167 32.5743C6.97671 32.6644 6.72925 32.7094 6.4593 32.7094C6.18934 32.7094 5.91939 32.6756 5.63819 32.5969L5.34573 33.2271C5.31199 33.2947 5.26701 33.3397 5.19952 33.3622C5.13203 33.3847 5.07579 33.3847 5.01955 33.3622L3.97347 32.867C3.91723 32.8445 3.87224 32.7882 3.84974 32.7207C3.82724 32.6531 3.8385 32.5856 3.861 32.5181L4.16468 31.8652C3.93972 31.6852 3.74851 31.4826 3.60228 31.2575C3.45606 31.0436 3.34359 30.8185 3.26485 30.6046C3.18612 30.3795 3.15236 30.1657 3.16361 29.9518C3.16361 29.738 3.2086 29.5354 3.28734 29.3553C3.30983 29.299 3.35483 29.2653 3.39982 29.2427C3.45606 29.2202 3.50106 29.2202 3.54605 29.2427L4.59212 29.738C4.67085 29.7717 4.71584 29.8168 4.74959 29.8505C4.78333 29.8956 4.80584 29.9406 4.82833 30.0081C4.83958 30.0419 4.85082 30.0982 4.87332 30.1657C4.89581 30.2445 4.91831 30.3233 4.9633 30.4133C5.0083 30.5033 5.07578 30.5934 5.16576 30.6834C5.25574 30.7735 5.37948 30.8635 5.53695 30.931C5.81815 31.0661 6.0656 31.1449 6.29057 31.1674C6.51553 31.1899 6.66176 31.1111 6.7405 30.931C6.78549 30.841 6.78549 30.751 6.7405 30.6609C6.69551 30.5709 6.61676 30.4696 6.50428 30.3458C6.3918 30.2332 6.23434 30.0981 6.04312 29.9518C5.85191 29.8055 5.62694 29.6254 5.36823 29.4116C4.88457 29.0289 4.58086 28.6237 4.47963 28.196C4.36715 27.7795 4.43465 27.3068 4.67086 26.8003C4.77209 26.5977 4.89582 26.4176 5.05329 26.2601C5.21076 26.1025 5.39072 25.9787 5.60443 25.8774C5.8069 25.7761 6.03187 25.7198 6.27932 25.686C6.52678 25.6635 6.77425 25.6635 7.0442 25.7198L7.34789 25.067C7.38163 24.9995 7.42663 24.9544 7.49412 24.9319C7.5616 24.9094 7.61785 24.9094 7.67409 24.9319L8.72015 25.4272C8.77639 25.4497 8.82139 25.5059 8.83264 25.5735C8.85513 25.641 8.84387 25.7085 8.82138 25.7761L8.54018 26.4176Z" fill="#DBB539"/>
</g>
<path d="M8.87732 26.5534C9.09103 26.7335 9.25976 26.9248 9.39474 27.1387C9.52971 27.3525 9.63095 27.5664 9.69844 27.7802C9.76593 27.9941 9.79967 28.2079 9.79967 28.4105C9.79967 28.6131 9.76593 28.7932 9.69844 28.9508C9.67594 29.0071 9.63094 29.0408 9.58595 29.0633C9.52971 29.0858 9.48471 29.0858 9.43972 29.0633L8.39366 28.5681C8.31493 28.5343 8.26994 28.4893 8.23619 28.4443C8.20245 28.3993 8.1687 28.343 8.14621 28.2755C8.13496 28.2529 8.12371 28.2079 8.11246 28.1516C8.10122 28.0954 8.06747 28.0278 8.02248 27.949C7.97749 27.8703 7.92124 27.8027 7.8425 27.7239C7.76377 27.6451 7.6513 27.5776 7.51632 27.5101C7.41509 27.4651 7.31385 27.42 7.21262 27.3975C7.11139 27.3638 7.0214 27.3525 6.93142 27.3525C6.84143 27.3525 6.76269 27.3638 6.6952 27.4088C6.61647 27.4426 6.56023 27.5101 6.52649 27.6001C6.4815 27.6902 6.47024 27.769 6.50399 27.859C6.52648 27.9378 6.58273 28.0391 6.68396 28.1404C6.78519 28.2417 6.92017 28.3655 7.08889 28.5118C7.26886 28.6469 7.48257 28.827 7.74128 29.0296C7.99998 29.2322 8.2137 29.4348 8.39366 29.6374C8.56238 29.84 8.68611 30.0538 8.76485 30.2677C8.84359 30.4815 8.86607 30.7179 8.84358 30.9542C8.82108 31.1906 8.74236 31.4495 8.60738 31.7196C8.4949 31.9672 8.33742 32.1698 8.15745 32.3386C7.97748 32.5075 7.77501 32.6313 7.5388 32.7101C7.31384 32.8001 7.0664 32.8451 6.79645 32.8451C6.52649 32.8451 6.25653 32.8114 5.97533 32.7326L5.68289 33.3629C5.64914 33.4304 5.60414 33.4754 5.53666 33.498C5.46917 33.5205 5.41294 33.5205 5.3567 33.498L4.31063 33.0027C4.25439 32.9802 4.20939 32.9239 4.1869 32.8564C4.1644 32.7889 4.17564 32.7213 4.19814 32.6538L4.50184 32.001C4.27688 31.8209 4.08566 31.6183 3.93944 31.3932C3.79321 31.1793 3.68073 30.9542 3.60199 30.7404C3.52326 30.5153 3.48952 30.3014 3.50077 30.0876C3.50077 29.8737 3.54576 29.6711 3.6245 29.491C3.64699 29.4348 3.69199 29.401 3.73698 29.3785C3.79322 29.356 3.8382 29.356 3.8832 29.3785L4.92927 29.8737C5.00801 29.9075 5.053 29.9525 5.08674 29.9863C5.12049 30.0313 5.14297 30.0763 5.16547 30.1438C5.17672 30.1776 5.18798 30.2339 5.21047 30.3014C5.23297 30.3802 5.25547 30.459 5.30046 30.549C5.34545 30.6391 5.41293 30.7291 5.50291 30.8192C5.5929 30.9092 5.71663 30.9993 5.8741 31.0668C6.1553 31.2019 6.40276 31.2806 6.62772 31.3032C6.85268 31.3257 6.99891 31.2469 7.07765 31.0668C7.12264 30.9767 7.12264 30.8867 7.07765 30.7967C7.03266 30.7066 6.95391 30.6053 6.84143 30.4815C6.72895 30.369 6.57147 30.2339 6.38026 30.0876C6.18904 29.9412 5.96409 29.7612 5.70539 29.5473C5.22172 29.1646 4.91802 28.7594 4.81678 28.3317C4.7043 27.9153 4.77179 27.4426 5.008 26.9361C5.10923 26.7335 5.23297 26.5534 5.39044 26.3958C5.54792 26.2382 5.72787 26.1144 5.94159 26.0131C6.14405 25.9118 6.36902 25.8555 6.61647 25.8218C6.86393 25.7993 7.11138 25.7993 7.38133 25.8555L7.68503 25.2027C7.71878 25.1352 7.76377 25.0902 7.83126 25.0677C7.89875 25.0452 7.955 25.0452 8.01124 25.0677L9.05729 25.5629C9.11353 25.5854 9.15853 25.6417 9.16978 25.7092C9.19228 25.7768 9.18102 25.8443 9.15852 25.9118L8.87732 26.5534Z" fill="#FFD522"/>
<defs>
<clipPath id="clip0">
<rect x="10.5531" width="46.9613" height="36.4082" fill="white"/>
</clipPath>
</defs>
</svg>
