<svg width="326" height="76" viewBox="0 0 326 76" fill="none" xmlns="http://www.w3.org/2000/svg">
<g filter="url(#filter0_d)">
<path d="M25.6657 30.504C25.6657 34.8453 26.085 37.9533 26.9237 39.828C27.8117 41.6533 29.2423 42.566 31.2157 42.566C33.189 42.566 35.9763 42.0973 39.5777 41.16L41.5017 51.594C37.6043 53.0247 33.6823 53.74 29.7357 53.74C23.8157 53.74 19.499 51.7913 16.7857 47.894C14.1217 43.9473 12.7897 38.1013 12.7897 30.356C12.7897 22.5613 14.1957 16.6167 17.0077 12.522C19.8197 8.378 24.4077 6.306 30.7717 6.306C34.521 6.306 38.0977 7.09533 41.5017 8.674L39.5037 20.144C35.6557 18.8613 32.967 18.22 31.4377 18.22C29.267 18.22 27.7623 19.182 26.9237 21.106C26.085 22.9807 25.6657 26.1133 25.6657 30.504ZM47.3592 11.856C50.2206 8.156 54.8826 6.306 61.3452 6.306C67.8079 6.306 72.4206 8.13133 75.1832 11.782C77.9952 15.4327 79.4012 21.3773 79.4012 29.616C79.4012 37.8053 77.9706 43.8733 75.1092 47.82C72.2479 51.7667 67.6106 53.74 61.1972 53.74C54.7839 53.74 50.1712 51.7913 47.3592 47.894C44.5472 43.9967 43.1412 37.9533 43.1412 29.764C43.1412 21.5253 44.5472 15.556 47.3592 11.856ZM66.6732 29.616C66.6732 25.0773 66.3032 22.0187 65.5632 20.44C64.8726 18.812 63.4172 17.998 61.1972 17.998C59.0266 17.998 57.6206 18.812 56.9792 20.44C56.3379 22.0187 56.0172 25.0527 56.0172 29.542V31.318C56.0172 36.1033 56.3626 39.2607 57.0532 40.79C57.7932 42.27 59.2486 43.01 61.4192 43.01C63.6392 43.01 65.0699 42.2947 65.7112 40.864C66.3526 39.4333 66.6732 36.4733 66.6732 31.984V29.616ZM117.962 53H105.826L96.2796 31.614H95.6876V53H84.4396V7.046H96.9456L106.048 29.098H106.64V7.046H117.962V53ZM152.151 20.736C147.415 19.3053 143.937 18.59 141.717 18.59C139.546 18.59 138.041 19.552 137.203 21.476C136.413 23.4 136.019 26.4587 136.019 30.652C136.019 34.796 136.389 37.83 137.129 39.754C137.918 41.6287 139.497 42.566 141.865 42.566C142.555 42.566 143.887 42.3687 145.861 41.974V36.35H142.531V27.618H156.665V53H147.933L146.749 50.632H146.453C145.614 51.3227 144.948 51.8407 144.455 52.186C143.073 53.222 141.125 53.74 138.609 53.74C128.298 53.74 123.143 45.9453 123.143 30.356C123.143 22.5613 124.499 16.6167 127.213 12.522C129.926 8.378 134.489 6.306 140.903 6.306C146.033 6.306 150.449 7.09533 154.149 8.674L152.151 20.736ZM194.298 21.624C194.298 24.3867 193.878 26.6807 193.04 28.506C192.201 30.3313 190.894 31.984 189.118 33.464L195.26 53H181.57L176.982 36.424H175.28V53H162.848V7.046H180.016C184.949 7.046 188.55 8.20533 190.82 10.524C193.138 12.8427 194.298 16.5427 194.298 21.624ZM177.204 28.654C178.486 28.654 179.399 28.284 179.942 27.544C180.484 26.804 180.756 25.472 180.756 23.548C180.756 21.5747 180.484 20.218 179.942 19.478C179.399 18.6887 178.511 18.294 177.278 18.294H175.28V28.654H177.204ZM232.418 53H220.06L218.654 45.748H209.922L208.516 53H196.75L205.186 7.046H223.982L232.418 53ZM217.248 37.09L214.658 20.662H214.14L211.55 37.09H217.248ZM262.984 18.22H254.4V53H241.746V18.22H232.644L233.384 7.046H263.724L262.984 18.22ZM264.549 20.884C264.549 16.4933 265.832 12.966 268.397 10.302C270.963 7.638 274.465 6.306 278.905 6.306C283.395 6.306 287.983 6.75 292.669 7.638L291.189 19.478C286.305 18.3433 282.951 17.776 281.125 17.776C278.807 17.776 277.647 18.7133 277.647 20.588C277.647 21.328 278.19 22.0433 279.275 22.734C280.41 23.4247 281.767 24.1647 283.345 24.954C284.924 25.694 286.503 26.6067 288.081 27.692C289.66 28.728 290.992 30.2327 292.077 32.206C293.212 34.1793 293.779 36.4487 293.779 39.014C293.779 43.7007 292.521 47.3267 290.005 49.892C287.489 52.4573 283.913 53.74 279.275 53.74C274.687 53.74 270.198 53.0247 265.807 51.594L266.621 40.568C271.9 42.0973 275.575 42.862 277.647 42.862C279.719 42.862 280.755 41.9493 280.755 40.124C280.755 39.1867 280.188 38.3233 279.053 37.534C277.968 36.7447 276.636 35.9553 275.057 35.166C273.479 34.3767 271.875 33.464 270.247 32.428C268.669 31.392 267.312 29.8873 266.177 27.914C265.092 25.9407 264.549 23.5973 264.549 20.884ZM301.679 38.94L300.865 7.046H313.445L312.409 38.94H301.679ZM300.717 47.968C300.717 45.9947 301.235 44.5393 302.271 43.602C303.307 42.6153 304.96 42.122 307.229 42.122C309.499 42.122 311.151 42.6153 312.187 43.602C313.223 44.5393 313.741 46.044 313.741 48.116C313.741 51.9147 311.571 53.814 307.229 53.814C302.888 53.814 300.717 51.8653 300.717 47.968Z" fill="#DA4F51"/>
<path d="M26.9237 39.828L25.098 40.6447L25.1112 40.674L25.1252 40.7029L26.9237 39.828ZM39.5777 41.16L41.5445 40.7973L41.1546 38.6829L39.0739 39.2245L39.5777 41.16ZM41.5017 51.594L42.1909 53.4715L43.7744 52.8902L43.4685 51.2313L41.5017 51.594ZM16.7857 47.894L15.128 49.0129L15.136 49.0249L15.1443 49.0367L16.7857 47.894ZM17.0077 12.522L18.6564 13.6542L18.6626 13.645L17.0077 12.522ZM41.5017 8.674L43.472 9.01722L43.7354 7.5053L42.3431 6.85962L41.5017 8.674ZM39.5037 20.144L38.8712 22.0414L41.0753 22.7761L41.474 20.4872L39.5037 20.144ZM26.9237 21.106L28.7493 21.9227L28.7532 21.914L28.7571 21.9052L26.9237 21.106ZM23.6657 30.504C23.6657 34.8821 24.0748 38.3574 25.098 40.6447L28.7493 39.0113C28.0952 37.5492 27.6657 34.8086 27.6657 30.504H23.6657ZM25.1252 40.7029C25.6988 41.8819 26.5043 42.8769 27.587 43.5676C28.6732 44.2605 29.9112 44.566 31.2157 44.566V40.566C30.5468 40.566 30.0828 40.4152 29.7383 40.1954C29.3904 39.9734 29.0366 39.5994 28.7221 38.9531L25.1252 40.7029ZM31.2157 44.566C33.4483 44.566 36.4334 44.045 40.0814 43.0955L39.0739 39.2245C35.5193 40.1497 32.9297 40.566 31.2157 40.566V44.566ZM37.6108 41.5227L39.5348 51.9567L43.4685 51.2313L41.5445 40.7973L37.6108 41.5227ZM40.8125 49.7165C37.1243 51.0704 33.4352 51.74 29.7357 51.74V55.74C33.9295 55.74 38.0844 54.9789 42.1909 53.4715L40.8125 49.7165ZM29.7357 51.74C24.2885 51.74 20.6735 49.9779 18.4271 46.7513L15.1443 49.0367C18.3245 53.6047 23.3429 55.74 29.7357 55.74V51.74ZM18.4434 46.7751C16.1025 43.3071 14.7897 37.9297 14.7897 30.356H10.7897C10.7897 38.2729 12.1408 44.5876 15.128 49.0129L18.4434 46.7751ZM14.7897 30.356C14.7897 22.7529 16.1696 17.2753 18.6563 13.6542L15.359 11.3898C12.2218 15.9581 10.7897 22.3698 10.7897 30.356H14.7897ZM18.6626 13.645C21.0019 10.1976 24.8689 8.306 30.7717 8.306V4.306C23.9464 4.306 18.6374 6.55835 15.3527 11.399L18.6626 13.645ZM30.7717 8.306C34.2301 8.306 37.5197 9.03189 40.6602 10.4884L42.3431 6.85962C38.6757 5.15877 34.8119 4.306 30.7717 4.306V8.306ZM39.5313 8.33078L37.5333 19.8008L41.474 20.4872L43.472 9.01722L39.5313 8.33078ZM40.1361 18.2466C36.3142 16.9727 33.3351 16.22 31.4377 16.22V20.22C32.5989 20.22 34.9971 20.75 38.8712 22.0414L40.1361 18.2466ZM31.4377 16.22C30.0533 16.22 28.7412 16.5293 27.6038 17.2565C26.462 17.9865 25.6398 19.0462 25.0903 20.3068L28.7571 21.9052C29.0462 21.2418 29.3957 20.8585 29.7585 20.6265C30.1259 20.3917 30.6514 20.22 31.4377 20.22V16.22ZM25.098 20.2893C24.074 22.5782 23.6657 26.0804 23.6657 30.504H27.6657C27.6657 26.1462 28.096 23.3831 28.7493 21.9227L25.098 20.2893ZM47.3592 11.856L45.7771 10.6325L45.772 10.6391L45.7669 10.6458L47.3592 11.856ZM75.1832 11.782L73.5884 12.9889L73.5936 12.9957L73.5988 13.0025L75.1832 11.782ZM75.1092 47.82L76.7285 48.9939L75.1092 47.82ZM47.3592 47.894L45.7373 49.0642L47.3592 47.894ZM65.5632 20.44L63.7221 21.2211L63.7366 21.2553L63.7523 21.2889L65.5632 20.44ZM56.9792 20.44L58.8322 21.1928L58.8362 21.1829L58.8401 21.173L56.9792 20.44ZM57.0532 40.79L55.2305 41.6132L55.2467 41.6491L55.2644 41.6844L57.0532 40.79ZM65.7112 40.864L67.5363 41.6821V41.6821L65.7112 40.864ZM48.9413 13.0795C51.2928 10.0388 55.2501 8.306 61.3452 8.306V4.306C54.515 4.306 49.1483 6.27321 45.7771 10.6325L48.9413 13.0795ZM61.3452 8.306C67.4548 8.306 71.3429 10.0215 73.5884 12.9889L76.778 10.5751C73.4983 6.24113 68.161 4.306 61.3452 4.306V8.306ZM73.5988 13.0025C75.9999 16.1197 77.4012 21.511 77.4012 29.616H81.4012C81.4012 21.2436 79.9906 14.7456 76.7677 10.5615L73.5988 13.0025ZM77.4012 29.616C77.4012 37.6427 75.986 43.2034 73.49 46.6461L76.7285 48.9939C79.9552 44.5433 81.4012 37.9679 81.4012 29.616H77.4012ZM73.49 46.6461C71.1185 49.9172 67.1914 51.74 61.1972 51.74V55.74C68.0297 55.74 73.3773 53.6162 76.7285 48.9939L73.49 46.6461ZM61.1972 51.74C55.1918 51.74 51.2982 49.9352 48.9811 46.7238L45.7373 49.0642C49.0443 53.6475 54.376 55.74 61.1972 55.74V51.74ZM48.9811 46.7238C46.5345 43.3329 45.1412 37.7987 45.1412 29.764H41.1412C41.1412 38.108 42.5599 44.6605 45.7373 49.0642L48.9811 46.7238ZM45.1412 29.764C45.1412 21.6628 46.5411 16.2379 48.9516 13.0662L45.7669 10.6458C42.5534 14.8741 41.1412 21.3878 41.1412 29.764H45.1412ZM68.6732 29.616C68.6732 27.3001 68.5792 25.3145 68.3813 23.6778C68.1871 22.0732 67.8782 20.6663 67.3742 19.5911L63.7523 21.2889C63.9883 21.7923 64.2343 22.7042 64.4102 24.1582C64.5822 25.5802 64.6732 27.3932 64.6732 29.616H68.6732ZM67.4044 19.6589C66.897 18.4629 66.0694 17.5002 64.93 16.863C63.8213 16.2429 62.5398 15.998 61.1972 15.998V19.998C62.0747 19.998 62.6308 20.1601 62.9774 20.354C63.2934 20.5308 63.5388 20.7891 63.7221 21.2211L67.4044 19.6589ZM61.1972 15.998C59.8743 15.998 58.6058 16.2448 57.5127 16.8776C56.388 17.5288 55.5909 18.5076 55.1184 19.7069L58.8401 21.173C59.0089 20.7444 59.2355 20.5022 59.5168 20.3394C59.8296 20.1582 60.3495 19.998 61.1972 19.998V15.998ZM55.1263 19.6872C54.7003 20.7358 54.4359 22.1082 54.2688 23.6893C54.0985 25.3003 54.0172 27.2565 54.0172 29.542H58.0172C58.0172 27.3381 58.0963 25.5327 58.2467 24.1097C58.4002 22.6568 58.6168 21.7229 58.8322 21.1928L55.1263 19.6872ZM54.0172 29.542V31.318H58.0172V29.542H54.0172ZM54.0172 31.318C54.0172 33.7509 54.1046 35.8153 54.2881 37.4925C54.4671 39.1287 54.7524 40.5546 55.2305 41.6132L58.876 39.9668C58.6634 39.4961 58.4307 38.5786 58.2644 37.0575C58.1025 35.5774 58.0172 33.6704 58.0172 31.318H54.0172ZM55.2644 41.6844C56.4518 44.0592 58.769 45.01 61.4192 45.01V41.01C59.7282 41.01 59.1347 40.4808 58.8421 39.8956L55.2644 41.6844ZM61.4192 45.01C64.045 45.01 66.4409 44.1256 67.5363 41.6821L63.8862 40.0459C63.6989 40.4638 63.2334 41.01 61.4192 41.01V45.01ZM67.5363 41.6821C67.9883 40.6738 68.2547 39.3229 68.4211 37.7864C68.592 36.2088 68.6732 34.2685 68.6732 31.984H64.6732C64.6732 34.1889 64.5941 35.9732 64.4444 37.3556C64.2902 38.7791 64.0755 39.6236 63.8862 40.0459L67.5363 41.6821ZM68.6732 31.984V29.616H64.6732V31.984H68.6732ZM117.962 53V55H119.962V53H117.962ZM105.826 53L103.999 53.8152L104.528 55H105.826V53ZM96.2796 31.614L98.1059 30.7988L97.5771 29.614H96.2796V31.614ZM95.6876 31.614V29.614H93.6876V31.614H95.6876ZM95.6876 53V55H97.6876V53H95.6876ZM84.4396 53H82.4396V55H84.4396V53ZM84.4396 7.046V5.046H82.4396V7.046H84.4396ZM96.9456 7.046L98.7943 6.28294L98.2838 5.046H96.9456V7.046ZM106.048 29.098L104.199 29.8611L104.709 31.098H106.048V29.098ZM106.64 29.098V31.098H108.64V29.098H106.64ZM106.64 7.046V5.046H104.64V7.046H106.64ZM117.962 7.046H119.962V5.046H117.962V7.046ZM117.962 51H105.826V55H117.962V51ZM107.652 52.1848L98.1059 30.7988L94.4533 32.4292L103.999 53.8152L107.652 52.1848ZM96.2796 29.614H95.6876V33.614H96.2796V29.614ZM93.6876 31.614V53H97.6876V31.614H93.6876ZM95.6876 51H84.4396V55H95.6876V51ZM86.4396 53V7.046H82.4396V53H86.4396ZM84.4396 9.046H96.9456V5.046H84.4396V9.046ZM95.0969 7.80906L104.199 29.8611L107.896 28.3349L98.7943 6.28294L95.0969 7.80906ZM106.048 31.098H106.64V27.098H106.048V31.098ZM108.64 29.098V7.046H104.64V29.098H108.64ZM106.64 9.046H117.962V5.046H106.64V9.046ZM115.962 7.046V53H119.962V7.046H115.962ZM152.151 20.736L151.572 22.6505L153.752 23.3089L154.124 21.0628L152.151 20.736ZM137.203 21.476L135.369 20.6768L135.361 20.6968L135.352 20.7169L137.203 21.476ZM137.129 39.754L135.262 40.472L135.273 40.5012L135.285 40.5301L137.129 39.754ZM145.861 41.974L146.253 43.9352L147.861 43.6136V41.974H145.861ZM145.861 36.35H147.861V34.35H145.861V36.35ZM142.531 36.35H140.531V38.35H142.531V36.35ZM142.531 27.618V25.618H140.531V27.618H142.531ZM156.665 27.618H158.665V25.618H156.665V27.618ZM156.665 53V55H158.665V53H156.665ZM147.933 53L146.144 53.8944L146.697 55H147.933V53ZM146.749 50.632L148.538 49.7376L147.985 48.632H146.749V50.632ZM146.453 50.632V48.632H145.735L145.181 49.0881L146.453 50.632ZM144.455 52.186L143.308 50.5475L143.281 50.5663L143.255 50.586L144.455 52.186ZM127.213 12.522L128.88 13.6268L128.886 13.6176L127.213 12.522ZM154.149 8.674L156.122 9.00083L156.379 7.45096L154.934 6.83444L154.149 8.674ZM152.729 18.8214C147.978 17.3862 144.255 16.59 141.717 16.59V20.59C143.618 20.59 146.852 21.2245 151.572 22.6505L152.729 18.8214ZM141.717 16.59C140.332 16.59 139.02 16.8993 137.883 17.6265C136.741 18.3565 135.919 19.4162 135.369 20.6768L139.036 22.2752C139.325 21.6118 139.675 21.2285 140.038 20.9965C140.405 20.7617 140.93 20.59 141.717 20.59V16.59ZM135.352 20.7169C134.407 23.0204 134.019 26.4088 134.019 30.652H138.019C138.019 26.5085 138.419 23.7796 139.053 22.2351L135.352 20.7169ZM134.019 30.652C134.019 34.8445 134.384 38.1878 135.262 40.472L138.995 39.036C138.394 37.4722 138.019 34.7475 138.019 30.652H134.019ZM135.285 40.5301C135.827 41.8171 136.687 42.872 137.884 43.5827C139.059 44.2808 140.423 44.566 141.865 44.566V40.566C140.938 40.566 140.329 40.3826 139.926 40.1433C139.544 39.9166 139.219 39.5656 138.972 38.9779L135.285 40.5301ZM141.865 44.566C142.785 44.566 144.309 44.324 146.253 43.9352L145.469 40.0128C143.466 40.4133 142.326 40.566 141.865 40.566V44.566ZM147.861 41.974V36.35H143.861V41.974H147.861ZM145.861 34.35H142.531V38.35H145.861V34.35ZM144.531 36.35V27.618H140.531V36.35H144.531ZM142.531 29.618H156.665V25.618H142.531V29.618ZM154.665 27.618V53H158.665V27.618H154.665ZM156.665 51H147.933V55H156.665V51ZM149.722 52.1056L148.538 49.7376L144.96 51.5264L146.144 53.8944L149.722 52.1056ZM146.749 48.632H146.453V52.632H146.749V48.632ZM145.181 49.0881C144.356 49.7674 143.737 50.2468 143.308 50.5475L145.602 53.8245C146.159 53.4345 146.872 52.8779 147.724 52.1759L145.181 49.0881ZM143.255 50.586C142.346 51.2677 140.882 51.74 138.609 51.74V55.74C141.367 55.74 143.801 55.1763 145.655 53.786L143.255 50.586ZM138.609 51.74C134.043 51.74 130.842 50.0631 128.677 46.7907C126.417 43.3733 125.143 37.9936 125.143 30.356H121.143C121.143 38.3077 122.446 44.6201 125.341 48.9973C128.332 53.5196 132.864 55.74 138.609 55.74V51.74ZM125.143 30.356C125.143 22.7429 126.477 17.2535 128.88 13.6268L125.546 11.4172C122.522 15.9798 121.143 22.3798 121.143 30.356H125.143ZM128.886 13.6176C131.122 10.2023 134.941 8.306 140.903 8.306V4.306C134.038 4.306 128.73 6.55367 125.54 11.4264L128.886 13.6176ZM140.903 8.306C145.835 8.306 149.97 9.06558 153.364 10.5136L154.934 6.83444C150.927 5.12508 146.232 4.306 140.903 4.306V8.306ZM152.176 8.34716L150.178 20.4092L154.124 21.0628L156.122 9.00083L152.176 8.34716ZM193.04 28.506L191.222 27.671L193.04 28.506ZM189.118 33.464L187.837 31.9276L186.808 32.7855L187.21 34.0638L189.118 33.464ZM195.26 53V55H197.985L197.168 52.4002L195.26 53ZM181.57 53L179.642 53.5335L180.048 55H181.57V53ZM176.982 36.424L178.909 35.8905L178.503 34.424H176.982V36.424ZM175.28 36.424V34.424H173.28V36.424H175.28ZM175.28 53V55H177.28V53H175.28ZM162.848 53H160.848V55H162.848V53ZM162.848 7.046V5.046H160.848V7.046H162.848ZM190.82 10.524L189.39 11.9229L189.398 11.9306L189.406 11.9382L190.82 10.524ZM179.942 27.544L181.555 28.7267V28.7267L179.942 27.544ZM179.942 19.478L178.294 20.6111L178.311 20.6362L178.329 20.6607L179.942 19.478ZM175.28 18.294V16.294H173.28V18.294H175.28ZM175.28 28.654H173.28V30.654H175.28V28.654ZM192.298 21.624C192.298 24.2002 191.905 26.1865 191.222 27.671L194.857 29.341C195.852 27.1748 196.298 24.5732 196.298 21.624H192.298ZM191.222 27.671C190.526 29.1873 189.419 30.6097 187.837 31.9276L190.398 35.0004C192.369 33.3583 193.877 31.4753 194.857 29.341L191.222 27.671ZM187.21 34.0638L193.352 53.5998L197.168 52.4002L191.026 32.8642L187.21 34.0638ZM195.26 51H181.57V55H195.26V51ZM183.497 52.4665L178.909 35.8905L175.054 36.9575L179.642 53.5335L183.497 52.4665ZM176.982 34.424H175.28V38.424H176.982V34.424ZM173.28 36.424V53H177.28V36.424H173.28ZM175.28 51H162.848V55H175.28V51ZM164.848 53V7.046H160.848V53H164.848ZM162.848 9.046H180.016V5.046H162.848V9.046ZM180.016 9.046C184.687 9.046 187.654 10.1491 189.39 11.9229L192.249 9.12507C189.447 6.26154 185.211 5.046 180.016 5.046V9.046ZM189.406 11.9382C191.187 13.7198 192.298 16.7888 192.298 21.624H196.298C196.298 16.2966 195.09 11.9655 192.234 9.10979L189.406 11.9382ZM177.204 30.654C178.852 30.654 180.499 30.1657 181.555 28.7267L178.329 26.3613C178.299 26.4023 178.121 26.654 177.204 26.654V30.654ZM181.555 28.7267C182.506 27.4291 182.756 25.5172 182.756 23.548H178.756C178.756 25.4268 178.463 26.1789 178.329 26.3613L181.555 28.7267ZM182.756 23.548C182.756 21.5429 182.51 19.598 181.555 18.2953L178.329 20.6607C178.459 20.838 178.756 21.6064 178.756 23.548H182.756ZM181.59 18.3449C180.569 16.8594 178.958 16.294 177.278 16.294V20.294C178.064 20.294 178.23 20.518 178.294 20.6111L181.59 18.3449ZM177.278 16.294H175.28V20.294H177.278V16.294ZM173.28 18.294V28.654H177.28V18.294H173.28ZM175.28 30.654H177.204V26.654H175.28V30.654ZM232.418 53V55H234.819L234.385 52.6389L232.418 53ZM220.06 53L218.097 53.3807L218.411 55H220.06V53ZM218.654 45.748L220.618 45.3673L220.304 43.748H218.654V45.748ZM209.922 45.748V43.748H208.273L207.959 45.3673L209.922 45.748ZM208.516 53V55H210.166L210.48 53.3807L208.516 53ZM196.75 53L194.783 52.6389L194.35 55H196.75V53ZM205.186 7.046V5.046H203.52L203.219 6.68488L205.186 7.046ZM223.982 7.046L225.949 6.68488L225.648 5.046H223.982V7.046ZM217.248 37.09V39.09H219.588L219.224 36.7785L217.248 37.09ZM214.658 20.662L216.634 20.3505L216.368 18.662H214.658V20.662ZM214.14 20.662V18.662H212.431L212.165 20.3505L214.14 20.662ZM211.55 37.09L209.575 36.7785L209.21 39.09H211.55V37.09ZM232.418 51H220.06V55H232.418V51ZM222.024 52.6193L220.618 45.3673L216.691 46.1287L218.097 53.3807L222.024 52.6193ZM218.654 43.748H209.922V47.748H218.654V43.748ZM207.959 45.3673L206.553 52.6193L210.48 53.3807L211.886 46.1287L207.959 45.3673ZM208.516 51H196.75V55H208.516V51ZM198.717 53.3611L207.153 7.40711L203.219 6.68488L194.783 52.6389L198.717 53.3611ZM205.186 9.046H223.982V5.046H205.186V9.046ZM222.015 7.40711L230.451 53.3611L234.385 52.6389L225.949 6.68488L222.015 7.40711ZM219.224 36.7785L216.634 20.3505L212.683 20.9735L215.273 37.4015L219.224 36.7785ZM214.658 18.662H214.14V22.662H214.658V18.662ZM212.165 20.3505L209.575 36.7785L213.526 37.4015L216.116 20.9735L212.165 20.3505ZM211.55 39.09H217.248V35.09H211.55V39.09ZM262.984 18.22V20.22H264.856L264.979 18.3522L262.984 18.22ZM254.4 18.22V16.22H252.4V18.22H254.4ZM254.4 53V55H256.4V53H254.4ZM241.746 53H239.746V55H241.746V53ZM241.746 18.22H243.746V16.22H241.746V18.22ZM232.644 18.22L230.648 18.0878L230.507 20.22H232.644V18.22ZM233.384 7.046V5.046H231.512L231.388 6.91384L233.384 7.046ZM263.724 7.046L265.719 7.17816L265.861 5.046H263.724V7.046ZM262.984 16.22H254.4V20.22H262.984V16.22ZM252.4 18.22V53H256.4V18.22H252.4ZM254.4 51H241.746V55H254.4V51ZM243.746 53V18.22H239.746V53H243.746ZM241.746 16.22H232.644V20.22H241.746V16.22ZM234.639 18.3522L235.379 7.17816L231.388 6.91384L230.648 18.0878L234.639 18.3522ZM233.384 9.046H263.724V5.046H233.384V9.046ZM261.728 6.91384L260.988 18.0878L264.979 18.3522L265.719 7.17816L261.728 6.91384ZM268.397 10.302L269.838 11.6893L268.397 10.302ZM292.669 7.638L294.654 7.88607L294.887 6.02257L293.042 5.67296L292.669 7.638ZM291.189 19.478L290.737 21.4261L292.898 21.9284L293.174 19.7261L291.189 19.478ZM279.275 22.734L278.201 24.4213L278.218 24.432L278.235 24.4424L279.275 22.734ZM283.345 24.954L282.451 26.7429L282.473 26.7542L282.496 26.7649L283.345 24.954ZM288.081 27.692L286.948 29.3401L286.966 29.3523L286.984 29.3641L288.081 27.692ZM292.077 32.206L290.325 33.1698L290.334 33.1865L290.343 33.2029L292.077 32.206ZM290.005 49.892L288.577 48.4916L290.005 49.892ZM265.807 51.594L263.813 51.4468L263.697 53.01L265.188 53.4956L265.807 51.594ZM266.621 40.568L267.178 38.647L264.808 37.9605L264.627 40.4207L266.621 40.568ZM279.053 37.534L277.877 39.1515L277.894 39.1638L277.911 39.1758L279.053 37.534ZM275.057 35.166L275.952 33.3771L275.057 35.166ZM270.247 32.428L269.15 34.1001L269.162 34.1078L269.173 34.1153L270.247 32.428ZM266.177 27.914L264.425 28.8778L264.434 28.8945L264.443 28.9109L266.177 27.914ZM266.549 20.884C266.549 16.9073 267.697 13.9122 269.838 11.6893L266.957 8.91472C263.967 12.0198 262.549 16.0794 262.549 20.884H266.549ZM269.838 11.6893C271.952 9.49395 274.891 8.306 278.905 8.306V4.306C274.039 4.306 269.973 5.78205 266.957 8.91472L269.838 11.6893ZM278.905 8.306C283.262 8.306 287.725 8.73685 292.297 9.60304L293.042 5.67296C288.24 4.76314 283.527 4.306 278.905 4.306V8.306ZM290.685 7.38993L289.205 19.2299L293.174 19.7261L294.654 7.88607L290.685 7.38993ZM291.642 17.5299C286.781 16.4007 283.213 15.776 281.125 15.776V19.776C282.688 19.776 285.829 20.286 290.737 21.4261L291.642 17.5299ZM281.125 15.776C279.748 15.776 278.345 16.0458 277.259 16.9237C276.092 17.8674 275.647 19.2165 275.647 20.588H279.647C279.647 20.3218 279.689 20.1806 279.714 20.1201C279.734 20.0718 279.75 20.0536 279.774 20.0343C279.848 19.9748 280.183 19.776 281.125 19.776V15.776ZM275.647 20.588C275.647 22.3975 276.965 23.6348 278.201 24.4213L280.349 21.0467C279.927 20.7782 279.728 20.5766 279.648 20.4707C279.582 20.3847 279.647 20.4347 279.647 20.588H275.647ZM278.235 24.4424C279.43 25.1695 280.838 25.9362 282.451 26.7429L284.24 23.1651C282.696 22.3931 281.39 21.6799 280.315 21.0256L278.235 24.4424ZM282.496 26.7649C283.967 27.4542 285.451 28.3107 286.948 29.3401L289.214 26.0439C287.554 24.9026 285.881 23.9338 284.194 23.1431L282.496 26.7649ZM286.984 29.3641C288.242 30.1895 289.367 31.4276 290.325 33.1698L293.83 31.2422C292.617 29.0377 291.078 27.2665 289.179 26.0199L286.984 29.3641ZM290.343 33.2029C291.282 34.836 291.779 36.7532 291.779 39.014H295.779C295.779 36.1441 295.141 33.5227 293.811 31.2091L290.343 33.2029ZM291.779 39.014C291.779 43.3424 290.625 46.4036 288.577 48.4916L291.433 51.2924C294.417 48.2497 295.779 44.0589 295.779 39.014H291.779ZM288.577 48.4916C286.538 50.5705 283.539 51.74 279.275 51.74V55.74C284.286 55.74 288.44 54.3441 291.433 51.2924L288.577 48.4916ZM279.275 51.74C274.899 51.74 270.619 51.0583 266.427 49.6924L265.188 53.4956C269.777 54.991 274.475 55.74 279.275 55.74V51.74ZM267.802 51.7412L268.616 40.7152L264.627 40.4207L263.813 51.4468L267.802 51.7412ZM266.065 42.489C271.321 44.0119 275.253 44.862 277.647 44.862V40.862C275.897 40.862 272.479 40.1828 267.178 38.647L266.065 42.489ZM277.647 44.862C278.934 44.862 280.272 44.5842 281.3 43.6782C282.377 42.7296 282.755 41.4154 282.755 40.124H278.755C278.755 40.396 278.716 40.5462 278.69 40.6141C278.678 40.6466 278.668 40.6619 278.665 40.6666C278.662 40.6709 278.66 40.6733 278.656 40.6768C278.649 40.6835 278.433 40.862 277.647 40.862V44.862ZM282.755 40.124C282.755 38.2606 281.598 36.8677 280.195 35.8922L277.911 39.1758C278.778 39.779 278.755 40.1127 278.755 40.124H282.755ZM280.23 35.9165C279.032 35.0459 277.6 34.2013 275.952 33.3771L274.163 36.9549C275.672 37.7093 276.903 38.4435 277.877 39.1515L280.23 35.9165ZM275.952 33.3771C274.44 32.6212 272.896 31.7431 271.321 30.7407L269.173 34.1153C270.854 35.1849 272.517 36.1321 274.163 36.9549L275.952 33.3771ZM271.345 30.7559C270.077 29.9238 268.921 28.6738 267.911 26.9171L264.443 28.9109C265.703 31.1009 267.261 32.8602 269.15 34.1001L271.345 30.7559ZM267.93 26.9502C267.037 25.327 266.549 23.329 266.549 20.884H262.549C262.549 23.8656 263.147 26.5543 264.425 28.8778L267.93 26.9502ZM301.679 38.94L299.68 38.991L299.73 40.94H301.679V38.94ZM300.865 7.046V5.046H298.814L298.866 7.09702L300.865 7.046ZM313.445 7.046L315.444 7.11093L315.511 5.046H313.445V7.046ZM312.409 38.94V40.94H314.345L314.408 39.0049L312.409 38.94ZM302.271 43.602L303.613 45.0851L303.632 45.0679L303.651 45.0503L302.271 43.602ZM312.187 43.602L310.808 45.0503L310.827 45.0679L310.845 45.0851L312.187 43.602ZM303.679 38.889L302.865 6.99497L298.866 7.09702L299.68 38.991L303.679 38.889ZM300.865 9.046H313.445V5.046H300.865V9.046ZM311.446 6.98107L310.41 38.8751L314.408 39.0049L315.444 7.11093L311.446 6.98107ZM312.409 36.94H301.679V40.94H312.409V36.94ZM302.717 47.968C302.717 46.3202 303.146 45.5078 303.613 45.0851L300.929 42.1189C299.325 43.5709 298.717 45.6691 298.717 47.968H302.717ZM303.651 45.0503C304.148 44.5764 305.185 44.122 307.229 44.122V40.122C304.735 40.122 302.466 40.6543 300.892 42.1537L303.651 45.0503ZM307.229 44.122C309.274 44.122 310.31 44.5764 310.808 45.0503L313.567 42.1537C311.992 40.6543 309.724 40.122 307.229 40.122V44.122ZM310.845 45.0851C311.294 45.4912 311.741 46.3338 311.741 48.116H315.741C315.741 45.7542 315.152 43.5874 313.529 42.1189L310.845 45.0851ZM311.741 48.116C311.741 49.6325 311.32 50.4258 310.796 50.8843C310.221 51.3876 309.152 51.814 307.229 51.814V55.814C309.648 55.814 311.835 55.2908 313.43 53.8947C315.077 52.4539 315.741 50.3982 315.741 48.116H311.741ZM307.229 51.814C305.317 51.814 304.256 51.3801 303.681 50.8642C303.148 50.3852 302.717 49.5493 302.717 47.968H298.717C298.717 50.2841 299.372 52.3711 301.009 53.8408C302.605 55.2735 304.8 55.814 307.229 55.814V51.814Z" fill="#DA4F51"/>
<path d="M27.6657 26.504C27.6657 30.8453 28.085 33.9533 28.9237 35.828C29.8117 37.6533 31.2423 38.566 33.2157 38.566C35.189 38.566 37.9763 38.0973 41.5777 37.16L43.5017 47.594C39.6043 49.0247 35.6823 49.74 31.7357 49.74C25.8157 49.74 21.499 47.7913 18.7857 43.894C16.1217 39.9473 14.7897 34.1013 14.7897 26.356C14.7897 18.5613 16.1957 12.6167 19.0077 8.522C21.8197 4.378 26.4077 2.306 32.7717 2.306C36.521 2.306 40.0977 3.09533 43.5017 4.674L41.5037 16.144C37.6557 14.8613 34.967 14.22 33.4377 14.22C31.267 14.22 29.7623 15.182 28.9237 17.106C28.085 18.9807 27.6657 22.1133 27.6657 26.504ZM49.3592 7.856C52.2206 4.156 56.8826 2.306 63.3452 2.306C69.8079 2.306 74.4206 4.13133 77.1832 7.782C79.9952 11.4327 81.4012 17.3773 81.4012 25.616C81.4012 33.8053 79.9706 39.8733 77.1092 43.82C74.2479 47.7667 69.6106 49.74 63.1972 49.74C56.7839 49.74 52.1712 47.7913 49.3592 43.894C46.5472 39.9967 45.1412 33.9533 45.1412 25.764C45.1412 17.5253 46.5472 11.556 49.3592 7.856ZM68.6732 25.616C68.6732 21.0773 68.3032 18.0187 67.5632 16.44C66.8726 14.812 65.4172 13.998 63.1972 13.998C61.0266 13.998 59.6206 14.812 58.9792 16.44C58.3379 18.0187 58.0172 21.0527 58.0172 25.542V27.318C58.0172 32.1033 58.3626 35.2607 59.0532 36.79C59.7932 38.27 61.2486 39.01 63.4192 39.01C65.6392 39.01 67.0699 38.2947 67.7112 36.864C68.3526 35.4333 68.6732 32.4733 68.6732 27.984V25.616ZM119.962 49H107.826L98.2796 27.614H97.6876V49H86.4396V3.046H98.9456L108.048 25.098H108.64V3.046H119.962V49ZM154.151 16.736C149.415 15.3053 145.937 14.59 143.717 14.59C141.546 14.59 140.041 15.552 139.203 17.476C138.413 19.4 138.019 22.4587 138.019 26.652C138.019 30.796 138.389 33.83 139.129 35.754C139.918 37.6287 141.497 38.566 143.865 38.566C144.555 38.566 145.887 38.3687 147.861 37.974V32.35H144.531V23.618H158.665V49H149.933L148.749 46.632H148.453C147.614 47.3227 146.948 47.8407 146.455 48.186C145.073 49.222 143.125 49.74 140.609 49.74C130.298 49.74 125.143 41.9453 125.143 26.356C125.143 18.5613 126.499 12.6167 129.213 8.522C131.926 4.378 136.489 2.306 142.903 2.306C148.033 2.306 152.449 3.09533 156.149 4.674L154.151 16.736ZM196.298 17.624C196.298 20.3867 195.878 22.6807 195.04 24.506C194.201 26.3313 192.894 27.984 191.118 29.464L197.26 49H183.57L178.982 32.424H177.28V49H164.848V3.046H182.016C186.949 3.046 190.55 4.20533 192.82 6.524C195.138 8.84267 196.298 12.5427 196.298 17.624ZM179.204 24.654C180.486 24.654 181.399 24.284 181.942 23.544C182.484 22.804 182.756 21.472 182.756 19.548C182.756 17.5747 182.484 16.218 181.942 15.478C181.399 14.6887 180.511 14.294 179.278 14.294H177.28V24.654H179.204ZM234.418 49H222.06L220.654 41.748H211.922L210.516 49H198.75L207.186 3.046H225.982L234.418 49ZM219.248 33.09L216.658 16.662H216.14L213.55 33.09H219.248ZM264.984 14.22H256.4V49H243.746V14.22H234.644L235.384 3.046H265.724L264.984 14.22ZM266.549 16.884C266.549 12.4933 267.832 8.966 270.397 6.302C272.963 3.638 276.465 2.306 280.905 2.306C285.395 2.306 289.983 2.75 294.669 3.638L293.189 15.478C288.305 14.3433 284.951 13.776 283.125 13.776C280.807 13.776 279.647 14.7133 279.647 16.588C279.647 17.328 280.19 18.0433 281.275 18.734C282.41 19.4247 283.767 20.1647 285.345 20.954C286.924 21.694 288.503 22.6067 290.081 23.692C291.66 24.728 292.992 26.2327 294.077 28.206C295.212 30.1793 295.779 32.4487 295.779 35.014C295.779 39.7007 294.521 43.3267 292.005 45.892C289.489 48.4573 285.913 49.74 281.275 49.74C276.687 49.74 272.198 49.0247 267.807 47.594L268.621 36.568C273.9 38.0973 277.575 38.862 279.647 38.862C281.719 38.862 282.755 37.9493 282.755 36.124C282.755 35.1867 282.188 34.3233 281.053 33.534C279.968 32.7447 278.636 31.9553 277.057 31.166C275.479 30.3767 273.875 29.464 272.247 28.428C270.669 27.392 269.312 25.8873 268.177 23.914C267.092 21.9407 266.549 19.5973 266.549 16.884ZM303.679 34.94L302.865 3.046H315.445L314.409 34.94H303.679ZM302.717 43.968C302.717 41.9947 303.235 40.5393 304.271 39.602C305.307 38.6153 306.96 38.122 309.229 38.122C311.499 38.122 313.151 38.6153 314.187 39.602C315.223 40.5393 315.741 42.044 315.741 44.116C315.741 47.9147 313.571 49.814 309.229 49.814C304.888 49.814 302.717 47.8653 302.717 43.968Z" fill="url(#paint0_linear)"/>
</g>
<defs>
<filter id="filter0_d" x="0.789673" y="2.30615" width="324.952" height="73.508" filterUnits="userSpaceOnUse" color-interpolation-filters="sRGB">
<feFlood flood-opacity="0" result="BackgroundImageFix"/>
<feColorMatrix in="SourceAlpha" type="matrix" values="0 0 0 0 0 0 0 0 0 0 0 0 0 0 0 0 0 0 127 0"/>
<feOffset dy="10"/>
<feGaussianBlur stdDeviation="5"/>
<feColorMatrix type="matrix" values="0 0 0 0 0.161572 0 0 0 0 0.0246944 0 0 0 0 0.0246944 0 0 0 0.2 0"/>
<feBlend mode="normal" in2="BackgroundImageFix" result="effect1_dropShadow"/>
<feBlend mode="normal" in="SourceGraphic" in2="effect1_dropShadow" result="shape"/>
</filter>
<linearGradient id="paint0_linear" x1="166.421" y1="3.87421" x2="166.421" y2="46.8428" gradientUnits="userSpaceOnUse">
<stop offset="0.508197" stop-color="#FEE871"/>
<stop offset="0.535912" stop-color="#FFD25F"/>
</linearGradient>
</defs>
</svg>
