<svg width="59" height="59" viewBox="0 0 59 59" fill="none" xmlns="http://www.w3.org/2000/svg">
<rect width="59" height="59" fill="white"/>
<path d="M27.4034 13.6729C27.0133 13.5747 21.0636 12.0685 17.9424 13.6729C14.8212 15.2446 13.4557 18.2243 12.903 20.9093C12.3503 23.5943 12.6429 25.5589 11.1474 26.4102C9.65181 27.2616 8.67645 29.2262 9.09911 31.2891C9.09911 31.2891 10.5296 30.7652 12.1878 32.2059C13.8459 33.6466 16.967 34.4325 21.1611 34.1705C25.3552 33.9086 30.4596 34.5307 33.8083 33.7121C37.1571 32.8935 36.8319 32.6316 36.8319 32.6316C36.8319 32.6316 37.0595 30.3068 35.6615 28.0802C34.296 25.8536 33.4182 24.5111 34.0684 22.4482C34.7187 20.3199 33.8408 15.0154 27.4034 13.6729Z" fill="black"/>
<path d="M27.7936 46.8108H17.7798C15.634 46.8108 13.8784 45.0426 13.8784 42.8815V37.1841C13.8784 35.023 13.2932 33.2549 15.439 33.2549H30.0694C32.2152 33.2549 31.695 35.023 31.695 37.1841V42.8815C31.695 45.0426 29.9394 46.8108 27.7936 46.8108Z" fill="#FAA435"/>
<path d="M22.2991 46.7451H20.1533V49.6921H22.2991V46.7451Z" fill="#FED1A7"/>
<path d="M22.3641 49.2993C21.5513 49.4303 20.9335 49.3976 20.1207 49.2666L18.9178 50.0852C18.9178 50.0852 17.1946 50.9693 17.2922 51.3622C17.3897 51.7551 21.9414 50.9693 21.9414 50.9693C21.9414 50.9693 22.6892 50.8383 22.5266 50.1507C22.3966 49.725 22.2665 49.6595 22.3641 49.2993Z" fill="#FAA435"/>
<path d="M26.168 46.7451H24.0222V49.6921H26.168V46.7451Z" fill="#FED1A7"/>
<path d="M23.9571 49.2993C24.7699 49.4303 25.3877 49.3976 26.2005 49.2666L27.4034 50.0852C27.4034 50.0852 29.1266 50.9693 29.029 51.3622C28.9315 51.7551 24.3798 50.9693 24.3798 50.9693C24.3798 50.9693 23.632 50.8383 23.7946 50.1507C23.9246 49.725 24.0547 49.6595 23.9571 49.2993Z" fill="#FAA435"/>
<path d="M31.76 41.7686H13.9434C13.4882 46.2217 15.0488 47.9571 17.7148 47.5969H27.7285C31.565 48.1536 31.8576 45.4686 31.76 41.7686Z" fill="#32AA85"/>
<path d="M14.0734 41.5063V34.2372C14.0734 33.4841 13.4557 33.5823 12.7079 33.5823C11.9601 33.5823 11.3424 34.2045 11.3424 34.9576V41.4736C11.2449 41.8992 10.6922 44.6825 10.9523 44.7807C11.1799 44.8789 11.4725 43.9294 11.5375 43.7001C11.4725 43.9621 11.2449 45.2718 11.4074 45.3701C11.6675 45.5338 11.9601 44.1258 12.0252 43.7984C11.9601 44.1586 11.7651 45.6975 12.0902 45.7303C12.4803 45.7303 12.5779 43.7329 12.5779 43.7329C12.5779 43.7329 12.6104 45.632 12.9355 45.5993C13.2606 45.5665 13.3907 43.1435 13.3907 43.1435C13.3907 43.1435 13.9434 44.3223 14.171 43.8639C14.236 43.5692 14.0734 41.5063 14.0734 41.5063Z" fill="#FED1A7"/>
<path d="M39.0753 27.8193C38.9127 27.6229 38.165 28.245 38.0024 28.4087C38.1975 28.2123 39.1078 27.2627 39.0103 27.099C38.8802 26.8043 37.8723 27.8193 37.6448 28.0813C37.9049 27.8193 38.9127 26.6078 38.6526 26.4441C38.3275 26.2149 37.1571 27.8521 37.1571 27.8521C37.1571 27.8521 38.165 26.2476 37.8724 26.0839C37.5797 25.9202 36.1492 27.8848 36.1492 27.8848C36.1492 27.8848 36.3118 26.5751 35.8891 26.837C35.629 26.968 34.6536 28.8016 34.6536 28.8016L30.6547 34.892C30.232 35.5141 30.8497 35.7106 31.4675 36.1362C32.0852 36.5619 32.963 36.3655 33.3532 35.7433L36.897 30.3079C37.2221 29.9804 39.2053 27.983 39.0753 27.8193Z" fill="#FED1A7"/>
<path d="M23.1768 17.5703C15.4714 17.5703 14.0734 19.6987 14.0734 26.4439V30.3076C14.0734 31.7484 15.2439 32.8944 16.6419 32.8944H29.1916C30.6221 32.8944 31.76 31.7156 31.76 30.3076V26.4439C31.825 17.5703 28.1512 17.5703 23.1768 17.5703Z" fill="#FED1A7"/>
<path d="M19.7631 27.4916C20.1857 27.4916 20.5108 27.1641 20.5108 26.7385C20.5108 26.3128 20.1857 25.9854 19.7631 25.9854C19.3404 25.9854 19.0153 26.3128 19.0153 26.7385C19.0153 27.1314 19.3404 27.4916 19.7631 27.4916Z" fill="#010101"/>
<path d="M32.8655 27.001C32.8655 25.9532 31.9551 25.7567 31.5 25.7894V28.4744C32.7354 28.278 32.9305 27.4266 32.8655 27.001Z" fill="#FED1A7"/>
<path d="M12.708 27.23C12.708 26.1494 13.6183 25.953 14.0735 25.9857V28.7689C12.838 28.5397 12.643 27.6557 12.708 27.23Z" fill="#FED1A7"/>
<path d="M25.8428 27.4916C26.2655 27.4916 26.5906 27.1641 26.5906 26.7385C26.5906 26.3128 26.2655 25.9854 25.8428 25.9854C25.4202 25.9854 25.0951 26.3128 25.0951 26.7385C25.0951 27.1314 25.4202 27.4916 25.8428 27.4916Z" fill="#010101"/>
<path d="M24.4773 29.4238H21.2586C21.5187 30.0787 21.7138 30.4389 22.9168 30.5371C23.8596 30.6026 24.3473 29.8168 24.4773 29.4238Z" fill="#F6AB9C"/>
<path d="M22.9493 35.6113C20.1207 35.6113 19.2429 33.7777 19.1454 32.8281H27.0458C26.8507 33.745 25.7778 35.6113 22.9493 35.6113Z" fill="#FDC895"/>
<path d="M22.8517 28.442C23.0468 28.442 23.2094 28.2783 23.2094 28.0819C23.2094 27.8854 23.0468 27.7217 22.8517 27.7217C22.6567 27.7217 22.4941 27.8854 22.4941 28.0819C22.4941 28.2783 22.6567 28.442 22.8517 28.442Z" fill="#FDC895"/>
<path d="M32.4428 18.8812C30.8497 17.4405 29.4191 18.2591 26.7206 15.9998C24.4773 14.1006 18.2025 13.2165 15.8291 15.3776C14.7887 16.3272 14.366 17.9644 14.8212 19.3396C15.6015 21.6972 17.8123 22.3193 19.9256 22.4175C22.4615 22.5485 25.0625 22.6467 27.2408 24.1529C28.6389 25.1025 30.1994 27.5583 32.0851 26.445C33.6782 25.4954 33.8408 20.0927 32.4428 18.8812Z" fill="black"/>
<path d="M39.2983 21.3749C38.9291 22.3044 38.8061 23.2958 38.683 24.2562C38.4985 25.8673 38.2831 27.5713 38.9291 29.0584C39.0522 29.3682 39.2368 29.678 39.2983 30.0188C39.3906 30.3596 39.3598 30.7314 39.1137 31.0103C38.7138 31.444 38.0063 31.2891 37.5141 30.9483C36.4374 30.1428 36.1297 28.6866 35.9452 27.3234C35.6991 25.1547 35.6068 22.986 35.7606 20.8173C35.7606 20.7243 35.7606 20.6004 35.8221 20.5384C35.8836 20.4455 36.0067 20.4145 36.099 20.3835C37.1757 20.1357 38.4062 20.5075 39.1752 21.313" fill="#FFCE3F"/>
<path d="M46.5275 8.89046C46.5275 8.89046 44.8355 11.0592 41.4209 11.4929C38.037 11.9267 37.9447 12.0196 36.0375 11.5859C34.1302 11.1521 32.5305 11.2761 31.2077 13.135C29.8542 15.0558 29.6696 17.5963 30.8693 19.2383C32.0691 20.8804 34.2225 21.0973 34.807 21.1592C35.3914 21.1902 36.6219 21.1282 38.8676 22.1196C41.0825 23.0801 43.2359 24.7841 43.9434 25.6516C44.6817 26.519 45.4508 27.2626 45.4508 27.2626C45.4508 27.2626 46.9889 25.8065 47.8503 22.0887C48.7116 18.3709 48.8039 13.2589 48.6809 12.7942C48.5886 12.2984 48.0656 7.99199 46.5275 8.89046Z" fill="#F68F6C"/>
<path d="M46.5274 8.88911C47.235 8.11456 48.0963 7.7118 49.0807 8.23849C49.5114 8.45536 49.8498 8.88911 50.0959 9.29187C51.2649 11.3057 51.3879 13.8772 51.3264 16.1388C51.2341 19.3299 50.465 22.4901 48.9884 25.3094C48.3732 26.4867 46.9274 28.5935 45.5123 27.1993C44.5586 26.2698 44.2202 24.6588 43.9741 23.3885C43.2974 19.7947 43.605 16.0459 44.6817 12.5449C44.9586 11.6465 45.6046 9.9115 46.5274 8.88911Z" fill="black"/>
<path d="M35.6683 11.4922C35.7913 11.5232 35.9144 11.5542 36.0374 11.5542C36.7142 11.7091 37.1756 11.802 37.6371 11.833C37.3295 12.2048 37.0526 12.6075 36.8065 13.0413C36.3451 13.9088 36.099 14.9621 35.9451 15.9226C35.7913 16.852 35.7913 17.7815 35.8529 18.7109C35.9144 19.5164 36.0682 20.322 36.3143 21.0655C36.3451 21.1275 36.3451 21.1895 36.3758 21.2514C35.6375 21.0965 35.1146 21.1275 34.8069 21.0965C34.7146 21.0965 34.5916 21.0655 34.4378 21.0655C34.3763 20.9416 34.3147 20.8177 34.284 20.7247C34.0686 20.229 33.9148 19.7333 33.8225 19.2066C33.5149 17.7815 33.5457 16.1704 33.8841 14.7453C34.1609 13.506 34.7146 12.2977 35.6683 11.4922Z" fill="black"/>
<path d="M43.9127 21.0963C44.8355 20.3528 46.5582 19.7951 47.6965 19.4233C47.758 19.3923 47.8195 19.3923 47.8503 19.3304C47.881 19.2994 47.881 19.2374 47.8503 19.1755C47.6657 17.9362 47.6657 16.604 48.1887 15.4886C46.9889 15.3027 45.5431 14.7451 44.6202 14.0635C44.5279 14.6211 44.4356 15.2098 44.3741 15.7675C44.2203 16.8828 44.0357 17.9982 44.0972 19.1135C44.128 19.7021 44.2203 20.2908 44.0357 20.8485" fill="#FFCE3F"/>
<path d="M47.3888 15.7978C47.6657 15.488 48.1271 15.333 48.4655 15.5809C48.6193 15.6738 48.7424 15.8597 48.8039 16.0456C49.1115 16.7582 49.05 17.6257 48.8347 18.3383C48.6809 18.834 48.3732 19.5466 47.7272 19.4226C47.0812 19.2987 46.8966 18.3693 46.8659 17.8426C46.8044 17.161 46.9582 16.4794 47.3273 15.8907C47.3273 15.8907 47.3581 15.8288 47.3888 15.7978Z" fill="white"/>
<path d="M44.6817 12.5762C43.6358 16.0771 43.2974 19.8259 43.9742 23.4198C44.2203 24.69 44.5279 26.3011 45.5123 27.2305C46.9581 28.6247 48.3732 26.487 48.9884 25.3407C50.4958 22.5213 51.2341 19.3612 51.3264 16.1701C51.3879 13.8774 51.2956 11.3369 50.0959 9.32312C49.8498 8.88937 49.5114 8.48661 49.0807 8.26974C48.0656 7.74305 47.2042 8.14581 46.5274 8.92036C45.6046 9.91177 44.9586 11.6467 44.6817 12.5762ZM46.9274 9.3541C47.5426 8.64152 48.2809 8.26974 49.1423 8.70348C49.5114 8.88937 49.7883 9.26115 50.0036 9.63293C50.988 11.4299 51.1726 13.9084 51.0803 15.9842C50.9265 18.8655 50.2189 22.1495 48.8654 24.721C48.3117 25.7744 47.0504 27.7262 45.8199 26.518C45.0201 25.7124 44.774 23.8226 44.5894 22.7072C44.0664 19.4541 44.4356 16.0771 45.3892 12.886C45.6661 12.0495 46.0968 10.3145 46.9274 9.3541Z" fill="white"/>
</svg>
