<svg width="85" height="78" viewBox="0 0 85 78" fill="none" xmlns="http://www.w3.org/2000/svg">
<g clip-path="url(#clip0)">
<mask id="mask0" mask-type="alpha" maskUnits="userSpaceOnUse" x="0" y="9" width="85" height="69">
<path d="M85 9.64331H0V77.4233H85V9.64331Z" fill="white"/>
</mask>
<g mask="url(#mask0)">
<g opacity="0.8">
<path opacity="0.8" d="M84.5841 34.0281C84.2875 31.6973 83.6944 29.436 82.8378 27.3488C76.643 12.1115 60.6622 11.8679 47.4161 17.2601C34.3678 22.5827 8.3041 16.9122 1.6152 36.7415C-7.94039 65.0591 36.9708 73.7911 51.8314 72.9213C61.8484 72.3647 72.689 67.4248 79.2132 57.4753C83.6944 50.6569 85.6056 41.8554 84.5841 34.0281Z" fill="#FCF7E8"/>
</g>
</g>
</g>
<g clip-path="url(#clip1)">
<path d="M51.0052 63.7988L51.4278 71.7379C51.47 72.25 51.5545 72.9757 52.5686 72.9757H53.5827H56.0757H56.8785C57.8926 72.9757 58.0193 72.25 58.0193 71.7379L58.4419 63.7988H51.0052Z" fill="#B7A48B"/>
<path d="M23.4559 63.7988L23.8785 71.7379C23.9207 72.25 24.0052 72.9757 25.0193 72.9757H26.0334H28.5264H29.3292C30.3433 72.9757 30.47 72.25 30.47 71.7379L30.8926 63.7988H23.4559Z" fill="#B7A48B"/>
<path d="M77.5405 40.8353C77.3292 40.4939 76.8644 40.3658 76.5264 40.6219C75.3855 41.3475 74.3292 42.3719 73.5264 43.567C72.8503 43.6097 72.132 43.8231 71.3714 44.25C71.2447 44.3353 71.1179 44.4207 70.9912 44.5061C68.5827 33.878 57.2165 25.811 43.4841 25.811C39.3433 25.811 35.4137 26.5366 31.8644 27.8597C22.6531 21.9268 15.6813 27.0914 15.6813 27.0914C15.6813 31.9146 17.1179 35.2439 19.0616 37.5488C16.8222 40.8353 15.5545 44.6341 15.5545 48.6463C15.5545 48.8171 15.5545 48.9451 15.5545 49.1158L12.301 50.311C11.794 50.4817 11.4982 51.0792 11.7095 51.5914L15.1743 61.4939C15.3433 62.0061 15.9348 62.3049 16.4419 62.0914L19.8644 60.8536C21.2588 62.6463 22.9489 64.2683 24.8926 65.6768L25.2729 72.7195C25.3151 73.2317 25.3996 73.9573 26.4137 73.9573H27.4278H29.9207H30.7236C31.7376 73.9573 31.8644 73.2317 31.8644 72.7195L32.0334 69.4756C35.5405 70.7561 39.4278 71.4817 43.5264 71.4817C47.625 71.4817 51.5123 70.7561 55.0193 69.4756L55.1884 72.7195C55.2306 73.2317 55.3151 73.9573 56.3292 73.9573H57.3433H59.8362H60.6391C61.6531 73.9573 61.7799 73.2317 61.7799 72.7195L62.1602 65.6768C67.8644 61.4939 71.456 55.4329 71.456 48.6463C71.456 47.7927 71.4137 46.9817 71.2869 46.1707C71.5405 45.9146 71.8362 45.7012 72.132 45.5305C72.301 45.4451 72.47 45.3597 72.6391 45.2744C72.5545 45.5731 72.5123 45.8719 72.47 46.2134C72.4278 47.2805 72.9771 48.4756 74.0334 48.7744C74.5827 48.9451 75.1743 48.7744 75.6813 48.3902C76.2729 47.878 76.6531 47.067 76.6109 46.2561C76.5686 45.2744 75.9348 44.3353 75.0898 43.8658C75.7236 43.0549 76.4841 42.3719 77.2869 41.8171C77.6672 41.6463 77.7517 41.1768 77.5405 40.8353ZM75.1743 46.3841C75.1743 46.6829 75.0475 47.067 74.794 47.2378C74.7095 47.2805 74.5827 47.3658 74.4982 47.3231C74.2447 47.2378 73.9912 46.7683 73.9912 46.2561C73.9912 45.9146 74.1179 45.5731 74.2869 45.1463C74.7095 45.3597 75.132 45.8292 75.1743 46.3841Z" fill="#FAA435"/>
<path d="M50.7095 32.4267C50.625 32.4267 50.4982 32.4267 50.4137 32.384C48.2165 31.7011 45.8926 31.3597 43.5264 31.3597C41.625 31.3597 39.7235 31.5731 37.9066 32.0426C37.3573 32.1706 36.8081 31.8292 36.639 31.2743C36.5123 30.7194 36.8503 30.1645 37.3996 29.9938C39.3855 29.5243 41.4559 29.2682 43.5264 29.2682C46.0616 29.2682 48.5968 29.6523 51.0052 30.3779C51.5545 30.5487 51.8503 31.1462 51.7235 31.7011C51.5545 32.1279 51.132 32.4267 50.7095 32.4267Z" fill="#051B33"/>
<path d="M27.7235 42.7561C27.7235 43.8659 26.8362 44.7622 25.7376 44.7622C24.639 44.7622 23.7517 43.8659 23.7517 42.7561C23.7517 41.6463 24.639 40.75 25.7376 40.75C26.8362 40.75 27.7235 41.6463 27.7235 42.7561Z" fill="#051B33"/>
</g>
<path d="M43.1552 15.1903C46.1897 14.0193 49.878 16.2563 51.3792 20.1732C52.8884 24.0981 51.6455 28.2249 48.611 29.3878C47.9088 29.6624 46.214 30.4377 46.214 30.4377C46.214 30.4377 41.541 27.4173 40.3869 24.405C39.2006 21.3119 40.7421 16.3048 40.7421 16.3048C40.7421 16.3048 42.5095 15.4326 43.1552 15.1903Z" fill="#DBB539"/>
<path d="M41.1933 16.0949C44.2279 14.9238 47.9162 17.1609 49.4173 21.0777C50.9265 25.0026 49.6836 29.1294 46.6491 30.2924C43.6145 31.4634 39.9262 29.2263 38.4251 25.3095C36.9158 21.3846 38.1587 17.2578 41.1933 16.0949Z" fill="#EDB539"/>
<path d="M41.758 17.9604C43.9129 17.1286 46.5762 18.8245 47.698 21.748C48.8198 24.6634 47.9805 27.7081 45.8256 28.5399C43.6708 29.3717 41.0074 27.6758 39.8856 24.7523C38.7638 21.8288 39.6031 18.7841 41.758 17.9604Z" fill="#DBB539"/>
<path opacity="0.45" d="M39.8858 24.7442C39.1029 22.7091 39.2805 20.6255 40.1844 19.2606C39.5468 20.6012 39.4903 22.4425 40.1763 24.2273C41.2981 27.1428 43.9534 28.8387 46.1163 28.015C46.7701 27.7646 47.3027 27.3043 47.6982 26.7147C47.2946 27.5627 46.6571 28.2169 45.8258 28.5318C43.6628 29.3556 41.0076 27.6677 39.8858 24.7442Z" fill="#DBB539"/>
<g opacity="0.45">
<path opacity="0.45" d="M43.3004 20.2944C43.5505 20.2702 43.7846 20.2863 44.0106 20.3348C44.2366 20.3832 44.4383 20.4559 44.6239 20.5528C44.8096 20.6497 44.9629 20.7628 45.1001 20.892C45.2292 21.0212 45.3261 21.1585 45.3826 21.3039C45.3987 21.3523 45.3987 21.4008 45.3826 21.4492C45.3664 21.4977 45.3342 21.53 45.2938 21.5462L44.3011 21.9015C44.2285 21.9257 44.172 21.9338 44.1155 21.9257C44.0671 21.9176 44.0106 21.9015 43.946 21.8692C43.9218 21.8611 43.8895 21.8369 43.8411 21.8127C43.7927 21.7884 43.7362 21.7642 43.6555 21.74C43.5828 21.7158 43.4941 21.7077 43.3891 21.7157C43.2842 21.7157 43.1712 21.74 43.0421 21.7884C42.9452 21.8207 42.8565 21.8611 42.7758 21.9096C42.6951 21.958 42.6224 22.0065 42.5659 22.063C42.5094 22.1195 42.4691 22.1842 42.4449 22.2568C42.4207 22.3295 42.4287 22.4022 42.4529 22.491C42.4852 22.5718 42.5336 22.6364 42.5982 22.6768C42.6628 22.7172 42.7677 22.7414 42.8968 22.7414C43.026 22.7495 43.1954 22.7414 43.3972 22.7172C43.599 22.6929 43.8492 22.6606 44.1558 22.6283C44.4545 22.588 44.7289 22.5799 44.971 22.6041C45.2131 22.6283 45.431 22.6849 45.6166 22.7737C45.8103 22.8625 45.9717 22.9998 46.1089 23.1613C46.2461 23.3309 46.3591 23.549 46.456 23.8074C46.5367 24.0416 46.577 24.2758 46.569 24.4939C46.5609 24.72 46.5044 24.93 46.4156 25.14C46.3269 25.3419 46.1897 25.5357 46.0202 25.7053C45.8507 25.8829 45.6489 26.0364 45.4149 26.1656L45.6247 26.7632C45.6489 26.8278 45.6489 26.8844 45.6247 26.9409C45.6005 26.9974 45.5601 27.0378 45.5036 27.062L44.511 27.4174C44.4545 27.4335 44.398 27.4335 44.3415 27.4012C44.285 27.3689 44.2446 27.3285 44.2204 27.2639L43.9944 26.6421C43.7281 26.6663 43.4779 26.6582 43.2439 26.6098C43.0098 26.5613 42.7919 26.4967 42.6063 26.3998C42.4126 26.3029 42.2512 26.1818 42.114 26.0445C41.9768 25.8991 41.8718 25.7457 41.8073 25.5761C41.7911 25.5276 41.7911 25.4791 41.8073 25.4307C41.8234 25.3822 41.8557 25.3499 41.8961 25.3338L42.8888 24.9784C42.9614 24.9542 43.0179 24.9461 43.0663 24.9461C43.1147 24.9542 43.1632 24.9623 43.2196 24.9946C43.2519 25.0107 43.2923 25.035 43.3488 25.0673C43.4053 25.0996 43.4779 25.1319 43.5667 25.1642C43.6555 25.1965 43.7523 25.2046 43.8734 25.2126C43.9944 25.2126 44.1236 25.1884 44.2769 25.1319C44.5432 25.035 44.7611 24.9219 44.9145 24.7927C45.0678 24.6635 45.1163 24.5181 45.0598 24.3485C45.0275 24.2678 44.971 24.2031 44.8822 24.1708C44.7934 24.1385 44.6804 24.1224 44.5271 24.1224C44.3818 24.1224 44.1962 24.1385 43.9702 24.1628C43.7523 24.1951 43.486 24.2193 43.1874 24.2516C42.6224 24.3162 42.1705 24.2435 41.8234 24.0416C41.4764 23.8397 41.2181 23.5005 41.0486 23.016C40.976 22.8222 40.9437 22.6203 40.9437 22.4103C40.9437 22.2084 40.976 22.0065 41.0486 21.8046C41.1213 21.6108 41.2262 21.425 41.3634 21.2473C41.5006 21.0697 41.6782 20.9082 41.8799 20.7709L41.6539 20.149C41.6297 20.0844 41.6297 20.0279 41.6539 19.9713C41.6782 19.9148 41.7185 19.8744 41.775 19.8502L42.7677 19.4949C42.8242 19.4787 42.8807 19.4787 42.9372 19.511C42.9937 19.5433 43.034 19.5837 43.0582 19.6483L43.3004 20.2944Z" fill="#DBB539"/>
</g>
<path d="M43.6066 20.1569C43.8568 20.1327 44.0909 20.1489 44.3168 20.1973C44.5428 20.2458 44.7446 20.3185 44.9302 20.4154C45.1158 20.5123 45.2692 20.6253 45.4064 20.7546C45.5355 20.8838 45.6324 21.0211 45.6889 21.1664C45.705 21.2149 45.705 21.2633 45.6889 21.3118C45.6727 21.3602 45.6404 21.3926 45.6001 21.4087L44.6074 21.764C44.5347 21.7883 44.4783 21.7963 44.4218 21.7883C44.3733 21.7802 44.3168 21.764 44.2523 21.7317C44.2281 21.7237 44.1958 21.6994 44.1474 21.6752C44.0989 21.651 44.0424 21.6268 43.9617 21.6025C43.8891 21.5783 43.8003 21.5702 43.6954 21.5783C43.5905 21.5783 43.4775 21.6025 43.3484 21.651C43.2515 21.6833 43.1627 21.7237 43.082 21.7721C43.0013 21.8206 42.9287 21.869 42.8722 21.9256C42.8157 21.9821 42.7753 22.0467 42.7511 22.1194C42.7269 22.1921 42.735 22.2648 42.7592 22.3536C42.7915 22.4343 42.8399 22.499 42.9045 22.5393C42.969 22.5797 43.074 22.6039 43.2031 22.6039C43.3322 22.612 43.5017 22.6039 43.7035 22.5797C43.9052 22.5555 44.1554 22.5232 44.4621 22.4909C44.7607 22.4505 45.0351 22.4424 45.2772 22.4667C45.5194 22.4909 45.7373 22.5474 45.9229 22.6363C46.1166 22.7251 46.278 22.8624 46.4152 23.0239C46.5524 23.1935 46.6654 23.4115 46.7622 23.67C46.8429 23.9042 46.8833 24.1384 46.8752 24.3564C46.8672 24.5826 46.8107 24.7925 46.7219 25.0025C46.6331 25.2044 46.4959 25.3982 46.3264 25.5678C46.1569 25.7455 45.9552 25.8989 45.7211 26.0281L45.931 26.6258C45.9552 26.6904 45.9552 26.7469 45.931 26.8034C45.9068 26.86 45.8664 26.9004 45.8099 26.9246L44.8172 27.2799C44.7607 27.2961 44.7042 27.2961 44.6477 27.2638C44.5912 27.2315 44.5509 27.1911 44.5267 27.1265L44.3007 26.5046C44.0344 26.5289 43.7842 26.5208 43.5501 26.4723C43.3161 26.4239 43.0982 26.3593 42.9126 26.2624C42.7189 26.1654 42.5574 26.0443 42.4202 25.907C42.283 25.7616 42.1781 25.6082 42.1136 25.4386C42.0974 25.3901 42.0974 25.3417 42.1136 25.2932C42.1297 25.2448 42.162 25.2125 42.2023 25.1963L43.195 24.841C43.2677 24.8168 43.3241 24.8087 43.3726 24.8087C43.421 24.8168 43.4694 24.8248 43.5259 24.8571C43.5582 24.8733 43.5986 24.8975 43.655 24.9298C43.7115 24.9621 43.7842 24.9944 43.873 25.0267C43.9617 25.059 44.0586 25.0671 44.1796 25.0752C44.3007 25.0752 44.4298 25.051 44.5832 24.9944C44.8495 24.8975 45.0674 24.7845 45.2208 24.6552C45.3741 24.526 45.4225 24.3807 45.366 24.2111C45.3337 24.1303 45.2772 24.0657 45.1885 24.0334C45.0997 24.0011 44.9867 23.9849 44.8334 23.9849C44.6881 23.9849 44.5025 24.0011 44.2765 24.0253C44.0586 24.0576 43.7923 24.0818 43.4936 24.1141C42.9287 24.1788 42.4767 24.1061 42.1297 23.9042C41.7827 23.7023 41.5244 23.3631 41.3549 22.8785C41.2823 22.6847 41.25 22.4828 41.25 22.2728C41.25 22.0709 41.2823 21.869 41.3549 21.6671C41.4275 21.4733 41.5325 21.2876 41.6697 21.1099C41.8069 20.9322 41.9844 20.7707 42.1862 20.6334L41.9602 20.0116C41.936 19.947 41.936 19.8904 41.9602 19.8339C41.9844 19.7774 42.0248 19.737 42.0813 19.7128L43.074 19.3574C43.1305 19.3413 43.1869 19.3413 43.2434 19.3736C43.2999 19.4059 43.3403 19.4462 43.3645 19.5109L43.6066 20.1569Z" fill="#FFD522"/>
<path d="M32.2676 0.895556C34.6001 1.92928 35.4071 5.21619 34.0674 8.22044C32.7277 11.2328 29.7577 12.8318 27.4252 11.79C26.8845 11.5477 25.5125 11.039 25.5125 11.039C25.5125 11.039 24.6005 6.77485 25.6255 4.45705C26.6827 2.08272 30.3145 0.160645 30.3145 0.160645C30.3145 0.160645 31.7753 0.677505 32.2676 0.895556Z" fill="#DBB539"/>
<path d="M30.6856 0.3144C33.018 1.34812 33.8251 4.63504 32.4854 7.63929C31.1456 10.6516 28.1756 12.2507 25.8432 11.2089C23.5108 10.1751 22.7037 6.88823 24.0435 3.88397C25.3751 0.879717 28.3532 -0.719322 30.6856 0.3144Z" fill="#EDB539"/>
<path d="M29.96 1.66317C31.6145 2.39808 32.1472 4.81279 31.1545 7.05791C30.1618 9.29495 28.0069 10.5144 26.3524 9.7795C24.698 9.04459 24.1653 6.62988 25.158 4.38477C26.1587 2.14773 28.3055 0.92826 29.96 1.66317Z" fill="#DBB539"/>
<path opacity="0.45" d="M25.1654 4.38468C25.8595 2.82602 27.1104 1.76 28.3694 1.50964C27.2718 1.89729 26.2226 2.89063 25.6093 4.26354C24.6166 6.50058 25.1492 8.91529 26.8037 9.65828C27.3041 9.88441 27.8529 9.92479 28.4017 9.81172C27.7076 10.054 26.9974 10.0702 26.3598 9.77942C24.6973 9.03643 24.1646 6.6298 25.1654 4.38468Z" fill="#DBB539"/>
<g opacity="0.45">
<path opacity="0.45" d="M29.5234 3.81117C29.6767 3.94039 29.7978 4.07768 29.8946 4.23112C29.9915 4.38456 30.0641 4.53801 30.1125 4.69145C30.161 4.84489 30.1852 4.99834 30.1852 5.1437C30.1852 5.28907 30.161 5.41829 30.1125 5.53135C30.0964 5.57173 30.0641 5.59596 30.0318 5.61211C29.9915 5.62826 29.9592 5.62826 29.9269 5.61211L29.1763 5.25677C29.1198 5.23254 29.0876 5.20024 29.0633 5.16793C29.0391 5.13563 29.0149 5.09525 28.9988 5.04679C28.9907 5.03064 28.9826 4.99834 28.9746 4.95796C28.9665 4.91758 28.9423 4.86912 28.91 4.81259C28.8777 4.75606 28.8374 4.7076 28.7809 4.65107C28.7244 4.59454 28.6437 4.54608 28.5468 4.49763C28.4742 4.46532 28.4015 4.43302 28.3289 4.41687C28.2563 4.39264 28.1917 4.38456 28.1271 4.38456C28.0626 4.38456 28.0061 4.39264 27.9577 4.42494C27.9092 4.44917 27.8608 4.49763 27.8366 4.56224C27.8043 4.62684 27.7962 4.68337 27.8204 4.74798C27.8366 4.80451 27.8769 4.8772 27.9496 4.94988C28.0222 5.02256 28.1191 5.1114 28.2401 5.21639C28.3693 5.3133 28.5226 5.44252 28.7082 5.58788C28.8939 5.73325 29.0472 5.87862 29.1763 6.02398C29.2974 6.16935 29.3862 6.32279 29.4427 6.47624C29.4992 6.62968 29.5153 6.79927 29.4992 6.96887C29.483 7.13846 29.4265 7.32421 29.3297 7.51803C29.249 7.69571 29.136 7.84107 29.0068 7.96221C28.8777 8.08335 28.7324 8.17219 28.563 8.22872C28.4015 8.29333 28.224 8.32563 28.0303 8.32563C27.8366 8.32563 27.6429 8.3014 27.4411 8.24487L27.2313 8.69712C27.2071 8.74558 27.1748 8.77788 27.1264 8.79403C27.078 8.81019 27.0376 8.81019 26.9972 8.79403L26.2467 8.43869C26.2063 8.42254 26.174 8.38216 26.1579 8.3337C26.1417 8.28525 26.1498 8.23679 26.166 8.18834L26.3839 7.71993C26.2225 7.59072 26.0853 7.44535 25.9803 7.28383C25.8754 7.13039 25.7947 6.96887 25.7382 6.81543C25.6817 6.65391 25.6575 6.50046 25.6656 6.34702C25.6656 6.19358 25.6979 6.04821 25.7544 5.919C25.7705 5.87862 25.8028 5.85439 25.8351 5.83824C25.8754 5.82208 25.9077 5.82208 25.94 5.83824L26.6906 6.19358C26.7471 6.21781 26.7793 6.25011 26.8035 6.27434C26.8278 6.30664 26.8439 6.33894 26.86 6.3874C26.8681 6.41163 26.8762 6.45201 26.8923 6.50047C26.9085 6.557 26.9246 6.61353 26.9569 6.67813C26.9892 6.74274 27.0376 6.80735 27.1022 6.87196C27.1667 6.93657 27.2555 7.00117 27.3685 7.04963C27.5703 7.14654 27.7478 7.20307 27.9092 7.21923C28.0706 7.23538 28.1756 7.17884 28.2321 7.04963C28.2643 6.98502 28.2643 6.92041 28.2321 6.85581C28.1998 6.7912 28.1433 6.71852 28.0626 6.62968C27.9819 6.54892 27.8689 6.45201 27.7317 6.34702C27.5945 6.24203 27.4331 6.11282 27.2474 5.95938C26.9004 5.68479 26.6825 5.39406 26.6098 5.08717C26.5291 4.78836 26.5776 4.44917 26.7471 4.08575C26.8197 3.94039 26.9085 3.81117 27.0215 3.69811C27.1344 3.58505 27.2636 3.49621 27.4169 3.42353C27.5622 3.35084 27.7236 3.31046 27.9012 3.28624C28.0787 3.27008 28.2563 3.27008 28.45 3.31046L28.6679 2.84206C28.6921 2.7936 28.7244 2.7613 28.7728 2.74515C28.8212 2.72899 28.8616 2.72899 28.9019 2.74515L29.6525 3.10049C29.6928 3.11664 29.7251 3.15702 29.7332 3.20548C29.7493 3.25393 29.7413 3.30239 29.7251 3.35084L29.5234 3.81117Z" fill="#DBB539"/>
</g>
<path d="M29.7664 3.9081C29.9197 4.03731 30.0408 4.1746 30.1376 4.32804C30.2345 4.48149 30.3071 4.63493 30.3556 4.78837C30.404 4.94182 30.4282 5.09526 30.4282 5.24063C30.4282 5.38599 30.404 5.51521 30.3556 5.62827C30.3394 5.66865 30.3071 5.69288 30.2748 5.70903C30.2345 5.72518 30.2022 5.72518 30.1699 5.70903L29.4194 5.35369C29.3629 5.32946 29.3306 5.29716 29.3064 5.26485C29.2822 5.23255 29.2579 5.19217 29.2418 5.14372C29.2337 5.12756 29.2257 5.09526 29.2176 5.05488C29.2095 5.0145 29.1853 4.96605 29.153 4.90951C29.1207 4.85298 29.0804 4.80453 29.0239 4.74799C28.9674 4.69146 28.8867 4.64301 28.7899 4.59455C28.7172 4.56225 28.6446 4.52994 28.5719 4.51379C28.4993 4.48956 28.4347 4.48149 28.3702 4.48149C28.3056 4.48149 28.2491 4.48956 28.2007 4.52187C28.1442 4.5461 28.1038 4.59455 28.0796 4.65916C28.0473 4.72377 28.0393 4.7803 28.0635 4.84491C28.0796 4.90144 28.12 4.97412 28.1926 5.04681C28.2653 5.11949 28.3621 5.20832 28.4832 5.31331C28.6123 5.41022 28.7656 5.53944 28.9513 5.6848C29.1369 5.83017 29.2902 5.97554 29.4194 6.12091C29.5404 6.26627 29.6292 6.41971 29.6857 6.57316C29.7422 6.7266 29.7583 6.8962 29.7422 7.06579C29.726 7.23539 29.6696 7.42113 29.5727 7.61496C29.492 7.79263 29.379 7.93799 29.2499 8.05913C29.1207 8.18027 28.9755 8.26911 28.806 8.32564C28.6446 8.39025 28.467 8.42255 28.2733 8.42255C28.0796 8.42255 27.8859 8.39832 27.6842 8.34179L27.4743 8.79404C27.4501 8.8425 27.4178 8.8748 27.3694 8.89096C27.321 8.90711 27.2806 8.90711 27.2403 8.89096L26.4897 8.53561C26.4494 8.51946 26.4171 8.47908 26.4009 8.43063C26.3848 8.38217 26.3929 8.33372 26.409 8.28526L26.6269 7.81685C26.4655 7.68764 26.3283 7.54227 26.2234 7.38075C26.1185 7.22731 26.0377 7.06579 25.9813 6.91235C25.9248 6.75083 25.9005 6.59739 25.9086 6.44394C25.9086 6.2905 25.9409 6.14513 25.9974 6.01592C26.0135 5.97554 26.0458 5.95131 26.0781 5.93516C26.1185 5.91901 26.1507 5.91901 26.183 5.93516L26.9336 6.2905C26.9901 6.31473 27.0224 6.34703 27.0466 6.37126C27.0708 6.40356 27.0869 6.43587 27.1031 6.48432C27.1111 6.50855 27.1192 6.54893 27.1354 6.59739C27.1515 6.65392 27.1676 6.71045 27.1999 6.77506C27.2322 6.83966 27.2806 6.90427 27.3452 6.96888C27.4098 7.03349 27.4985 7.0981 27.6115 7.14655C27.8133 7.24346 27.9908 7.29999 28.1523 7.31615C28.3137 7.3323 28.4186 7.27577 28.4751 7.14655C28.5074 7.08194 28.5074 7.01734 28.4751 6.95273C28.4428 6.88812 28.3863 6.81544 28.3056 6.7266C28.2249 6.64584 28.1119 6.54893 27.9747 6.44394C27.8375 6.33895 27.6761 6.20974 27.4905 6.0563C27.1434 5.78171 26.9255 5.49098 26.8529 5.1841C26.7722 4.88529 26.8206 4.54609 26.9901 4.18268C27.0627 4.03731 27.1515 3.9081 27.2645 3.79503C27.3775 3.68197 27.5066 3.59313 27.66 3.52045C27.8052 3.44777 27.9666 3.40739 28.1442 3.38316C28.3217 3.36701 28.4993 3.36701 28.693 3.40739L28.9109 2.93898C28.9351 2.89053 28.9674 2.85822 29.0158 2.84207C29.0643 2.82592 29.1046 2.82592 29.145 2.84207L29.8955 3.19741C29.9359 3.21356 29.9682 3.25394 29.9762 3.3024C29.9924 3.35086 29.9843 3.39931 29.9682 3.44777L29.7664 3.9081Z" fill="#FFD522"/>
<defs>
<clipPath id="clip0">
<rect y="10" width="85" height="67.538" fill="white"/>
</clipPath>
<clipPath id="clip1">
<rect x="11.625" y="25" width="66" height="49" fill="white"/>
</clipPath>
</defs>
</svg>
