<svg width="197" height="90" viewBox="0 0 197 90" fill="none" xmlns="http://www.w3.org/2000/svg">
<g clip-path="url(#clip0)">
<path d="M94.9035 5.48679C96.9015 3.75707 99.7408 2.18461 101.844 3.65224C102.685 4.28123 103.264 5.5392 104.42 5.74886C105.787 6.01094 107.207 4.64814 108.311 3.96673C110.94 2.34185 119.773 1.55562 118.827 6.90201C118.617 8.15998 117.46 9.10346 116.408 9.83728C110.151 13.9257 102.054 14.7119 95.0612 12.2484C93.8519 11.8291 92.5375 11.0953 92.2746 9.83728C92.0642 8.84138 92.6952 7.84549 93.3787 7.05925C93.6942 6.58751 94.2726 6.06336 94.9035 5.48679Z" fill="#DBB539"/>
<path d="M123.717 37.5117C121.93 35.7296 119.984 34.1047 117.934 32.5847C114.831 30.3308 112.255 27.5528 112.991 23.3595C113.412 21.1057 114.831 19.2711 116.041 17.3842C117.408 15.2351 118.827 13.1385 120.247 11.0419C120.878 10.1508 121.509 9.25975 121.93 8.21144C122.35 7.21554 122.561 6.11481 122.087 5.11892C121.614 4.17544 120.615 3.59887 119.564 3.49403C118.512 3.3892 117.46 3.54645 116.461 3.80853C114.779 4.22785 113.149 4.80442 111.519 5.48583C110.31 6.00998 108.732 5.95757 107.944 4.85684C107.576 4.33268 107.418 3.59887 107.05 3.07471C106.103 1.81674 104.105 2.07881 102.896 2.96988C101.687 3.86094 100.898 5.381 99.9517 6.58655C99.0052 7.79211 97.5856 8.89284 96.0608 8.63076C95.1144 8.47351 94.3257 7.79211 93.3793 7.58245C91.8019 7.16312 90.0668 7.94936 90.1194 9.83632C90.172 10.8846 90.6978 11.7757 91.3287 12.6143C92.9061 14.8682 94.7989 16.9648 96.2711 19.3235C97.2701 20.896 98.0588 22.6781 98.3743 24.5127C98.5846 25.6658 98.9001 26.9238 98.2691 27.9721C97.165 29.7542 94.8515 30.8025 93.2741 32.1129C91.539 33.5282 89.9091 35.1006 88.3843 36.7779C84.7563 40.8663 81.9171 45.5837 79.8665 50.6156C78.552 53.8654 77.553 57.2724 76.8695 60.6794C75.6076 67.0741 75.7653 74.3075 79.183 80.0732C82.18 85.0527 87.6482 87.7258 93.2741 88.6169C99.6362 89.6128 106.156 89.4556 112.571 89.0362C117.881 88.6693 123.56 88.25 127.818 84.6333C132.025 81.0691 134.338 75.6703 135.074 70.2715C136.336 60.9415 133.444 51.297 128.397 43.4871C127.03 41.3381 125.452 39.3463 123.717 37.5117Z" fill="#FFD522"/>
<path d="M113.254 29.022H97.7428C97.0066 29.022 96.3757 28.393 96.3757 27.6592C96.3757 26.9254 97.0066 26.2964 97.7428 26.2964H113.254C113.99 26.2964 114.621 26.9254 114.621 27.6592C114.621 28.4454 113.99 29.022 113.254 29.022Z" fill="#01213A"/>
<path d="M113.254 26.3486H97.7428C97.0066 26.3486 96.3757 25.7197 96.3757 24.9858C96.3757 24.252 97.0066 23.623 97.7428 23.623H113.254C113.99 23.623 114.621 24.252 114.621 24.9858C114.621 25.7197 113.99 26.3486 113.254 26.3486Z" fill="#01213A"/>
<path d="M113.254 23.6231H97.7428C97.0066 23.6231 96.3757 22.9941 96.3757 22.2603C96.3757 21.5264 97.0066 20.8975 97.7428 20.8975H113.254C113.99 20.8975 114.621 21.5264 114.621 22.2603C114.621 22.9941 113.99 23.6231 113.254 23.6231Z" fill="#01213A"/>
<path d="M111.413 27.8683C115.199 29.7029 117.407 33.372 119.458 36.8314C120.089 37.9321 121.824 36.9362 121.193 35.8355C118.932 32.114 116.513 28.1304 112.412 26.1386C111.939 25.9289 111.36 26.0338 111.045 26.5055C110.782 26.9248 110.94 27.6062 111.413 27.8683Z" fill="#01213A"/>
<path d="M110.992 27.7636C115.146 27.8685 118.722 30.332 122.034 32.5859C123.086 33.3197 124.085 31.59 123.033 30.8562C119.405 28.445 115.567 25.9291 110.992 25.8243C109.731 25.7718 109.731 27.7636 110.992 27.7636Z" fill="#01213A"/>
<path d="M106.891 47.8389C107.68 47.8389 108.364 48.4679 108.364 49.3065V50.0403C110.362 50.3024 112.044 50.9314 113.622 51.8749C114.147 52.1894 114.621 52.6611 114.621 53.4998C114.621 54.5481 113.779 55.3343 112.728 55.3343C112.412 55.3343 112.044 55.2295 111.729 55.0198C110.519 54.3384 109.415 53.8142 108.259 53.5522V59.9993C113.411 61.2573 115.567 63.3539 115.567 66.9181C115.567 70.6397 112.675 73.1032 108.364 73.4701V75.5143C108.364 76.3005 107.733 76.9819 106.891 76.9819C106.103 76.9819 105.419 76.353 105.419 75.5143V73.4177C102.895 73.1556 100.529 72.2121 98.4788 70.7969C97.9005 70.43 97.585 69.9058 97.585 69.172C97.585 68.1237 98.3737 67.3375 99.4253 67.3375C99.8459 67.3375 100.214 67.4947 100.529 67.7044C102.107 68.8575 103.684 69.6438 105.524 69.9583V63.3015C100.582 62.0435 98.2685 60.1565 98.2685 56.3826C98.2685 52.7659 101.16 50.3024 105.367 49.9355V49.2541C105.367 48.4679 106.05 47.8389 106.891 47.8389ZM105.524 59.3179V53.3425C103.369 53.5522 102.265 54.7053 102.265 56.1729C102.265 57.5882 102.895 58.4792 105.524 59.3179ZM108.206 63.9829V70.1155C110.362 69.8534 111.571 68.8051 111.571 67.1802C111.518 65.7126 110.782 64.8215 108.206 63.9829Z" fill="#EDB539"/>
<path d="M103.684 29.0742C103.684 29.0742 102.633 32.9006 103.211 37.4607" stroke="#DBB539" stroke-width="0.6" stroke-miterlimit="10"/>
<path d="M105.84 29.2842C105.84 29.2842 107.101 32.4291 106.891 33.8443" stroke="#DBB539" stroke-width="0.6" stroke-miterlimit="10"/>
<path d="M101.16 29.0215C101.16 29.0215 100.74 32.3761 99.8984 33.5292" stroke="#DBB539" stroke-width="0.6" stroke-miterlimit="10"/>
<path d="M78.6565 76.0908C78.6565 76.0908 84.2825 86.8884 92.958 86.6788" stroke="#DBB539" stroke-width="0.4833" stroke-miterlimit="10"/>
<path d="M110.677 20.8974C110.677 20.8974 111.361 18.2766 110.992 15.1841" stroke="#DBB539" stroke-width="0.4" stroke-miterlimit="10"/>
<path d="M109.257 20.74C109.257 20.74 108.416 18.5909 108.574 17.6475" stroke="#DBB539" stroke-width="0.4" stroke-miterlimit="10"/>
<path d="M112.412 20.9495C112.412 20.9495 112.675 18.6432 113.306 17.8569" stroke="#DBB539" stroke-width="0.4" stroke-miterlimit="10"/>
</g>
<g clip-path="url(#clip1)">
<path d="M131.506 24.696C133.047 23.3623 135.236 22.1497 136.858 23.2814C137.507 23.7664 137.953 24.7364 138.845 24.8981C139.899 25.1002 140.993 24.0493 141.845 23.5239C143.872 22.271 150.683 21.6647 149.953 25.7873C149.791 26.7573 148.899 27.4848 148.088 28.0507C143.264 31.2032 137.02 31.8095 131.628 29.9099C130.695 29.5865 129.682 29.0207 129.479 28.0507C129.317 27.2827 129.803 26.5148 130.33 25.9085C130.574 25.5448 131.02 25.1406 131.506 24.696Z" fill="#DBB539"/>
<path d="M153.725 49.3888C152.347 48.0146 150.847 46.7616 149.265 45.5895C146.873 43.8516 144.887 41.7094 145.454 38.4761C145.779 36.7381 146.873 35.3235 147.806 33.8685C148.86 32.2114 149.955 30.5947 151.049 28.978C151.536 28.2909 152.022 27.6038 152.347 26.7954C152.671 26.0275 152.833 25.1787 152.468 24.4108C152.103 23.6833 151.333 23.2387 150.522 23.1579C149.711 23.077 148.9 23.1983 148.13 23.4004C146.833 23.7237 145.576 24.1683 144.319 24.6937C143.387 25.0979 142.17 25.0575 141.562 24.2087C141.278 23.8046 141.157 23.2387 140.873 22.8345C140.143 21.8645 138.602 22.0666 137.67 22.7537C136.737 23.4408 136.129 24.6129 135.4 25.5425C134.67 26.4721 133.575 27.3209 132.399 27.1188C131.67 26.9975 131.061 26.4721 130.332 26.3104C129.115 25.9871 127.777 26.5934 127.818 28.0484C127.858 28.8567 128.264 29.5438 128.75 30.1905C129.967 31.9284 131.426 33.5451 132.562 35.3639C133.332 36.5764 133.94 37.9506 134.183 39.3652C134.345 40.2544 134.589 41.2244 134.102 42.0328C133.251 43.407 131.467 44.2153 130.251 45.2258C128.913 46.317 127.656 47.5296 126.48 48.8229C123.683 51.9755 121.493 55.613 119.912 59.4931C118.898 61.999 118.128 64.6261 117.601 67.2532C116.628 72.1841 116.75 77.7617 119.385 82.2076C121.696 86.0473 125.912 88.1086 130.251 88.7957C135.156 89.5636 140.184 89.4424 145.13 89.119C149.225 88.8361 153.604 88.5128 156.888 85.724C160.131 82.9756 161.915 78.8126 162.482 74.6496C163.456 67.4553 161.226 60.0185 157.333 53.9963C156.279 52.3392 155.063 50.8034 153.725 49.3888Z" fill="#FFD522"/>
<path d="M144.963 38.3843L144.963 38.3843C145.255 36.817 146.137 35.4876 146.943 34.272C147.094 34.0441 147.243 33.8202 147.384 33.5995C147.384 33.5993 147.385 33.599 147.385 33.5987L147.806 33.8685C148.86 32.2114 149.955 30.5947 151.049 28.978L144.963 38.3843ZM144.963 38.3843L144.962 38.3896M144.963 38.3843L144.962 38.3896M144.962 38.3896C144.341 41.9261 146.55 44.2344 148.969 45.9926C150.533 47.1515 152.011 48.3867 153.367 49.7377C154.683 51.1295 155.877 52.6386 156.912 54.2647L156.914 54.2677M144.962 38.3896L156.914 54.2677M156.914 54.2677C160.756 60.2129 162.941 67.531 161.987 74.5821L156.914 54.2677ZM150.473 23.6554C151.146 23.7225 151.744 24.0873 152.019 24.6302L161.987 74.5826C161.431 78.6613 159.688 82.6959 156.564 85.3425L156.564 85.3428C153.426 88.0078 149.223 88.335 145.096 88.6202C140.16 88.9428 135.177 89.0608 130.328 88.3017C126.08 87.6287 122.024 85.6212 119.814 81.9513C117.268 77.6544 117.131 72.22 118.091 67.3507C118.613 64.7526 119.374 62.156 120.375 59.6811C121.937 55.85 124.096 52.263 126.852 49.157C128.013 47.8804 129.251 46.6863 130.567 45.6132L130.567 45.6132L130.57 45.6104C130.952 45.2933 131.375 45.0085 131.829 44.7034C132.079 44.5357 132.337 44.362 132.603 44.1734C133.318 43.6654 134.046 43.0722 134.527 42.2961L134.527 42.2961L134.531 42.2906C134.842 41.7728 134.908 41.2192 134.885 40.7071C134.867 40.2914 134.786 39.8656 134.716 39.4926C134.702 39.4188 134.688 39.3471 134.676 39.2779C134.418 37.784 133.78 36.3495 132.985 35.0976C132.403 34.1656 131.741 33.2901 131.081 32.4403C130.964 32.289 130.847 32.1387 130.73 31.989C130.186 31.2917 129.653 30.6084 129.16 29.9038L129.155 29.8968L129.15 29.8899C128.679 29.2644 128.352 28.6799 128.318 28.0289C128.304 27.4824 128.538 27.1378 128.863 26.9396C129.211 26.7279 129.706 26.6615 130.203 26.7936L130.213 26.7963L130.223 26.7986C130.51 26.8622 130.781 26.9972 131.121 27.1665L131.142 27.1773C131.47 27.3404 131.867 27.537 132.316 27.6118C133.782 27.8629 135.041 26.8092 135.793 25.8512C136.021 25.5602 136.252 25.2258 136.474 24.9055C136.608 24.7113 136.739 24.5223 136.863 24.3511C137.215 23.8674 137.564 23.4532 137.967 23.1562C138.354 22.8708 138.874 22.685 139.36 22.6725C139.838 22.6603 140.227 22.8125 140.468 23.1286C140.571 23.2772 140.652 23.4648 140.756 23.7145L140.765 23.7352C140.86 23.9635 140.979 24.249 141.153 24.4961L141.153 24.4961L141.156 24.4999C141.963 25.6269 143.484 25.5993 144.515 25.1539C145.754 24.6359 146.985 24.201 148.251 23.8855L148.251 23.8856L148.257 23.884C148.995 23.6905 149.742 23.5826 150.473 23.6554Z" stroke="#FDC642" stroke-opacity="0.5"/>
<path d="M145.656 42.8434H133.696C133.128 42.8434 132.641 42.3584 132.641 41.7925C132.641 41.2267 133.128 40.7417 133.696 40.7417H145.656C146.223 40.7417 146.71 41.2267 146.71 41.7925C146.71 42.3988 146.223 42.8434 145.656 42.8434Z" fill="#01213A"/>
<path d="M145.656 40.7824H133.696C133.128 40.7824 132.641 40.2974 132.641 39.7315C132.641 39.1657 133.128 38.6807 133.696 38.6807H145.656C146.223 38.6807 146.71 39.1657 146.71 39.7315C146.71 40.2974 146.223 40.7824 145.656 40.7824Z" fill="#01213A"/>
<path d="M145.656 38.6808H133.696C133.128 38.6808 132.641 38.1958 132.641 37.63C132.641 37.0641 133.128 36.5791 133.696 36.5791H145.656C146.223 36.5791 146.71 37.0641 146.71 37.63C146.71 38.1958 146.223 38.6808 145.656 38.6808Z" fill="#01213A"/>
<path d="M144.237 41.9542C147.156 43.3688 148.859 46.198 150.44 48.8656C150.926 49.7143 152.264 48.9464 151.778 48.0976C150.034 45.228 148.169 42.1563 145.007 40.6204C144.642 40.4587 144.196 40.5396 143.953 40.9033C143.75 41.2267 143.872 41.7521 144.237 41.9542Z" fill="#01213A"/>
<path d="M143.912 41.8737C147.115 41.9545 149.872 43.8541 152.426 45.5921C153.237 46.1579 154.008 44.8241 153.197 44.2583C150.399 42.3991 147.44 40.4591 143.912 40.3782C142.939 40.3378 142.939 41.8737 143.912 41.8737Z" fill="#01213A"/>
<path d="M140.75 57.3535C141.358 57.3535 141.885 57.8385 141.885 58.4852V59.051C143.426 59.2531 144.723 59.7381 145.94 60.4657C146.345 60.7082 146.71 61.0719 146.71 61.7186C146.71 62.5269 146.061 63.1332 145.25 63.1332C145.007 63.1332 144.723 63.0524 144.48 62.8907C143.548 62.3653 142.696 61.9611 141.804 61.759V66.7303C145.777 67.7004 147.44 69.3171 147.44 72.0654C147.44 74.9351 145.21 76.8347 141.885 77.1176V78.6939C141.885 79.3002 141.399 79.8256 140.75 79.8256C140.142 79.8256 139.615 79.3406 139.615 78.6939V77.0772C137.669 76.8751 135.844 76.1476 134.263 75.0563C133.817 74.7734 133.574 74.3692 133.574 73.8034C133.574 72.995 134.182 72.3888 134.993 72.3888C135.317 72.3888 135.601 72.51 135.844 72.6717C137.061 73.5609 138.277 74.1671 139.696 74.4097V69.2766C135.885 68.3066 134.101 66.8516 134.101 63.9416C134.101 61.1528 136.331 59.2531 139.574 58.9702V58.4448C139.574 57.8385 140.101 57.3535 140.75 57.3535ZM139.696 66.2049V61.5973C138.034 61.759 137.182 62.6482 137.182 63.7799C137.182 64.8712 137.669 65.5582 139.696 66.2049ZM141.764 69.8021V74.5309C143.426 74.3288 144.358 73.5205 144.358 72.2675C144.318 71.1358 143.75 70.4488 141.764 69.8021Z" fill="#EDB539"/>
<path d="M138.277 42.8843C138.277 42.8843 137.466 45.8347 137.912 49.3511" stroke="#DBB539" stroke-width="0.6" stroke-miterlimit="10"/>
<path d="M139.939 43.0459C139.939 43.0459 140.912 45.4709 140.75 46.5622" stroke="#DBB539" stroke-width="0.6" stroke-miterlimit="10"/>
<path d="M136.331 42.8433C136.331 42.8433 136.006 45.43 135.358 46.3192" stroke="#DBB539" stroke-width="0.6" stroke-miterlimit="10"/>
<path d="M118.978 79.1382C118.978 79.1382 123.316 87.4642 130.006 87.3025" stroke="#DBB539" stroke-width="0.4833" stroke-miterlimit="10"/>
<path d="M143.669 36.5788C143.669 36.5788 144.196 34.558 143.912 32.1733" stroke="#DBB539" stroke-width="0.4" stroke-miterlimit="10"/>
<path d="M142.574 36.4574C142.574 36.4574 141.926 34.8003 142.047 34.0728" stroke="#DBB539" stroke-width="0.4" stroke-miterlimit="10"/>
<path d="M145.007 36.6195C145.007 36.6195 145.21 34.8411 145.696 34.2349" stroke="#DBB539" stroke-width="0.4" stroke-miterlimit="10"/>
</g>
<g clip-path="url(#clip2)">
<path d="M52.55 16.6229C54.2828 15.1227 56.7453 13.7589 58.5694 15.0318C59.299 15.5773 59.8006 16.6683 60.8039 16.8502C61.9895 17.0775 63.2208 15.8955 64.1784 15.3045C66.4585 13.8953 74.1196 13.2134 73.2988 17.8503C73.1163 18.9413 72.1131 19.7596 71.2011 20.3961C65.7745 23.9419 58.7518 24.6238 52.6868 22.4872C51.6379 22.1235 50.4979 21.4871 50.2699 20.3961C50.0875 19.5323 50.6347 18.6686 51.2275 17.9867C51.5011 17.5775 52.0027 17.1229 52.55 16.6229Z" fill="#DBB539"/>
<path d="M77.5405 44.3973C75.9901 42.8516 74.3028 41.4424 72.5243 40.124C69.8338 38.1692 67.5993 35.7599 68.2378 32.1231C68.6026 30.1683 69.8338 28.5772 70.8827 26.9406C72.0683 25.0767 73.2995 23.2583 74.5308 21.4399C75.078 20.6671 75.6252 19.8943 75.9901 18.9851C76.3549 18.1214 76.5373 17.1667 76.1269 16.303C75.7164 15.4847 74.85 14.9846 73.938 14.8937C73.0259 14.8028 72.1139 14.9391 71.2475 15.1664C69.7882 15.5301 68.3746 16.0302 66.9609 16.6212C65.9121 17.0758 64.544 17.0303 63.86 16.0757C63.5408 15.621 63.404 14.9846 63.0848 14.53C62.2639 13.439 60.5311 13.6663 59.4822 14.4391C58.4334 15.2119 57.7493 16.5303 56.9285 17.5758C56.1077 18.6214 54.8764 19.5761 53.554 19.3488C52.7332 19.2124 52.0491 18.6214 51.2283 18.4396C49.8602 18.0759 48.3554 18.7578 48.401 20.3944C48.4466 21.3036 48.9026 22.0764 49.4498 22.8037C50.8179 24.7585 52.4595 26.5769 53.7364 28.6226C54.6028 29.9864 55.2869 31.5321 55.5605 33.1232C55.7429 34.1233 56.0165 35.2143 55.4693 36.1235C54.5116 37.6692 52.5051 38.5784 51.1371 39.7149C49.6322 40.9423 48.2186 42.3061 46.8961 43.7608C43.7496 47.3067 41.2871 51.3981 39.5086 55.7623C38.3686 58.5808 37.5022 61.5357 36.9093 64.4906C35.8149 70.0368 35.9517 76.3103 38.9158 81.3109C41.5151 85.6296 46.2577 87.948 51.1371 88.7209C56.6549 89.5846 62.3095 89.4482 67.8729 89.0845C72.4787 88.7663 77.4037 88.4026 81.0975 85.2659C84.7456 82.1746 86.7521 77.4922 87.3905 72.8098C88.4849 64.7179 85.9768 56.3533 81.5991 49.5797C80.4134 47.7159 79.0454 45.9884 77.5405 44.3973Z" fill="#FFD522"/>
<path d="M67.7462 32.0313L67.7462 32.0313C68.0727 30.2821 69.056 28.7992 69.9628 27.4316C70.1333 27.1745 70.301 26.9215 70.4612 26.6715C70.4614 26.6713 70.4615 26.6711 70.4617 26.6708L70.8827 26.9406C72.0683 25.0767 73.2995 23.2583 74.5308 21.4399L67.7462 32.0313ZM67.7462 32.0313L67.7453 32.0366C67.0536 35.9766 69.5107 38.5522 72.2285 40.5272C73.9891 41.8324 75.6546 43.2238 77.1823 44.7462C78.665 46.3145 80.0113 48.0152 81.1772 49.8481L81.1791 49.8511C85.5072 56.5478 87.9701 64.794 86.895 72.7428C86.268 77.3409 84.3023 81.8949 80.7742 84.8844L80.7738 84.8848C77.2259 87.8976 72.4768 88.2653 67.8388 88.5857C62.2856 88.9487 56.6759 89.0818 51.2144 88.2269C46.4252 87.4681 41.8431 85.2035 39.3451 81.0546C36.47 76.2029 36.3176 70.0726 37.3998 64.5881C37.9868 61.6623 38.8445 58.7378 39.972 55.9503C41.7305 51.6352 44.1634 47.5942 47.2682 44.0949C48.5755 42.657 49.9706 41.3115 51.4531 40.1024L51.4531 40.1024L51.4566 40.0995C51.8881 39.741 52.3692 39.4176 52.8816 39.073C53.1615 38.8848 53.4508 38.6903 53.7465 38.4803C54.5498 37.91 55.3603 37.2487 55.8943 36.3869L55.8943 36.3869L55.8977 36.3814C56.2397 35.8131 56.3133 35.2041 56.288 34.6352C56.2674 34.1726 56.1777 33.699 56.0983 33.2794C56.0825 33.1959 56.0671 33.1145 56.0528 33.0358C55.7651 31.3653 55.0507 29.7593 54.1594 28.356C53.5068 27.3107 52.7641 26.3282 52.0223 25.3725C51.8904 25.2026 51.7586 25.0337 51.6274 24.8654C51.0157 24.0811 50.4151 23.311 49.8595 22.5171L49.8545 22.51L49.8494 22.5031C49.318 21.7969 48.9401 21.1267 48.9006 20.3749C48.8845 19.7376 49.1588 19.3287 49.5445 19.094C49.9524 18.8457 50.5267 18.7704 51.0998 18.9228L51.1099 18.9255L51.1202 18.9277C51.4505 19.0009 51.7612 19.1559 52.1398 19.3446L52.1681 19.3587C52.5372 19.5427 52.9764 19.7594 53.4707 19.8418C55.083 20.1181 56.4787 18.9585 57.3218 17.8846C57.5781 17.5582 57.8354 17.1858 58.0834 16.827C58.2347 16.6082 58.3824 16.3944 58.5243 16.1991C58.9207 15.6537 59.3176 15.1814 59.7788 14.8416C60.2244 14.5133 60.8215 14.2998 61.3818 14.2854C61.9339 14.2713 62.3932 14.4475 62.6803 14.8241C62.8007 14.9978 62.894 15.2156 63.011 15.4956L63.02 15.5171C63.1278 15.7751 63.2596 16.0908 63.4508 16.363L63.4508 16.363L63.4535 16.3669C64.3369 17.5997 66.0097 17.5771 67.1566 17.0813C68.5527 16.4978 69.9408 16.0074 71.3684 15.6516L71.3684 15.6516L71.3743 15.6501C72.208 15.4314 73.0565 15.3083 73.8884 15.3912C74.6626 15.4684 75.3573 15.8887 75.6775 16.5223L67.7462 32.0313Z" stroke="#FDC642" stroke-opacity="0.5"/>
<path d="M68.465 37.0343H55.0124C54.374 37.0343 53.8268 36.4888 53.8268 35.8524C53.8268 35.2159 54.374 34.6704 55.0124 34.6704H68.465C69.1034 34.6704 69.6506 35.2159 69.6506 35.8524C69.6506 36.5343 69.1034 37.0343 68.465 37.0343Z" fill="#01213A"/>
<path d="M68.465 34.716H55.0124C54.374 34.716 53.8268 34.1705 53.8268 33.534C53.8268 32.8976 54.374 32.3521 55.0124 32.3521H68.465C69.1034 32.3521 69.6506 32.8976 69.6506 33.534C69.6506 34.1705 69.1034 34.716 68.465 34.716Z" fill="#01213A"/>
<path d="M68.465 32.3522H55.0124C54.374 32.3522 53.8268 31.8067 53.8268 31.1702C53.8268 30.5338 54.374 29.9883 55.0124 29.9883H68.465C69.1034 29.9883 69.6506 30.5338 69.6506 31.1702C69.6506 31.8067 69.1034 32.3522 68.465 32.3522Z" fill="#01213A"/>
<path d="M66.8687 36.0343C70.152 37.6254 72.0673 40.8076 73.8458 43.808C74.393 44.7627 75.8978 43.8989 75.3506 42.9442C73.3897 39.7166 71.2921 36.2616 67.7351 34.5341C67.3247 34.3523 66.8231 34.4432 66.5495 34.8523C66.3215 35.216 66.4583 35.807 66.8687 36.0343Z" fill="#01213A"/>
<path d="M66.5039 35.9432C70.1065 36.0341 73.2074 38.1707 76.0803 40.1255C76.9923 40.7619 77.8588 39.2617 76.9467 38.6253C73.8002 36.5341 70.4713 34.3521 66.5039 34.2611C65.4095 34.2157 65.4095 35.9432 66.5039 35.9432Z" fill="#01213A"/>
<path d="M62.9471 53.3545C63.6311 53.3545 64.224 53.9 64.224 54.6274V55.2638C65.9568 55.4911 67.4161 56.0366 68.7841 56.8549C69.2402 57.1277 69.6506 57.5368 69.6506 58.2642C69.6506 59.1734 68.9209 59.8553 68.0089 59.8553C67.7353 59.8553 67.4161 59.7644 67.1425 59.5825C66.0936 58.9915 65.136 58.5369 64.1328 58.3096V63.9012C68.6017 64.9923 70.4714 66.8107 70.4714 69.902C70.4714 73.1296 67.9633 75.2663 64.224 75.5845V77.3574C64.224 78.0393 63.6767 78.6303 62.9471 78.6303C62.2631 78.6303 61.6703 78.0848 61.6703 77.3574V75.539C59.4814 75.3117 57.4293 74.4934 55.6508 73.266C55.1492 72.9478 54.8756 72.4932 54.8756 71.8568C54.8756 70.9476 55.5596 70.2657 56.4717 70.2657C56.8365 70.2657 57.1557 70.402 57.4293 70.5839C58.7974 71.584 60.1654 72.2659 61.7615 72.5387V66.7652C57.4749 65.6742 55.4684 64.0376 55.4684 60.7645C55.4684 57.6277 57.9765 55.4911 61.6247 55.1729V54.5819C61.6247 53.9 62.2175 53.3545 62.9471 53.3545ZM61.7615 63.3103V58.1278C59.8918 58.3096 58.9342 59.3098 58.9342 60.5827C58.9342 61.8101 59.4814 62.5829 61.7615 63.3103ZM64.0872 67.3562V72.675C65.9568 72.4477 67.0057 71.5385 67.0057 70.1293C66.9601 68.8564 66.3216 68.0836 64.0872 67.3562Z" fill="#EDB539"/>
<path d="M60.1654 37.0801C60.1654 37.0801 59.2534 40.3987 59.755 44.3537" stroke="#DBB539" stroke-width="0.6" stroke-miterlimit="10"/>
<path d="M62.0348 37.2617C62.0348 37.2617 63.1292 39.9893 62.9468 41.2167" stroke="#DBB539" stroke-width="0.6" stroke-miterlimit="10"/>
<path d="M57.9764 37.0342C57.9764 37.0342 57.6116 39.9436 56.882 40.9438" stroke="#DBB539" stroke-width="0.6" stroke-miterlimit="10"/>
<path d="M38.4589 77.8574C38.4589 77.8574 43.3383 87.2222 50.8626 87.0404" stroke="#DBB539" stroke-width="0.4833" stroke-miterlimit="10"/>
<path d="M66.2303 29.9883C66.2303 29.9883 66.8232 27.7153 66.504 25.0332" stroke="#DBB539" stroke-width="0.4" stroke-miterlimit="10"/>
<path d="M64.9991 29.8516C64.9991 29.8516 64.2695 27.9877 64.4063 27.1694" stroke="#DBB539" stroke-width="0.4" stroke-miterlimit="10"/>
<path d="M67.735 30.0337C67.735 30.0337 67.9631 28.0335 68.5103 27.3516" stroke="#DBB539" stroke-width="0.4" stroke-miterlimit="10"/>
</g>
<path d="M137.839 3.00019C140.892 2.32426 144.078 4.98065 144.94 8.91907C145.809 12.8655 144.041 16.6027 140.982 17.2707C140.272 17.4248 138.548 17.9203 138.548 17.9203C138.548 17.9203 134.548 14.376 133.874 11.3438C133.191 8.23233 135.377 3.69514 135.377 3.69514C135.377 3.69514 137.194 3.14299 137.839 3.00019Z" fill="#DBB539"/>
<path d="M135.855 3.57695C138.908 2.90103 142.094 5.55742 142.956 9.49584C143.825 13.4422 142.057 17.1795 138.998 17.8474C135.945 18.5233 132.759 15.867 131.896 11.9285C131.026 7.99599 132.802 4.25287 135.855 3.57695Z" fill="#EDB539"/>
<path d="M136.119 5.43555C138.286 4.95772 140.567 6.95302 141.22 9.89007C141.867 12.8191 140.628 15.5892 138.461 16.067C136.294 16.5448 134.013 14.5495 133.36 11.6125C132.721 8.67755 133.952 5.91338 136.119 5.43555Z" fill="#DBB539"/>
<path opacity="0.45" d="M133.368 11.6064C132.919 9.56385 133.379 7.60244 134.439 6.43998C133.638 7.62054 133.325 9.36353 133.718 11.1642C134.365 14.0932 136.646 16.0885 138.819 15.6187C139.477 15.478 140.048 15.1188 140.507 14.6082C139.998 15.3519 139.309 15.8842 138.469 16.061C136.288 16.5367 134.013 14.5494 133.368 11.6064Z" fill="#DBB539"/>
<g opacity="0.45">
<path opacity="0.45" d="M137.251 7.87247C137.496 7.88847 137.716 7.93591 137.923 8.01689C138.13 8.09788 138.313 8.19646 138.472 8.31266C138.632 8.42885 138.767 8.56265 138.873 8.70609C138.979 8.84952 139.049 8.99462 139.083 9.14139C139.096 9.19297 139.082 9.24035 139.062 9.27976C139.034 9.32504 139.002 9.34851 138.959 9.35605L137.96 9.55117C137.886 9.56834 137.831 9.55994 137.784 9.54567C137.736 9.5314 137.683 9.50916 137.632 9.47308C137.612 9.46302 137.581 9.43701 137.543 9.40303C137.506 9.36906 137.447 9.33885 137.374 9.30655C137.301 9.27424 137.226 9.25577 137.129 9.24107C137.032 9.22637 136.917 9.23723 136.787 9.25984C136.691 9.28078 136.596 9.30172 136.513 9.33859C136.424 9.3675 136.354 9.40648 136.29 9.45342C136.227 9.50037 136.177 9.54941 136.152 9.61649C136.122 9.67561 136.11 9.75863 136.133 9.83999C136.148 9.92721 136.181 9.98886 136.252 10.035C136.309 10.079 136.402 10.1214 136.526 10.1403C136.651 10.1592 136.811 10.1765 137.007 10.192C137.204 10.1938 137.45 10.2098 137.739 10.2182C138.027 10.2267 138.284 10.2586 138.517 10.3082C138.743 10.3636 138.942 10.4504 139.109 10.5608C139.276 10.6711 139.416 10.8267 139.523 11.0058C139.63 11.1849 139.71 11.4092 139.755 11.6709C139.805 11.9049 139.799 12.1304 139.76 12.3439C139.72 12.5573 139.641 12.7506 139.515 12.9296C139.403 13.1107 139.251 13.2717 139.06 13.4125C138.869 13.5533 138.66 13.6703 138.42 13.7612L138.542 14.36C138.553 14.4254 138.545 14.4808 138.509 14.5319C138.473 14.5831 138.433 14.6124 138.381 14.6258L137.383 14.8209C137.331 14.8343 137.27 14.818 137.219 14.7819C137.167 14.7458 137.14 14.6921 137.121 14.6326L136.995 14.012C136.742 14.0018 136.501 13.9582 136.28 13.8751C136.065 13.8 135.868 13.6993 135.701 13.5889C135.527 13.4706 135.392 13.3368 135.288 13.1796C135.177 13.0282 135.103 12.8613 135.065 12.6927C135.051 12.6411 135.065 12.5937 135.086 12.5543C135.114 12.509 135.146 12.4856 135.189 12.478L136.188 12.2829C136.261 12.2657 136.317 12.2741 136.358 12.2804C136.406 12.2947 136.445 12.3148 136.496 12.3509C136.522 12.369 136.559 12.4029 136.61 12.439C136.667 12.4831 136.724 12.5271 136.803 12.5674C136.882 12.6077 136.977 12.6362 137.087 12.653C137.198 12.6698 137.333 12.669 137.479 12.6347C137.749 12.5836 137.965 12.5103 138.136 12.4088C138.307 12.3074 138.37 12.1753 138.332 12.0068C138.316 11.9195 138.269 11.8558 138.191 11.8155C138.112 11.7752 138.003 11.7446 137.859 11.7156C137.721 11.6946 137.539 11.6812 137.327 11.6773C137.115 11.6735 136.862 11.6634 136.567 11.6469C136.025 11.6283 135.599 11.4999 135.304 11.2499C135.007 11.0138 134.808 10.6439 134.711 10.162C134.677 9.96579 134.671 9.77375 134.7 9.58003C134.729 9.38632 134.792 9.20478 134.891 9.02157C134.981 8.84422 135.111 8.68701 135.269 8.53401C135.432 8.38897 135.607 8.25987 135.828 8.15887L135.702 7.53826C135.691 7.47285 135.699 7.4175 135.735 7.36635C135.771 7.31521 135.811 7.28586 135.863 7.27246L136.862 7.07734C136.913 7.06394 136.974 7.0803 137.018 7.12225C137.069 7.15832 137.096 7.21201 137.115 7.27156L137.251 7.87247Z" fill="#DBB539"/>
</g>
<path d="M137.56 7.79191C137.805 7.80791 138.025 7.85535 138.232 7.93633C138.439 8.01732 138.622 8.11591 138.782 8.2321C138.941 8.34829 139.076 8.48209 139.182 8.62553C139.288 8.76896 139.358 8.91406 139.392 9.06083C139.406 9.11241 139.391 9.15979 139.371 9.1992C139.343 9.24448 139.311 9.26795 139.268 9.27549L138.269 9.47061C138.195 9.48778 138.14 9.47938 138.093 9.46511C138.045 9.45084 137.992 9.4286 137.941 9.39252C137.921 9.38245 137.89 9.35645 137.852 9.32247C137.815 9.2885 137.756 9.25829 137.683 9.22599C137.61 9.19368 137.535 9.17521 137.438 9.16051C137.341 9.1458 137.227 9.15667 137.096 9.17928C137.001 9.20022 136.905 9.22116 136.822 9.25803C136.733 9.28694 136.663 9.32592 136.599 9.37286C136.536 9.41981 136.486 9.46886 136.462 9.53594C136.423 9.60092 136.419 9.67807 136.442 9.75942C136.457 9.84665 136.49 9.9083 136.561 9.95444C136.618 9.99848 136.711 10.0409 136.835 10.0598C136.96 10.0787 137.12 10.0959 137.316 10.1115C137.514 10.1132 137.759 10.1292 138.048 10.1377C138.337 10.1461 138.594 10.1781 138.827 10.2276C139.052 10.283 139.251 10.3699 139.418 10.4802C139.586 10.5905 139.725 10.7461 139.832 10.9252C139.94 11.1043 140.019 11.3286 140.064 11.5903C140.114 11.8243 140.108 12.0499 140.069 12.2633C140.029 12.4767 139.951 12.67 139.825 12.849C139.712 13.0301 139.561 13.1911 139.369 13.3319C139.178 13.4728 138.97 13.5897 138.729 13.6806L138.851 14.2794C138.862 14.3449 138.854 14.4002 138.818 14.4513C138.782 14.5025 138.742 14.5318 138.691 14.5452L137.692 14.7404C137.64 14.7538 137.579 14.7374 137.528 14.7013C137.477 14.6652 137.449 14.6116 137.43 14.552L137.304 13.9314C137.051 13.9213 136.81 13.8776 136.589 13.7945C136.374 13.7194 136.177 13.6187 136.01 13.5084C135.837 13.3901 135.701 13.2563 135.598 13.099C135.486 12.9476 135.412 12.7807 135.374 12.6121C135.36 12.5605 135.375 12.5132 135.395 12.4738C135.423 12.4285 135.455 12.405 135.498 12.3975L136.497 12.2023C136.571 12.1852 136.626 12.1936 136.667 12.1999C136.715 12.2141 136.754 12.2343 136.805 12.2704C136.831 12.2884 136.868 12.3224 136.92 12.3585C136.977 12.4025 137.034 12.4465 137.112 12.4868C137.191 12.5271 137.286 12.5556 137.397 12.5724C137.507 12.5892 137.642 12.5884 137.789 12.5541C138.058 12.503 138.274 12.4297 138.445 12.3283C138.616 12.2268 138.679 12.0948 138.641 11.9262C138.626 11.839 138.579 11.7752 138.5 11.735C138.421 11.6947 138.312 11.664 138.168 11.6351C138.03 11.6141 137.848 11.6006 137.636 11.5968C137.424 11.5929 137.171 11.5828 136.876 11.5664C136.334 11.5478 135.908 11.4193 135.613 11.1693C135.316 10.9332 135.117 10.5633 135.02 10.0815C134.986 9.88524 134.98 9.69318 135.009 9.49947C135.039 9.30575 135.101 9.12422 135.2 8.941C135.29 8.76366 135.42 8.60645 135.578 8.45345C135.741 8.30841 135.917 8.17932 136.137 8.07832L136.011 7.4577C136 7.39229 136.008 7.33694 136.044 7.28579C136.081 7.23465 136.12 7.2053 136.172 7.1919L137.171 6.99678C137.222 6.98338 137.284 6.99975 137.327 7.04169C137.378 7.07777 137.405 7.13145 137.425 7.191L137.56 7.79191Z" fill="#FFD522"/>
<path d="M20.9549 7.03653C23.113 9.29937 22.4885 13.4004 19.5645 16.1762C16.6367 18.9612 12.5239 19.3821 10.3696 17.1102C9.87049 16.5826 8.55454 15.364 8.55454 15.364C8.55454 15.364 9.5177 10.1069 11.7638 7.96129C14.0729 5.76675 19.0866 5.28974 19.0866 5.28974C19.0866 5.28974 20.4993 6.55906 20.9549 7.03653Z" fill="#DBB539"/>
<path d="M19.4346 5.6373C21.5927 7.90014 20.9681 12.0012 18.0442 14.777C15.1164 17.562 11.0036 17.9829 8.84926 15.7109C6.69117 13.4481 7.31572 9.34707 10.2397 6.57122C13.1545 3.79159 17.2765 3.37446 19.4346 5.6373Z" fill="#EDB539"/>
<path d="M17.9808 6.82525C19.5108 8.43225 18.9838 11.4168 16.8083 13.4952C14.6366 15.5645 11.6248 15.9371 10.0948 14.3301C8.56471 12.7231 9.09177 9.73848 11.2673 7.66008C13.4481 5.5946 16.4507 5.21826 17.9808 6.82525Z" fill="#DBB539"/>
<path opacity="0.45" d="M11.2767 7.66391C12.7926 6.22328 14.7087 5.60138 16.252 5.90719C14.8272 5.83246 13.1738 6.46649 11.8362 7.73449C9.66454 9.80375 9.13748 12.7883 10.6638 14.4045C11.1247 14.8949 11.7274 15.1975 12.402 15.3264C11.5024 15.2759 10.6903 14.9617 10.1042 14.3339C8.56882 12.714 9.0921 9.73853 11.2767 7.66391Z" fill="#DBB539"/>
<g opacity="0.45">
<path opacity="0.45" d="M16.4816 9.05431C16.5948 9.27247 16.6676 9.48466 16.7055 9.70381C16.7434 9.92296 16.7538 10.1308 16.7368 10.3273C16.7199 10.5237 16.6755 10.7089 16.6074 10.8735C16.5393 11.0382 16.4514 11.1732 16.3437 11.2786C16.3065 11.3168 16.2586 11.3291 16.2144 11.3323C16.1612 11.3317 16.1246 11.3166 16.0956 11.2832L15.4117 10.5293C15.3591 10.4754 15.3376 10.4237 15.3253 10.3758C15.313 10.3279 15.3045 10.2708 15.3089 10.2084C15.3073 10.1863 15.3133 10.1459 15.3231 10.0964C15.3328 10.0469 15.3281 9.98066 15.318 9.90151C15.3079 9.82237 15.2848 9.74859 15.2473 9.6581C15.2098 9.56762 15.1411 9.47495 15.054 9.37473C14.9869 9.30413 14.9197 9.23353 14.845 9.18123C14.7741 9.11979 14.7047 9.08041 14.6316 9.05019C14.5584 9.01996 14.4907 9.00266 14.4207 9.01659C14.3545 9.02136 14.277 9.05358 14.2193 9.11543C14.1525 9.1735 14.1169 9.23375 14.1141 9.31827C14.1059 9.38986 14.1176 9.49108 14.1658 9.60742C14.2141 9.72376 14.2822 9.86972 14.3702 10.0453C14.4711 10.2155 14.5843 10.4337 14.7265 10.6853C14.8687 10.9368 14.9743 11.1733 15.0526 11.3984C15.1216 11.6197 15.1504 11.8351 15.1425 12.0354C15.1347 12.2356 15.0736 12.4353 14.9759 12.6198C14.8782 12.8044 14.7273 12.9883 14.5268 13.1625C14.3522 13.326 14.1562 13.4378 13.9532 13.5145C13.7502 13.5913 13.5441 13.6239 13.3256 13.6086C13.1126 13.6063 12.8963 13.5597 12.6769 13.469C12.4575 13.3784 12.2494 13.2602 12.0474 13.1018L11.5979 13.5158C11.5478 13.5594 11.4961 13.5808 11.4337 13.5765C11.3713 13.5721 11.3256 13.5532 11.2875 13.516L10.6036 12.7621C10.5654 12.7249 10.5478 12.6641 10.5522 12.6016C10.5566 12.5392 10.5884 12.4881 10.6294 12.4408L11.0955 12.0122C10.9731 11.7903 10.8858 11.5614 10.8425 11.3293C10.7955 11.1064 10.7797 10.8856 10.7876 10.6854C10.7992 10.476 10.8436 10.2908 10.9246 10.1208C10.9964 9.94696 11.101 9.79742 11.2255 9.6775C11.2627 9.63931 11.3106 9.62698 11.3547 9.6238C11.408 9.6244 11.4446 9.63951 11.4736 9.67292L12.1574 10.4268C12.2101 10.4807 12.2315 10.5324 12.2476 10.5712C12.2599 10.6191 12.2631 10.6633 12.2587 10.7257C12.2565 10.7569 12.2467 10.8064 12.2423 10.8689C12.2341 10.9405 12.226 11.0121 12.2323 11.1004C12.2386 11.1887 12.2632 11.2845 12.3061 11.3879C12.349 11.4913 12.4193 11.6061 12.5246 11.7138C12.7078 11.9181 12.8824 12.0652 13.0577 12.1591C13.233 12.253 13.3783 12.238 13.5028 12.1181C13.5696 12.0601 13.5999 11.9869 13.5935 11.8986C13.5872 11.8103 13.5572 11.7015 13.5074 11.5631C13.4538 11.4338 13.3712 11.2712 13.2649 11.088C13.1587 10.9049 13.0363 10.6829 12.8979 10.4222C12.6333 9.94872 12.5226 9.51737 12.584 9.13575C12.6324 8.75949 12.8461 8.39795 13.2082 8.06564C13.3585 7.93498 13.5196 7.83017 13.7005 7.755C13.8814 7.67982 14.0693 7.63964 14.277 7.6291C14.4756 7.61477 14.6773 7.6446 14.8898 7.70028C15.0985 7.7651 15.2996 7.84823 15.5001 7.98464L15.9662 7.55607C16.0163 7.51252 16.068 7.49104 16.1304 7.49541C16.1928 7.49979 16.2385 7.51868 16.2767 7.55587L16.9605 8.30975C16.9987 8.34694 17.0164 8.40779 17.0028 8.46646C16.9984 8.5289 16.9666 8.58001 16.9256 8.62734L16.4816 9.05431Z" fill="#DBB539"/>
</g>
<path d="M16.7101 9.27745C16.8233 9.49561 16.8962 9.7078 16.9341 9.92695C16.9719 10.1461 16.9824 10.3539 16.9654 10.5504C16.9484 10.7469 16.904 10.932 16.836 11.0967C16.7679 11.2613 16.68 11.3964 16.5722 11.5018C16.535 11.54 16.4871 11.5523 16.443 11.5555C16.3897 11.5549 16.3531 11.5398 16.3241 11.5064L15.6403 10.7525C15.5876 10.6986 15.5662 10.6469 15.5539 10.5989C15.5416 10.551 15.5331 10.4939 15.5375 10.4315C15.5359 10.4094 15.5419 10.3691 15.5516 10.3195C15.5614 10.27 15.5566 10.2038 15.5465 10.1247C15.5364 10.0455 15.5134 9.97173 15.4759 9.88124C15.4384 9.79076 15.3696 9.69809 15.2826 9.59787C15.2155 9.52727 15.1483 9.45668 15.0736 9.40438C15.0026 9.34293 14.9333 9.30355 14.8602 9.27333C14.787 9.2431 14.7192 9.2258 14.6493 9.23972C14.5739 9.24072 14.5055 9.27672 14.4479 9.33857C14.3811 9.39664 14.3454 9.45689 14.3426 9.54141C14.3344 9.613 14.3461 9.71423 14.3944 9.83056C14.4426 9.9469 14.5107 10.0929 14.5987 10.2685C14.6996 10.4387 14.8128 10.6568 14.955 10.9084C15.0973 11.16 15.2029 11.3964 15.2811 11.6215C15.3502 11.8429 15.3789 12.0582 15.3711 12.2585C15.3633 12.4587 15.3021 12.6584 15.2045 12.843C15.1068 13.0275 14.9558 13.2115 14.7554 13.3857C14.5808 13.5492 14.3848 13.6609 14.1818 13.7377C13.9788 13.8144 13.7726 13.8471 13.5542 13.8318C13.3411 13.8294 13.1249 13.7829 12.9055 13.6922C12.6861 13.6015 12.478 13.4834 12.2759 13.3249L11.8265 13.7389C11.7764 13.7825 11.7247 13.804 11.6623 13.7996C11.5999 13.7952 11.5542 13.7763 11.516 13.7392L10.8322 12.9853C10.794 12.9481 10.7764 12.8872 10.7808 12.8248C10.7852 12.7623 10.817 12.7112 10.8579 12.6639L11.3241 12.2353C11.2017 12.0134 11.1144 11.7845 11.0711 11.5524C11.0241 11.3295 11.0083 11.1088 11.0161 10.9085C11.0278 10.6991 11.0722 10.5139 11.1532 10.3439C11.225 10.1701 11.3296 10.0206 11.4541 9.90064C11.4913 9.86246 11.5392 9.85013 11.5833 9.84694C11.6366 9.84754 11.6731 9.86265 11.7022 9.89606L12.386 10.6499C12.4387 10.7038 12.4601 10.7555 12.4762 10.7943C12.4885 10.8422 12.4916 10.8864 12.4872 10.9488C12.485 10.9801 12.4753 11.0296 12.4709 11.092C12.4627 11.1636 12.4545 11.2352 12.4609 11.3235C12.4672 11.4118 12.4918 11.5076 12.5347 11.6111C12.5776 11.7145 12.6479 11.8292 12.7532 11.937C12.9364 12.1412 13.111 12.2884 13.2863 12.3822C13.4616 12.4761 13.6069 12.4612 13.7314 12.3413C13.7982 12.2832 13.8284 12.21 13.8221 12.1217C13.8158 12.0334 13.7858 11.9246 13.736 11.7862C13.6824 11.657 13.5997 11.4943 13.4935 11.3111C13.3872 11.128 13.2649 10.9061 13.1264 10.6453C12.8619 10.1719 12.7512 9.74052 12.8125 9.35889C12.861 8.98264 13.0746 8.62109 13.4368 8.28878C13.5871 8.15812 13.7482 8.05332 13.9291 7.97814C14.11 7.90296 14.2978 7.86278 14.5056 7.85224C14.7041 7.83792 14.9059 7.86774 15.1184 7.92342C15.327 7.98824 15.5282 8.07136 15.7287 8.20778L16.1948 7.77921C16.2449 7.73566 16.2966 7.71418 16.359 7.71856C16.4214 7.72293 16.4671 7.74182 16.5053 7.77901L17.1891 8.53289C17.2273 8.57007 17.2449 8.63093 17.2314 8.6896C17.227 8.75204 17.1951 8.80314 17.1542 8.85048L16.7101 9.27745Z" fill="#FFD522"/>
<path d="M179.897 10.4304C183.257 8.17825 188.346 9.87752 191.24 14.2156C194.145 18.5606 193.775 23.8952 190.405 26.1406C189.623 26.6605 187.78 28.0693 187.78 28.0693C187.78 28.0693 181.292 25.6838 179.052 22.3485C176.763 18.9221 177.26 12.4269 177.26 12.4269C177.26 12.4269 179.188 10.9059 179.897 10.4304Z" fill="#DBB539"/>
<path d="M177.78 12.0596C181.139 9.80744 186.228 11.5067 189.122 15.8448C192.027 20.1897 191.658 25.5244 188.287 27.7697C184.928 30.0219 179.839 28.3226 176.945 23.9845C174.044 19.6572 174.42 14.3118 177.78 12.0596Z" fill="#EDB539"/>
<path d="M178.973 14.1745C181.359 12.5783 185.046 13.9074 187.216 17.138C189.375 20.3616 189.187 24.2823 186.802 25.8785C184.416 27.4746 180.729 26.1455 178.559 22.915C176.406 19.6805 176.588 15.7706 178.973 14.1745Z" fill="#DBB539"/>
<path opacity="0.45" d="M178.565 22.9034C177.063 20.654 176.693 18.075 177.422 16.1753C177.013 17.9747 177.457 20.2218 178.779 22.2058C180.938 25.4295 184.626 26.7586 187.022 25.1693C187.748 24.6898 188.267 23.9882 188.579 23.1568C188.317 24.2923 187.738 25.2581 186.808 25.8668C184.405 27.467 180.728 26.1447 178.565 22.9034Z" fill="#DBB539"/>
<g opacity="0.45">
<path opacity="0.45" d="M181.484 16.5764C181.787 16.4801 182.074 16.434 182.361 16.434C182.649 16.434 182.916 16.4665 183.163 16.5314C183.41 16.5963 183.636 16.6937 183.831 16.8167C184.026 16.9397 184.178 17.0815 184.289 17.2421C184.329 17.2979 184.335 17.3616 184.329 17.4186C184.316 17.4864 184.289 17.5296 184.24 17.5592L183.129 18.2648C183.048 18.32 182.978 18.336 182.914 18.3411C182.85 18.3462 182.776 18.3445 182.697 18.3252C182.668 18.3223 182.618 18.3058 182.557 18.2824C182.496 18.2591 182.411 18.2506 182.308 18.246C182.205 18.2414 182.106 18.2545 181.982 18.2824C181.858 18.3103 181.725 18.3775 181.578 18.4664C181.473 18.5364 181.369 18.6065 181.286 18.6902C181.192 18.767 181.126 18.8468 181.072 18.9333C181.017 19.0199 180.98 19.1024 180.982 19.1947C180.974 19.2801 180.998 19.386 181.064 19.4732C181.123 19.5711 181.192 19.6298 181.299 19.652C181.389 19.6782 181.52 19.6856 181.679 19.6497C181.838 19.6138 182.039 19.5592 182.282 19.4857C182.522 19.3946 182.824 19.2984 183.176 19.1725C183.528 19.0467 183.853 18.9641 184.157 18.914C184.454 18.8747 184.735 18.8855 184.989 18.9396C185.242 18.9937 185.483 19.1156 185.697 19.2807C185.911 19.4459 186.112 19.6788 186.29 19.9726C186.46 20.2311 186.559 20.5056 186.612 20.7812C186.665 21.0568 186.661 21.3268 186.594 21.6018C186.544 21.8729 186.437 22.1382 186.273 22.3979C186.109 22.6576 185.913 22.8967 185.666 23.1194L186.095 23.7834C186.139 23.8568 186.155 23.9274 186.136 24.006C186.117 24.0846 186.083 24.1387 186.027 24.1791L184.915 24.8847C184.86 24.9251 184.778 24.9342 184.7 24.9149C184.621 24.8955 184.563 24.8437 184.511 24.7811L184.068 24.0926C183.758 24.1997 183.447 24.2606 183.142 24.2646C182.847 24.2754 182.563 24.2469 182.309 24.1928C182.045 24.1319 181.818 24.0345 181.62 23.8938C181.414 23.764 181.246 23.5977 181.121 23.4127C181.08 23.3568 181.075 23.2931 181.081 23.2361C181.093 23.1684 181.121 23.1251 181.17 23.0955L182.281 22.3899C182.361 22.3347 182.432 22.3187 182.485 22.3068C182.549 22.3017 182.606 22.3073 182.684 22.3267C182.724 22.3364 182.785 22.3597 182.863 22.3791C182.953 22.4053 183.042 22.4315 183.156 22.4429C183.27 22.4543 183.398 22.444 183.539 22.4121C183.68 22.3802 183.842 22.3159 184.002 22.2054C184.303 22.0169 184.529 21.8267 184.687 21.624C184.846 21.4213 184.859 21.2328 184.733 21.0477C184.674 20.9498 184.587 20.8951 184.473 20.8837C184.359 20.8723 184.214 20.8866 184.027 20.9196C183.85 20.9595 183.625 21.0289 183.368 21.124C183.111 21.2191 182.801 21.3262 182.438 21.4452C181.777 21.6781 181.202 21.7242 180.73 21.5619C180.261 21.4173 179.847 21.0653 179.503 20.5306C179.37 20.3103 179.272 20.0819 179.216 19.8348C179.16 19.5876 179.15 19.3393 179.182 19.0723C179.208 18.816 179.29 18.5655 179.408 18.3069C179.537 18.0552 179.687 17.8172 179.905 17.5917L179.461 16.9032C179.417 16.8298 179.401 16.7591 179.42 16.6806C179.439 16.602 179.474 16.5479 179.529 16.5074L180.641 15.8019C180.697 15.7615 180.778 15.7523 180.85 15.7825C180.928 15.8019 180.987 15.8537 181.038 15.9164L181.484 16.5764Z" fill="#DBB539"/>
</g>
<path d="M181.819 16.3342C182.122 16.238 182.408 16.1918 182.696 16.1918C182.984 16.1918 183.251 16.2243 183.498 16.2892C183.744 16.3541 183.97 16.4515 184.165 16.5745C184.36 16.6975 184.513 16.8393 184.624 16.9999C184.664 17.0557 184.669 17.1195 184.664 17.1764C184.651 17.2442 184.624 17.2875 184.575 17.3171L183.463 18.0226C183.383 18.0779 183.312 18.0938 183.249 18.0989C183.185 18.104 183.11 18.1023 183.032 18.083C183.003 18.0801 182.953 18.0636 182.892 18.0403C182.831 18.0169 182.746 18.0084 182.642 18.0038C182.539 17.9993 182.44 18.0124 182.317 18.0403C182.193 18.0682 182.06 18.1354 181.913 18.2242C181.808 18.2942 181.703 18.3643 181.62 18.448C181.526 18.5249 181.461 18.6046 181.406 18.6911C181.352 18.7777 181.315 18.8603 181.317 18.9525C181.302 19.0488 181.332 19.1439 181.399 19.231C181.458 19.3289 181.527 19.3876 181.634 19.4098C181.723 19.436 181.855 19.4434 182.014 19.4075C182.173 19.3716 182.374 19.317 182.617 19.2435C182.856 19.1524 183.159 19.0562 183.511 18.9303C183.863 18.8045 184.188 18.7219 184.492 18.6718C184.789 18.6325 185.07 18.6433 185.323 18.6974C185.577 18.7515 185.818 18.8734 186.032 19.0385C186.245 19.2037 186.447 19.4366 186.624 19.7304C186.794 19.9889 186.894 20.2634 186.947 20.539C187 20.8147 186.996 21.0846 186.928 21.3596C186.879 21.6307 186.772 21.896 186.608 22.1557C186.444 22.4154 186.247 22.6546 186.001 22.8772L186.43 23.5412C186.474 23.6147 186.49 23.6853 186.471 23.7639C186.451 23.8424 186.417 23.8965 186.362 23.937L185.25 24.6425C185.194 24.6829 185.113 24.6921 185.034 24.6727C184.956 24.6533 184.897 24.6015 184.846 24.5389L184.403 23.8504C184.093 23.9575 183.782 24.0184 183.476 24.0224C183.182 24.0332 182.897 24.0047 182.644 23.9506C182.379 23.8897 182.153 23.7923 181.954 23.6517C181.749 23.5218 181.581 23.3555 181.456 23.1705C181.415 23.1147 181.41 23.0509 181.416 22.9939C181.428 22.9262 181.455 22.8829 181.504 22.8533L182.616 22.1477C182.696 22.0925 182.767 22.0765 182.82 22.0646C182.883 22.0595 182.94 22.0652 183.019 22.0845C183.058 22.0942 183.119 22.1176 183.198 22.1369C183.287 22.1631 183.377 22.1893 183.491 22.2007C183.605 22.2121 183.732 22.2018 183.874 22.1699C184.015 22.1381 184.177 22.0737 184.337 21.9632C184.638 21.7748 184.864 21.5846 185.022 21.3818C185.18 21.1791 185.193 20.9906 185.068 20.8055C185.008 20.7076 184.922 20.6529 184.808 20.6415C184.694 20.6301 184.549 20.6444 184.361 20.6774C184.185 20.7173 183.959 20.7867 183.702 20.8818C183.446 20.9769 183.136 21.084 182.773 21.203C182.111 21.4359 181.537 21.482 181.064 21.3197C180.595 21.1751 180.182 20.8232 179.838 20.2885C179.704 20.0681 179.606 19.8397 179.55 19.5926C179.494 19.3454 179.485 19.0972 179.517 18.8301C179.542 18.5738 179.625 18.3233 179.743 18.0647C179.871 17.813 180.021 17.575 180.239 17.3495L179.796 16.661C179.751 16.5876 179.735 16.517 179.755 16.4384C179.774 16.3598 179.808 16.3057 179.864 16.2653L180.975 15.5597C181.031 15.5193 181.113 15.5102 181.184 15.5404C181.263 15.5597 181.321 15.6116 181.373 15.6742L181.819 16.3342Z" fill="#FFD522"/>
<path d="M25.9742 32.8796C29.3336 30.6275 34.423 32.3267 37.3169 36.6649C40.2216 41.0098 39.8522 46.3444 36.482 48.5898C35.6996 49.1097 33.8566 50.5185 33.8566 50.5185C33.8566 50.5185 27.3684 48.133 25.1285 44.7977C22.84 41.3713 23.3364 34.8761 23.3364 34.8761C23.3364 34.8761 25.2653 33.3551 25.9742 32.8796Z" fill="#DBB539"/>
<path d="M23.8564 34.5093C27.2158 32.2571 32.3051 33.9564 35.199 38.2945C38.1038 42.6395 37.7344 47.9741 34.3642 50.2194C31.0048 52.4716 25.9154 50.7723 23.0215 46.4342C20.1208 42.1069 20.497 36.7615 23.8564 34.5093Z" fill="#EDB539"/>
<path d="M25.0502 36.6237C27.4353 35.0275 31.1232 36.3567 33.2931 39.5872C35.4521 42.8108 35.2636 46.7315 32.8784 48.3277C30.4932 49.9238 26.8053 48.5947 24.6355 45.3642C22.4833 42.1297 22.665 38.2199 25.0502 36.6237Z" fill="#DBB539"/>
<path opacity="0.45" d="M24.6423 45.3531C23.14 43.1037 22.7694 40.5247 23.4991 38.625C23.09 40.4244 23.5339 42.6715 24.8555 44.6555C27.0145 47.8792 30.7024 49.2083 33.0984 47.619C33.8249 47.1395 34.3434 46.4379 34.6562 45.6065C34.3937 46.742 33.8144 47.7078 32.8852 48.3165C30.4823 49.9167 26.8053 48.5944 24.6423 45.3531Z" fill="#DBB539"/>
<g opacity="0.45">
<path opacity="0.45" d="M27.5611 39.0256C27.8641 38.9293 28.1506 38.8832 28.4383 38.8832C28.7259 38.8832 28.9931 38.9157 29.2398 38.9806C29.4864 39.0455 29.7126 39.1429 29.9075 39.2659C30.1024 39.3889 30.2551 39.5307 30.3657 39.6913C30.4062 39.7471 30.4114 39.8109 30.4057 39.8678C30.3932 39.9356 30.3659 39.9789 30.3169 40.0085L29.2055 40.714C29.1252 40.7692 29.0546 40.7852 28.9908 40.7903C28.927 40.7954 28.8524 40.7937 28.7737 40.7744C28.7452 40.7715 28.6951 40.755 28.6342 40.7317C28.5732 40.7083 28.4877 40.6998 28.3846 40.6952C28.2815 40.6907 28.1824 40.7038 28.0588 40.7317C27.9352 40.7596 27.802 40.8268 27.6551 40.9156C27.5503 40.9856 27.4456 41.0557 27.3624 41.1394C27.2685 41.2163 27.203 41.296 27.1484 41.3825C27.0938 41.4691 27.0568 41.5517 27.0591 41.6439C27.0506 41.7293 27.0746 41.8353 27.1408 41.9224C27.2 42.0203 27.269 42.079 27.3761 42.1012C27.4655 42.1274 27.5971 42.1348 27.756 42.0989C27.9149 42.063 28.116 42.0084 28.3592 41.9349C28.5983 41.8438 28.9013 41.7476 29.2533 41.6217C29.6052 41.4959 29.9299 41.4133 30.234 41.3632C30.5313 41.3239 30.8121 41.3347 31.0656 41.3888C31.3192 41.4429 31.5602 41.5648 31.7739 41.7299C31.9876 41.8951 32.1888 42.128 32.3667 42.4218C32.5366 42.6803 32.6358 42.9548 32.689 43.2304C32.7421 43.5061 32.7383 43.776 32.6707 44.051C32.6207 44.3221 32.5138 44.5874 32.3499 44.8471C32.186 45.1068 31.9896 45.346 31.7431 45.5686L32.1718 46.2326C32.2163 46.3061 32.2323 46.3767 32.213 46.4552C32.1937 46.5338 32.1595 46.5879 32.1037 46.6284L30.9922 47.3339C30.9364 47.3744 30.855 47.3835 30.7764 47.3641C30.6977 47.3447 30.6396 47.2929 30.5883 47.2303L30.1448 46.5418C29.8349 46.6489 29.524 46.7098 29.2187 46.7138C28.9242 46.7246 28.6394 46.6961 28.3859 46.642C28.1215 46.5811 27.8953 46.4837 27.6964 46.3431C27.4907 46.2132 27.3232 46.0469 27.1977 45.8619C27.1573 45.8061 27.1521 45.7423 27.1578 45.6853C27.1703 45.6176 27.1976 45.5743 27.2465 45.5447L28.358 44.8391C28.4383 44.7839 28.5089 44.768 28.5619 44.756C28.6257 44.7509 28.6827 44.7566 28.7613 44.7759C28.8006 44.7856 28.8615 44.809 28.9402 44.8283C29.0296 44.8545 29.119 44.8807 29.233 44.8921C29.3469 44.9035 29.4745 44.8932 29.6157 44.8614C29.757 44.8295 29.9187 44.7651 30.0793 44.6546C30.3799 44.4662 30.606 44.276 30.7642 44.0732C30.9224 43.8705 30.9354 43.682 30.81 43.4969C30.7507 43.399 30.6641 43.3443 30.5502 43.3329C30.4362 43.3215 30.291 43.3358 30.1036 43.3688C29.927 43.4087 29.7015 43.4781 29.4447 43.5732C29.1878 43.6683 28.878 43.7754 28.5152 43.8944C27.8535 44.1273 27.2793 44.1734 26.8065 44.0111C26.3376 43.8665 25.9239 43.5146 25.5801 42.9799C25.4466 42.7595 25.3485 42.5311 25.2926 42.284C25.2366 42.0368 25.2268 41.7886 25.2591 41.5215C25.2846 41.2652 25.367 41.0147 25.4848 40.7561C25.6134 40.5044 25.7636 40.2664 25.9816 40.0409L25.5381 39.3524C25.4936 39.279 25.4776 39.2084 25.4969 39.1298C25.5162 39.0512 25.5504 38.9971 25.6062 38.9567L26.7177 38.2511C26.7735 38.2107 26.8549 38.2016 26.9267 38.2317C27.0053 38.2511 27.0634 38.3029 27.1147 38.3656L27.5611 39.0256Z" fill="#DBB539"/>
</g>
<path d="M27.8958 38.7834C28.1988 38.6872 28.4853 38.641 28.7729 38.641C29.0606 38.641 29.3277 38.6735 29.5744 38.7384C29.8211 38.8033 30.0473 38.9007 30.2422 39.0237C30.437 39.1467 30.5898 39.2885 30.7004 39.4491C30.7409 39.5049 30.746 39.5687 30.7404 39.6256C30.7279 39.6934 30.7005 39.7367 30.6516 39.7663L29.5401 40.4718C29.4598 40.5271 29.3892 40.543 29.3254 40.5481C29.2616 40.5533 29.187 40.5516 29.1084 40.5322C29.0799 40.5293 29.0298 40.5128 28.9688 40.4895C28.9078 40.4661 28.8224 40.4576 28.7193 40.453C28.6162 40.4485 28.5171 40.4616 28.3935 40.4895C28.2699 40.5174 28.1367 40.5846 27.9897 40.6734C27.885 40.7435 27.7802 40.8135 27.6971 40.8972C27.6031 40.9741 27.5377 41.0538 27.4831 41.1404C27.4284 41.2269 27.3914 41.3095 27.3938 41.4018C27.3785 41.498 27.4093 41.5931 27.4754 41.6802C27.5347 41.7782 27.6037 41.8368 27.7108 41.859C27.8002 41.8852 27.9318 41.8926 28.0907 41.8567C28.2496 41.8209 28.4506 41.7662 28.6938 41.6927C28.933 41.6016 29.236 41.5054 29.5879 41.3795C29.9399 41.2537 30.2645 41.1711 30.5686 41.121C30.866 41.0817 31.1468 41.0925 31.4003 41.1466C31.6538 41.2007 31.8948 41.3226 32.1085 41.4878C32.3222 41.6529 32.5234 41.8858 32.7013 42.1796C32.8712 42.4382 32.9705 42.7127 33.0236 42.9883C33.0768 43.2639 33.0729 43.5338 33.0053 43.8089C32.9553 44.0799 32.8484 44.3453 32.6845 44.6049C32.5206 44.8646 32.3242 45.1038 32.0777 45.3264L32.5065 45.9904C32.5509 46.0639 32.5669 46.1345 32.5476 46.2131C32.5283 46.2917 32.4942 46.3457 32.4384 46.3862L31.3269 47.0917C31.2711 47.1322 31.1896 47.1413 31.111 47.1219C31.0324 47.1026 30.9743 47.0507 30.923 46.9881L30.4794 46.2996C30.1696 46.4067 29.8586 46.4676 29.5533 46.4716C29.2588 46.4824 28.974 46.4539 28.7205 46.3998C28.4562 46.3389 28.23 46.2415 28.0311 46.1009C27.8254 45.971 27.6578 45.8048 27.5324 45.6197C27.4919 45.5639 27.4868 45.5001 27.4924 45.4431C27.5049 45.3754 27.5322 45.3321 27.5812 45.3025L28.6927 44.5969C28.773 44.5417 28.8436 44.5258 28.8965 44.5138C28.9603 44.5087 29.0173 44.5144 29.0959 44.5338C29.1352 44.5434 29.1962 44.5668 29.2748 44.5861C29.3643 44.6123 29.4537 44.6385 29.5676 44.6499C29.6816 44.6613 29.8091 44.6511 29.9504 44.6192C30.0916 44.5873 30.2534 44.5229 30.4139 44.4125C30.7146 44.224 30.9406 44.0338 31.0988 43.8311C31.2571 43.6283 31.2701 43.4398 31.1446 43.2548C31.0853 43.1568 30.9987 43.1021 30.8848 43.0908C30.7709 43.0794 30.6256 43.0936 30.4382 43.1266C30.2617 43.1665 30.0361 43.236 29.7793 43.3311C29.5225 43.4262 29.2127 43.5332 28.8499 43.6522C28.1881 43.8851 27.614 43.9313 27.1411 43.769C26.6722 43.6243 26.2585 43.2724 25.9147 42.7377C25.7813 42.5173 25.6832 42.2889 25.6272 42.0418C25.5713 41.7947 25.5614 41.5464 25.5937 41.2793C25.6192 41.0231 25.7017 40.7725 25.8194 40.514C25.948 40.2623 26.0982 40.0242 26.3163 39.7987L25.8727 39.1103C25.8282 39.0368 25.8122 38.9662 25.8316 38.8876C25.8509 38.809 25.885 38.7549 25.9408 38.7145L27.0523 38.0089C27.1081 37.9685 27.1896 37.9594 27.2613 37.9896C27.34 38.0089 27.3981 38.0608 27.4494 38.1234L27.8958 38.7834Z" fill="#FFD522"/>
<path d="M176.389 49.9744C179.282 51.1616 180.383 55.1612 178.843 58.8876C177.304 62.6238 173.72 64.6839 170.827 63.4869C170.156 63.2084 168.458 62.6317 168.458 62.6317C168.458 62.6317 167.195 57.4384 168.372 54.5638C169.587 51.6188 173.971 49.1404 173.971 49.1404C173.971 49.1404 175.779 49.724 176.389 49.9744Z" fill="#DBB539"/>
<path d="M174.431 49.3165C177.324 50.5037 178.424 54.5034 176.885 58.2297C175.346 61.966 171.762 64.0261 168.869 62.829C165.976 61.6418 164.875 57.6421 166.414 53.9158C167.944 50.1897 171.538 48.1293 174.431 49.3165Z" fill="#EDB539"/>
<path d="M173.587 50.9935C175.639 51.8376 176.374 54.778 175.234 57.5625C174.094 60.337 171.495 61.9044 169.443 61.0602C167.391 60.2161 166.656 57.2757 167.796 54.4912C168.946 51.7164 171.535 50.1493 173.587 50.9935Z" fill="#DBB539"/>
<path opacity="0.45" d="M167.807 54.4911C168.604 52.5579 170.1 51.2093 171.634 50.8597C170.303 51.372 169.051 52.6247 168.346 54.3276C167.206 57.1022 167.941 60.0426 169.993 60.8966C170.614 61.1566 171.288 61.1874 171.956 61.0303C171.114 61.3507 170.245 61.3946 169.453 61.0601C167.391 60.2063 166.657 57.2759 167.807 54.4911Z" fill="#DBB539"/>
<g opacity="0.45">
<path opacity="0.45" d="M173.126 53.6404C173.319 53.7935 173.472 53.9576 173.596 54.1423C173.719 54.327 173.814 54.5125 173.878 54.6989C173.943 54.8852 173.978 55.0724 173.983 55.2505C173.987 55.4286 173.962 55.5877 173.907 55.7279C173.888 55.7779 173.85 55.8087 173.811 55.8296C173.762 55.8507 173.722 55.8518 173.682 55.8331L172.75 55.4233C172.68 55.3955 172.64 55.3571 172.609 55.3183C172.578 55.2796 172.547 55.2309 172.526 55.1721C172.515 55.1526 172.504 55.1133 172.493 55.0641C172.482 55.0149 172.45 54.9563 172.409 54.8882C172.367 54.82 172.316 54.762 172.245 54.6947C172.174 54.6273 172.074 54.5707 171.953 54.5146C171.863 54.4775 171.773 54.4404 171.684 54.4231C171.594 54.3959 171.514 54.3882 171.435 54.3904C171.356 54.3926 171.287 54.4044 171.229 54.4456C171.17 54.4769 171.113 54.538 171.085 54.6179C171.048 54.6982 171.04 54.7677 171.072 54.8461C171.094 54.9148 171.145 55.0024 171.237 55.089C171.328 55.1756 171.45 55.2812 171.602 55.4057C171.763 55.52 171.956 55.6731 172.188 55.8449C172.42 56.0167 172.613 56.1896 172.776 56.3633C172.93 56.5373 173.044 56.7223 173.118 56.9083C173.193 57.0944 173.218 57.3017 173.204 57.51C173.19 57.7183 173.127 57.9478 173.015 58.1886C172.922 58.409 172.789 58.591 172.635 58.7438C172.481 58.8966 172.306 59.0104 172.1 59.0854C171.904 59.17 171.688 59.2156 171.451 59.2222C171.213 59.2288 170.975 59.2057 170.726 59.1433L170.484 59.7045C170.456 59.7647 170.418 59.8054 170.359 59.8268C170.3 59.8483 170.251 59.8497 170.201 59.8312L169.269 59.4214C169.219 59.403 169.178 59.3546 169.157 59.2958C169.135 59.237 169.144 59.1773 169.162 59.1174L169.413 58.5361C169.211 58.3833 169.038 58.2099 168.904 58.0155C168.77 57.8311 168.665 57.636 168.591 57.4499C168.516 57.2539 168.481 57.0667 168.486 56.8785C168.481 56.6905 168.515 56.5113 168.58 56.351C168.599 56.301 168.637 56.2702 168.676 56.2493C168.725 56.2282 168.765 56.2271 168.805 56.2458L169.737 56.6556C169.807 56.6834 169.847 56.7219 169.878 56.7507C169.909 56.7895 169.929 56.8285 169.951 56.8873C169.962 56.9167 169.973 56.9659 169.994 57.0247C170.016 57.0935 170.038 57.1622 170.079 57.2402C170.121 57.3183 170.183 57.3958 170.264 57.4728C170.345 57.5497 170.456 57.6259 170.596 57.6814C170.847 57.7933 171.066 57.8565 171.265 57.8708C171.463 57.8851 171.59 57.8123 171.654 57.652C171.692 57.5718 171.69 57.4926 171.648 57.4145C171.606 57.3365 171.534 57.2494 171.432 57.1433C171.331 57.0471 171.189 56.9322 171.017 56.8082C170.846 56.6842 170.644 56.5314 170.411 56.3497C169.976 56.0251 169.7 55.6763 169.6 55.3028C169.491 54.9394 169.539 54.5222 169.734 54.0712C169.818 53.8906 169.923 53.7293 170.057 53.5869C170.192 53.4446 170.347 53.3313 170.532 53.2371C170.708 53.1431 170.904 53.0881 171.121 53.0524C171.338 53.0266 171.556 53.0205 171.794 53.0634L172.045 52.4821C172.073 52.4219 172.112 52.3813 172.171 52.3598C172.229 52.3384 172.279 52.337 172.329 52.3554L173.26 52.7653C173.31 52.7837 173.351 52.8321 173.363 52.8911C173.384 52.95 173.376 53.0096 173.358 53.0695L173.126 53.6404Z" fill="#DBB539"/>
</g>
<path d="M173.426 53.7512C173.618 53.9043 173.771 54.0684 173.895 54.2531C174.019 54.4378 174.113 54.6233 174.178 54.8097C174.242 54.996 174.277 55.1832 174.282 55.3613C174.287 55.5394 174.262 55.6986 174.206 55.8387C174.188 55.8888 174.149 55.9195 174.11 55.9404C174.061 55.9616 174.022 55.9627 173.982 55.944L173.05 55.5341C172.98 55.5064 172.939 55.4679 172.909 55.4292C172.878 55.3904 172.847 55.3417 172.825 55.2829C172.815 55.2634 172.804 55.2241 172.793 55.1749C172.781 55.1257 172.75 55.0672 172.709 54.999C172.667 54.9308 172.616 54.8728 172.545 54.8055C172.474 54.7382 172.373 54.6815 172.253 54.6255C172.163 54.5884 172.073 54.5512 171.983 54.5339C171.893 54.5067 171.814 54.499 171.735 54.5012C171.656 54.5034 171.587 54.5152 171.529 54.5564C171.46 54.5881 171.412 54.6488 171.385 54.7288C171.348 54.809 171.34 54.8786 171.372 54.9569C171.393 55.0256 171.445 55.1133 171.537 55.1999C171.628 55.2865 171.75 55.392 171.902 55.5165C172.063 55.6309 172.255 55.784 172.488 55.9557C172.72 56.1275 172.913 56.3004 173.076 56.4741C173.229 56.6481 173.343 56.8331 173.418 57.0192C173.492 57.2052 173.518 57.4125 173.504 57.6208C173.49 57.8292 173.427 58.0587 173.315 58.2994C173.222 58.5198 173.088 58.7018 172.934 58.8546C172.78 59.0074 172.605 59.1212 172.4 59.1962C172.204 59.2809 171.988 59.3265 171.75 59.3331C171.513 59.3396 171.275 59.3166 171.026 59.2542L170.784 59.8154C170.756 59.8756 170.717 59.9162 170.659 59.9377C170.6 59.9591 170.551 59.9605 170.501 59.9421L169.569 59.5322C169.519 59.5138 169.478 59.4654 169.456 59.4066C169.435 59.3478 169.443 59.2882 169.461 59.2282L169.712 58.647C169.51 58.4941 169.337 58.3207 169.203 58.1264C169.069 57.9419 168.965 57.7468 168.891 57.5607C168.816 57.3647 168.781 57.1776 168.786 56.9893C168.781 56.8013 168.815 56.6221 168.88 56.4619C168.898 56.4118 168.937 56.3811 168.976 56.3602C169.025 56.339 169.065 56.3379 169.105 56.3566L170.036 56.7664C170.106 56.7942 170.147 56.8327 170.178 56.8615C170.208 56.9003 170.229 56.9393 170.251 56.9982C170.261 57.0276 170.273 57.0768 170.294 57.1356C170.316 57.2043 170.337 57.273 170.379 57.3511C170.421 57.4291 170.482 57.5066 170.564 57.5836C170.645 57.6606 170.756 57.7367 170.896 57.7922C171.147 57.9041 171.366 57.9673 171.564 57.9816C171.763 57.9959 171.889 57.9231 171.954 57.7629C171.991 57.6826 171.989 57.6034 171.947 57.5254C171.906 57.4473 171.834 57.3602 171.732 57.2541C171.631 57.1579 171.489 57.043 171.317 56.919C171.145 56.7951 170.943 56.6423 170.711 56.4606C170.276 56.136 169.999 55.7872 169.9 55.4136C169.791 55.0503 169.839 54.6331 170.034 54.182C170.118 54.0015 170.222 53.8401 170.357 53.6978C170.491 53.5554 170.647 53.4422 170.832 53.3479C171.008 53.2539 171.204 53.199 171.421 53.1632C171.638 53.1374 171.855 53.1314 172.094 53.1743L172.345 52.593C172.373 52.5328 172.411 52.4921 172.47 52.4707C172.529 52.4492 172.578 52.4478 172.628 52.4663L173.56 52.8761C173.61 52.8945 173.651 52.9429 173.663 53.002C173.684 53.0608 173.676 53.1204 173.658 53.1804L173.426 53.7512Z" fill="#FFD522"/>
<path d="M11.0644 64.2273C13.9572 65.4145 15.0578 69.4142 13.5186 73.1405C11.9796 76.8768 8.3951 78.9369 5.50201 77.7398C4.83126 77.4613 3.13299 76.8846 3.13299 76.8846C3.13299 76.8846 1.87063 71.6913 3.04761 68.8167C4.26222 65.8717 8.64651 63.3933 8.64651 63.3933C8.64651 63.3933 10.4538 63.9769 11.0644 64.2273Z" fill="#DBB539"/>
<path d="M9.10602 63.569C11.9988 64.7562 13.0994 68.7558 11.5602 72.4822C10.0212 76.2184 6.4367 78.2785 3.54362 77.0814C0.650803 75.8942 -0.449772 71.8946 1.0895 68.1682C2.61888 64.4422 6.21321 62.3818 9.10602 63.569Z" fill="#EDB539"/>
<path d="M8.26233 65.2459C10.3144 66.0901 11.0491 69.0304 9.9092 71.8149C8.76904 74.5895 6.17039 76.1568 4.11834 75.3127C2.06629 74.4685 1.33157 71.5281 2.47147 68.7437C3.62152 65.9689 6.21028 64.4018 8.26233 65.2459Z" fill="#DBB539"/>
<path opacity="0.45" d="M2.48169 68.7436C3.27907 66.8103 4.77548 65.4617 6.30951 65.1122C4.97791 65.6244 3.72623 66.8771 3.02142 68.5801C1.88125 71.3546 2.61597 74.295 4.6683 75.149C5.28905 75.4091 5.96281 75.4399 6.63136 75.2827C5.78922 75.6031 4.91962 75.6471 4.12857 75.3126C2.06636 74.4588 1.33191 71.5283 2.48169 68.7436Z" fill="#DBB539"/>
<g opacity="0.45">
<path opacity="0.45" d="M7.80151 67.8933C7.99378 68.0464 8.14678 68.2105 8.27065 68.3952C8.39453 68.5799 8.48874 68.7654 8.55329 68.9518C8.61783 69.1381 8.65271 69.3253 8.65766 69.5034C8.6626 69.6815 8.63733 69.8406 8.58185 69.9808C8.56344 70.0308 8.52471 70.0616 8.48571 70.0825C8.43682 70.1037 8.39726 70.1048 8.35716 70.0861L7.42548 69.6762C7.35544 69.6485 7.31479 69.61 7.28403 69.5712C7.25327 69.5325 7.22223 69.4838 7.2008 69.425C7.19037 69.4055 7.17938 69.3662 7.16812 69.317C7.15686 69.2678 7.12554 69.2093 7.08407 69.1411C7.04259 69.0729 6.9915 69.0149 6.92036 68.9476C6.84922 68.8803 6.7487 68.8236 6.6284 68.7676C6.53831 68.7304 6.44821 68.6933 6.35867 68.676C6.26885 68.6488 6.18947 68.6411 6.11037 68.6433C6.03126 68.6455 5.96233 68.6573 5.9041 68.6985C5.84559 68.7299 5.7879 68.7909 5.76043 68.8709C5.72308 68.9511 5.71511 69.0207 5.74697 69.099C5.76867 69.1677 5.82058 69.2554 5.91205 69.342C6.00351 69.4285 6.12519 69.5341 6.27708 69.6586C6.43859 69.7729 6.63086 69.926 6.86323 70.0978C7.0956 70.2696 7.28842 70.4425 7.45157 70.6162C7.60484 70.7902 7.71883 70.9752 7.79326 71.1613C7.8677 71.3473 7.89323 71.5546 7.87922 71.7629C7.86521 71.9713 7.80232 72.2007 7.69025 72.4415C7.59741 72.6619 7.46391 72.8439 7.30982 72.9967C7.15573 73.1495 6.98078 73.2633 6.77505 73.3383C6.57948 73.423 6.36304 73.4686 6.12572 73.4752C5.88841 73.4817 5.65027 73.4586 5.40115 73.3962L5.15943 73.9575C5.13141 74.0177 5.09297 74.0583 5.03419 74.0798C4.97541 74.1012 4.92596 74.1026 4.87597 74.0842L3.94428 73.6743C3.8943 73.6559 3.85337 73.6075 3.83194 73.5487C3.81052 73.4899 3.81877 73.4303 3.8369 73.3703L4.08794 72.789C3.88578 72.6362 3.71274 72.4628 3.5787 72.2685C3.44494 72.084 3.34058 71.8889 3.26615 71.7028C3.19144 71.5068 3.15654 71.3197 3.16121 71.1314C3.15599 70.9434 3.1906 70.7642 3.25543 70.604C3.27383 70.5539 3.31257 70.5232 3.35157 70.5023C3.40046 70.4811 3.44002 70.48 3.48012 70.4987L4.41179 70.9085C4.48183 70.9363 4.52248 70.9748 4.55297 71.0036C4.58373 71.0424 4.60462 71.0814 4.62604 71.1402C4.63675 71.1697 4.64801 71.2189 4.66943 71.2777C4.69113 71.3464 4.71283 71.4151 4.75458 71.4932C4.79633 71.5712 4.85785 71.6487 4.93915 71.7257C5.02045 71.8027 5.13142 71.8788 5.2715 71.9343C5.522 72.0462 5.74146 72.1094 5.93977 72.1237C6.13808 72.138 6.26472 72.0652 6.32954 71.9049C6.36689 71.8247 6.3647 71.7455 6.32295 71.6675C6.2812 71.5894 6.2095 71.5023 6.1076 71.3962C6.00597 71.3 5.86426 71.1851 5.69259 71.0611C5.52092 70.9372 5.31876 70.7843 5.08611 70.6027C4.65159 70.278 4.37471 69.9292 4.27528 69.5557C4.16624 69.1924 4.21405 68.7752 4.40934 68.3241C4.49339 68.1436 4.59776 67.9822 4.73235 67.8399C4.86694 67.6975 5.02212 67.5843 5.20753 67.49C5.38304 67.396 5.57944 67.341 5.79615 67.3053C6.01314 67.2795 6.23069 67.2735 6.46938 67.3163L6.72042 66.735C6.74843 66.6749 6.78689 66.6342 6.84567 66.6127C6.90445 66.5913 6.9539 66.5899 7.00389 66.6084L7.93556 67.0182C7.98555 67.0366 8.02648 67.085 8.03802 67.1441C8.05944 67.2029 8.05119 67.2625 8.03306 67.3225L7.80151 67.8933Z" fill="#DBB539"/>
</g>
<path d="M8.10118 68.0037C8.29345 68.1568 8.44644 68.3209 8.57032 68.5056C8.69419 68.6903 8.78841 68.8758 8.85296 69.0621C8.9175 69.2485 8.95238 69.4357 8.95732 69.6138C8.96227 69.7919 8.937 69.951 8.88152 70.0912C8.86311 70.1412 8.82438 70.172 8.78537 70.1929C8.73648 70.214 8.69693 70.2151 8.65682 70.1964L7.72515 69.7866C7.65511 69.7588 7.61446 69.7203 7.5837 69.6816C7.55294 69.6428 7.5219 69.5942 7.50047 69.5354C7.49004 69.5159 7.47905 69.4766 7.46779 69.4274C7.45653 69.3782 7.42522 69.3196 7.38374 69.2514C7.34227 69.1833 7.29118 69.1253 7.22004 69.0579C7.1489 68.9906 7.04837 68.934 6.92807 68.8779C6.83798 68.8408 6.74788 68.8037 6.65834 68.7864C6.56852 68.7592 6.48914 68.7515 6.41004 68.7537C6.33093 68.7558 6.26199 68.7677 6.20376 68.8089C6.13536 68.8405 6.08758 68.9012 6.06011 68.9812C6.02275 69.0615 6.01478 69.131 6.04664 69.2093C6.06834 69.2781 6.12026 69.3657 6.21172 69.4523C6.30319 69.5389 6.42487 69.6444 6.57676 69.769C6.73826 69.8833 6.93053 70.0364 7.1629 70.2082C7.39527 70.38 7.58809 70.5529 7.75124 70.7266C7.90451 70.9006 8.0185 71.0855 8.09293 71.2716C8.16737 71.4577 8.1929 71.6649 8.17889 71.8733C8.16488 72.0816 8.10199 72.3111 7.98992 72.5519C7.89708 72.7723 7.76358 72.9542 7.60949 73.107C7.4554 73.2598 7.28044 73.3736 7.07471 73.4487C6.87914 73.5333 6.66271 73.5789 6.4254 73.5855C6.18808 73.5921 5.94994 73.569 5.70081 73.5066L5.4591 74.0678C5.43109 74.128 5.39263 74.1687 5.33385 74.1901C5.27507 74.2116 5.22564 74.2129 5.17565 74.1945L4.24397 73.7847C4.19398 73.7663 4.15305 73.7179 4.13163 73.6591C4.1102 73.6002 4.11844 73.5406 4.13657 73.4807L4.38762 72.8994C4.18547 72.7466 4.01242 72.5731 3.87839 72.3788C3.74462 72.1944 3.64025 71.9992 3.56581 71.8132C3.4911 71.6172 3.45623 71.43 3.4609 71.2417C3.45568 71.0537 3.49029 70.8745 3.55511 70.7143C3.57351 70.6643 3.61225 70.6335 3.65125 70.6126C3.70014 70.5915 3.73969 70.5904 3.77979 70.609L4.71147 71.0189C4.78151 71.0467 4.82216 71.0851 4.85265 71.114C4.88341 71.1527 4.90428 71.1918 4.9257 71.2506C4.93642 71.28 4.94769 71.3292 4.96911 71.388C4.99081 71.4567 5.01251 71.5254 5.05426 71.6035C5.09601 71.6816 5.15753 71.7591 5.23883 71.836C5.32013 71.913 5.4311 71.9891 5.57118 72.0447C5.82168 72.1565 6.04114 72.2198 6.23945 72.2341C6.43776 72.2484 6.56439 72.1755 6.62921 72.0153C6.66657 71.935 6.66437 71.8559 6.62262 71.7778C6.58087 71.6998 6.50918 71.6126 6.40728 71.5065C6.30565 71.4103 6.16392 71.2954 5.99225 71.1715C5.82058 71.0475 5.61843 70.8947 5.38579 70.713C4.95126 70.3884 4.67439 70.0396 4.57496 69.6661C4.46592 69.3027 4.51371 68.8855 4.70901 68.4345C4.79306 68.2539 4.89744 68.0926 5.03203 67.9502C5.16662 67.8078 5.3218 67.6946 5.5072 67.6003C5.68272 67.5064 5.87911 67.4514 6.09583 67.4157C6.31282 67.3898 6.53035 67.3838 6.76903 67.4267L7.02009 66.8454C7.04811 66.7852 7.08656 66.7445 7.14534 66.7231C7.20412 66.7017 7.25357 66.7003 7.30356 66.7187L8.23523 67.1285C8.28522 67.147 8.32615 67.1953 8.33768 67.2544C8.35911 67.3133 8.35086 67.3729 8.33273 67.4328L8.10118 68.0037Z" fill="#FFD522"/>
<defs>
<clipPath id="clip0">
<rect x="76.1324" y="2.2373" width="59.2565" height="87.1671" fill="white"/>
</clipPath>
<clipPath id="clip1">
<rect x="117.032" y="22.1904" width="45.6923" height="67.2141" fill="white"/>
</clipPath>
<clipPath id="clip2">
<rect x="36.2697" y="13.8042" width="51.3932" height="75.6001" fill="white"/>
</clipPath>
</defs>
</svg>
